<svg viewBox="0 0 73 26" width="73" height="26"><path d="M.52 0v20.16l2.6.01v-9.6h6.25V8.03H3.11v-5.5h8.15V0H.52zm15.4 4.1a1.7 1.7 0 1 0 0-3.4 1.7 1.7 0 0 0 0 3.4zm-1.31 2.53v13.54h2.6V6.63h-2.6z"></path><path fill-rule="evenodd" d="M26.82 6.24c-3.44 0-5.84 2.91-5.84 6.37s2.4 6.37 5.84 6.37c1.58 0 2.88-.6 3.83-1.6v1.8a4.07 4.07 0 0 1-4.06 4.12c-.83 0-1.65-.32-2.3-.78l-1.3 2.25a6.65 6.65 0 0 0 10.26-5.6V6.64h-2.6v1.21c-.95-1-2.25-1.6-3.83-1.6zm-3.25 6.37c0-2.15 1.64-3.84 3.54-3.84 1.9 0 3.53 1.7 3.53 3.84 0 2.15-1.64 3.83-3.53 3.83-1.9 0-3.54-1.68-3.54-3.83z"></path><path d="M42.59 8.77a2.83 2.83 0 0 0-2.78 2.84v8.56h-2.6V6.63h2.6v1.24a4.1 4.1 0 0 1 3.34-1.63c1.82 0 3.22.9 4.02 2.28a4.98 4.98 0 0 1 4.13-2.28c2.95 0 4.8 2.38 4.8 5.33v8.6h-2.58V11.6a2.83 2.83 0 0 0-2.78-2.84 2.83 2.83 0 0 0-2.78 2.84v8.56h-2.6V11.6a2.83 2.83 0 0 0-2.77-2.84z"></path><path fill-rule="evenodd" d="M69.93 8.17a6.27 6.27 0 0 0-4.57-1.93c-3.86 0-6.6 3.26-6.6 7.16 0 3.9 2.74 7.16 6.6 7.16a6.3 6.3 0 0 0 4.57-1.93v1.54h2.59V6.63h-2.6v1.54zm-8.58 5.23c0-2.58 1.98-4.63 4.29-4.63 2.3 0 4.29 2.05 4.29 4.63s-1.98 4.62-4.29 4.62c-2.3 0-4.29-2.04-4.29-4.62z"></path></svg>
