<svg width="28" height="42" viewBox="0 0 28 42" fill="none" xmlns="http://www.w3.org/2000/svg">
<path d="M0 6.99992C0 3.13397 3.13397 0 6.99992 0H7C10.866 0 14 3.13401 14 7C14 10.866 10.866 14 7 14H6.99992C3.13397 14 0 10.866 0 7.00008V6.99992Z" transform="translate(14.0005 13.9999)" fill="#3E96FB"/>
<path d="M0 7C0 3.13401 3.13401 0 7 0H14V7C14 10.866 10.866 14 7 14C3.13401 14 0 10.866 0 7Z" transform="translate(0 28)" fill="#A0D0FF"/>
<path d="M0 0H14V7C14 10.866 10.866 14 7 14C3.13401 14 0 10.866 0 7V0Z" transform="translate(14.0005) scale(-1 1) rotate(90)" fill="#79B8FF"/>
<path d="M0 7C0 3.13401 3.13401 0 7 0H14V14H7C3.13401 14 0 10.866 0 7Z" transform="translate(0 13.9999) scale(1 -1)" fill="#2188FF"/>
<path d="M0 7C0 3.13401 3.13401 0 7 0H14V14H7C3.13401 14 0 10.866 0 7Z" transform="translate(0 27.9999) scale(1 -1)" fill="#59A5F9"/>
</svg>
