<svg width="560" height="95" viewBox="0 0 560 95" fill="none" xmlns="http://www.w3.org/2000/svg">
<path fill-rule="evenodd" clip-rule="evenodd" d="M36 0C16.11 0 0 16.11 0 36C0 51.93 10.305 65.385 24.615 70.155C26.415 70.47 27.09 69.39 27.09 68.445C27.09 67.59 27.045 64.755 27.045 61.74C18 63.405 15.66 59.535 14.94 57.51C14.535 56.475 12.78 53.28 11.25 52.425C9.99 51.75 8.19 50.085 11.205 50.04C14.04 49.995 16.065 52.65 16.74 53.73C19.98 59.175 25.155 57.645 27.225 56.7C27.54 54.36 28.485 52.785 29.52 51.885C21.51 50.985 13.14 47.88 13.14 34.11C13.14 30.195 14.535 26.955 16.83 24.435C16.47 23.535 15.21 19.845 17.19 14.895C17.19 14.895 20.205 13.95 27.09 18.585C29.97 17.775 33.03 17.37 36.09 17.37C39.15 17.37 42.21 17.775 45.09 18.585C51.975 13.905 54.99 14.895 54.99 14.895C56.97 19.845 55.71 23.535 55.35 24.435C57.645 26.955 59.04 30.15 59.04 34.11C59.04 47.925 50.625 50.985 42.615 51.885C43.92 53.01 45.045 55.17 45.045 58.545C45.045 63.36 45 67.23 45 68.445C45 69.39 45.675 70.515 47.475 70.155C61.695 65.385 72 51.885 72 36C72 16.11 55.89 0 36 0V0Z" transform="translate(244 14)" fill="#C8E1FF"/>
<g opacity="0.7">
<path fill-rule="evenodd" clip-rule="evenodd" d="M20 12.02C18.54 12.02 17.24 12.84 16.54 14.06V14.02C14.44 13.98 12 13.3 10.28 11.98C8.78 10.82 7.28 8.76 6.5 7.1C7.4 6.38 8 5.26 8 4C8 1.78 6.22 0 4 0C1.78 0 0 1.8 0 4.02C0 5.48 0.82 6.78 2 7.46V20.58C0.82 21.28 0 22.56 0 24.02C0 26.24 1.78 28.02 4 28.02C6.22 28.02 8 26.24 8 24.02C8 22.56 7.18 21.26 6 20.58V13.36C7.34 14.76 8.88 15.9 10.6 16.74C12.32 17.58 14.66 18 16.54 18.02V17.98C17.26 19.2 18.54 20.02 20 20.02C22.22 20.02 24 18.24 24 16.02C24 13.8 22.22 12.02 20 12.02V12.02ZM6.4001 24.02C6.4001 25.34 5.3001 26.42 4.0001 26.42C2.7001 26.42 1.6001 25.32 1.6001 24.02C1.6001 22.72 2.7001 21.62 4.0001 21.62C5.3001 21.62 6.4001 22.72 6.4001 24.02V24.02ZM4.0001 6.42C2.6801 6.42 1.6001 5.32 1.6001 4.02C1.6001 2.72 2.7001 1.62 4.0001 1.62C5.3001 1.62 6.4001 2.72 6.4001 4.02C6.4001 5.32 5.3001 6.42 4.0001 6.42V6.42ZM20.0001 18.42C18.6801 18.42 17.6001 17.32 17.6001 16.02C17.6001 14.72 18.7001 13.62 20.0001 13.62C21.3001 13.62 22.4001 14.72 22.4001 16.02C22.4001 17.32 21.3001 18.42 20.0001 18.42V18.42Z" transform="translate(360 1.97998)" fill="#79B8FF"/>
</g>
<g opacity="0.6">
<path fill-rule="evenodd" clip-rule="evenodd" d="M11.25 6L15 9.75L11.25 13.5L10.125 12.375L12.75 9.75L10.125 7.125L11.25 6V6ZM6.75 6L3 9.75L6.75 13.5L7.875 12.375L5.25 9.75L7.875 7.125L6.75 6V6ZM0 18V1.5C0 0.675 0.675 0 1.5 0H16.5C17.325 0 18 0.675 18 1.5V18C18 18.825 17.325 19.5 16.5 19.5H1.5C0.675 19.5 0 18.825 0 18V18ZM1.5 18H16.5V1.5H1.5V18V18Z" transform="translate(403 33.5)" fill="#79B8FF"/>
</g>
<g opacity="0.5">
<path fill-rule="evenodd" clip-rule="evenodd" d="M3 4C2.45 4 2 4.45 2 5V7C2 7.55 2.45 8 3 8H11C11.55 8 12 7.55 12 7V5C12 4.45 11.55 4 11 4H3V4ZM11 5.75L9.75 7H8.25L7 5.75L5.75 7H4.25L3 5.75V5H3.75L5 6.25L6.25 5H7.75L9 6.25L10.25 5H11V5.75V5.75ZM5 9H9V10H5V9V9ZM7 0C3.14 0 0 2.91 0 6.5V11C0 11.55 0.45 12 1 12H13C13.55 12 14 11.55 14 11V6.5C14 2.91 10.86 0 7 0V0ZM13 11H1V6.50003C1 3.41003 3.64 0.910034 7 0.910034C10.36 0.910034 13 3.41003 13 6.50003V11V11Z" transform="translate(65 44)" fill="#79B8FF"/>
</g>
<g opacity="0.5">
<path fill-rule="evenodd" clip-rule="evenodd" d="M14 5L9.1 4.36L7 0L4.9 4.36L0 5L3.6 8.26L2.67 13L7 10.67L11.33 13L10.4 8.26L14 5V5Z" transform="translate(481 39)" fill="#79B8FF"/>
</g>
<g opacity="0.6">
<path fill-rule="evenodd" clip-rule="evenodd" d="M18.375 16.625L13.6125 11.8375C14.4875 10.6125 15 9.125 15 7.5C15 3.3625 11.6375 0 7.5 0C3.3625 0 0 3.3625 0 7.5C0 11.6375 3.3625 15 7.5 15C9.125 15 10.6 14.4875 11.8375 13.6125L16.625 18.375C16.8625 18.625 17.1875 18.75 17.5 18.75C17.8125 18.75 18.15 18.6375 18.375 18.375C18.8625 17.8875 18.8625 17.1 18.375 16.6125V16.625ZM7.5 13.375C4.2625 13.375 1.625 10.7375 1.625 7.5C1.625 4.2625 4.2625 1.625 7.5 1.625C10.7375 1.625 13.375 4.2625 13.375 7.5C13.375 10.7375 10.7375 13.375 7.5 13.375V13.375Z" transform="translate(449.25 62)" fill="#79B8FF"/>
</g>
<g opacity="0.3">
<path fill-rule="evenodd" clip-rule="evenodd" d="M7.5 5.25H4.5L6.75 0L0 6.75H3L0.75 12L7.5 5.25V5.25Z" transform="translate(0 12)" fill="#79B8FF"/>
</g>
<g opacity="0.4">
<path fill-rule="evenodd" clip-rule="evenodd" d="M10.6488 3.35122C10.4125 3.11497 10.2375 2.86997 10.0975 2.58122C9.9575 2.30997 9.86125 2.00372 9.8 1.68872C9.2925 1.97747 8.785 2.30122 8.28625 2.67747C7.77875 3.06247 7.28875 3.49997 6.8075 3.97247C6.195 4.58497 5.64375 5.55622 5.25 6.11622H2.625L0 8.74997H2.625L4.375 6.99997C4.0775 7.67372 3.4825 9.60747 3.5 9.62497L4.375 10.5C4.3925 10.5175 6.32625 9.93997 7 9.62497L5.25 11.375V14L7.875 11.375V8.74997C8.435 8.35622 9.40625 7.79622 10.0188 7.19247C10.5 6.71122 10.9375 6.20372 11.305 5.70497C11.69 5.19747 12.0138 4.68997 12.3025 4.19997C11.9875 4.12997 11.69 4.03372 11.4013 3.90247C11.13 3.76247 10.885 3.58747 10.6488 3.35122V3.35122ZM14.0001 0C14.0001 0 13.9214 0.3325 13.7376 0.9275C13.5626 1.54 13.2564 2.31 12.8101 3.255C12.1976 3.185 11.6989 2.96625 11.3576 2.625C11.0164 2.28375 10.8064 1.8025 10.7451 1.19C11.6901 0.735 12.4514 0.42 13.0551 0.245C13.6676 0.07 14.0001 0 14.0001 0V0Z" transform="translate(18 40)" fill="#79B8FF"/>
</g>
<g opacity="0.5">
<path fill-rule="evenodd" clip-rule="evenodd" d="M9 11H11L8 14L5 11H7V6H9V11V11ZM12 3C12 2.56 11.09 0 7.5 0C5.08 0 3 1.92 3 4C1.02 4 0 5.52 0 7C0 8.53 1 10 3 10C3.44 10 5.66 10 6 10V8.7H3C1.38 8.7 1.3 7.28 1.3 7C1.3 6.83 1.35 5.3 3 5.3H4.3V4C4.3 2.61 5.86 1.3 7.5 1.3C10.05 1.3 10.63 2.85 10.7 3.1V4.3H12C12.81 4.3 14.7 4.52 14.7 6.5C14.7 8.59 12.45 8.7 12 8.7H10V10C10.38 10 11.98 10 12 10C14.08 10 16 8.84 16 6.5C16 4.06 14.08 3 12 3V3Z" transform="translate(38 14)" fill="#79B8FF"/>
</g>
<g opacity="0.6">
<path fill-rule="evenodd" clip-rule="evenodd" d="M9 0.494176V1.29418L9.5 2.29418L5 5.29418H1.2C0.76 5.29418 0.53 5.82418 0.86 6.15418L4 9.29418L0 14.2942L5 10.2942L8.14 13.4342C8.47 13.7642 9 13.5242 9 13.0942V9.29418L12 4.79418L13 5.29418H13.8C14.24 5.29418 14.47 4.76418 14.14 4.43418L9.86 0.154176C9.53 -0.175824 9 0.0641761 9 0.494176V0.494176Z" transform="translate(443 5.70581)" fill="#79B8FF"/>
</g>
<g opacity="0.3">
<path fill-rule="evenodd" clip-rule="evenodd" d="M6 6H4.5V2.25H6V6V6ZM4.5 8.25H6V6.75H4.5V8.25V8.25ZM9.2475 6.75H7.5L8.625 7.875C7.8375 8.8725 6.6225 9.525 5.25 9.525C2.895 9.525 0.975 7.605 0.975 5.25C0.975 4.995 0.9975 4.7475 1.0425 4.5H0.06C0.0225 4.7475 0 4.995 0 5.25C0 8.145 2.355 10.5 5.25 10.5C6.8925 10.5 8.3475 9.735 9.3075 8.5575L10.5 9.75V6.75H9.2475V6.75ZM1.2525 3.75H3L1.875 2.625C2.6625 1.6275 3.8775 0.975 5.25 0.975C7.605 0.975 9.525 2.895 9.525 5.25C9.525 5.505 9.5025 5.7525 9.4575 6H10.44C10.4775 5.7525 10.5 5.505 10.5 5.25C10.5 2.355 8.145 0 5.25 0C3.6075 0 2.1525 0.765 1.1925 1.9425L0 0.75V3.75H1.2525V3.75Z" transform="translate(549 12.75)" fill="#79B8FF"/>
</g>
<g opacity="0.7">
<path fill-rule="evenodd" clip-rule="evenodd" d="M15.255 13.5H19.755V12H15.255V10.5L20.01 8.955L19.5 7.545L15.255 9V7.5C15.255 6.675 14.58 6 13.755 6V4.5C13.755 3.78 13.215 3.18 12.51 3.045L14.055 1.5H16.755V0H13.455L10.455 3H9.57L6.555 0H3.255V1.5H5.955L7.5 3.045C6.795 3.18 6.255 3.765 6.255 4.5V6C5.43 6 4.755 6.675 4.755 7.5V9L0.51 7.545L0 8.955L4.755 10.5V12H0.255V13.5H4.755V15L0 16.545L0.51 17.955L4.755 16.5V18C4.755 18.825 5.43 19.5 6.255 19.5H7.755L9.255 18V7.5H10.755V18L12.255 19.5H13.755C14.58 19.5 15.255 18.825 15.255 18V16.5L19.5 17.955L20.01 16.545L15.255 15V13.5V13.5ZM12.2549 6H7.75488V4.5H12.2549V6V6Z" transform="translate(382.245 72.5)" fill="#79B8FF"/>
</g>
<g opacity="0.4">
<path fill-rule="evenodd" clip-rule="evenodd" d="M0 9.26843V11.8934H2.625L9.625 4.89343L7 2.26843L0 9.26843V9.26843ZM2.625 11.0184H0.875V9.26843H1.75V10.1434H2.625V11.0184V11.0184ZM11.6375 2.88094L10.5 4.01844L7.875 1.39344L9.0125 0.255938C9.35375 -0.0853125 9.905 -0.0853125 10.2463 0.255938L11.6375 1.64719C11.9788 1.98844 11.9788 2.53969 11.6375 2.88094V2.88094Z" transform="translate(528 38.2316)" fill="#79B8FF"/>
</g>
<g opacity="0.7">
<path fill-rule="evenodd" clip-rule="evenodd" d="M23.52 10.605L21.9 8.595C21.645 8.265 21.48 7.875 21.435 7.44L21.15 4.89C21.03 3.84 20.205 3.015 19.155 2.895L16.605 2.61C16.155 2.565 15.765 2.37 15.435 2.115L13.425 0.495C12.6 -0.165 11.43 -0.165 10.605 0.495L8.595 2.115C8.265 2.37 7.875 2.535 7.44 2.58L4.89 2.865C3.84 2.985 3.015 3.81 2.895 4.86L2.61 7.41C2.565 7.86 2.37 8.25 2.115 8.58L0.495 10.59C-0.165 11.415 -0.165 12.585 0.495 13.41L2.115 15.42C2.37 15.75 2.535 16.14 2.58 16.575L2.865 19.125C2.985 20.175 3.81 21 4.86 21.12L7.41 21.405C7.86 21.45 8.25 21.645 8.58 21.9L10.59 23.52C11.415 24.18 12.585 24.18 13.41 23.52L15.42 21.9C15.75 21.645 16.14 21.48 16.575 21.435L19.125 21.15C20.175 21.03 21 20.205 21.12 19.155L21.405 16.605C21.45 16.155 21.645 15.765 21.9 15.435L23.52 13.425C24.18 12.6 24.18 11.43 23.52 10.605V10.605ZM9.76514 18.015L4.51514 12.765L6.76514 10.515L9.76514 13.515L17.2651 6.01501L19.5151 8.34001L9.76514 18.015V18.015Z" transform="translate(153.985 3.98499)" fill="#79B8FF"/>
</g>
<g opacity="0.6">
<path fill-rule="evenodd" clip-rule="evenodd" d="M2.5 13.75C2.5 14.4875 2.5 15 1.7625 15H0.7375C0 15 0 14.4875 0 13.75C0 13.0125 0 12.5 0.7375 12.5H1.75C2.4875 12.5 2.4875 13.0125 2.4875 13.75H2.5ZM5.7375 2.5H14.25C14.9875 2.5 14.9875 1.9875 14.9875 1.25C14.9875 0.5125 14.9875 0 14.25 0H5.7375C5 0 5 0.5125 5 1.25C5 1.9875 5 2.5 5.7375 2.5V2.5ZM1.7625 6.25H0.7375C0 6.25 0 6.7625 0 7.5C0 8.2375 0 8.75 0.7375 8.75H1.75C2.4875 8.75 2.4875 8.2375 2.4875 7.5C2.4875 6.7625 2.4875 6.25 1.75 6.25H1.7625ZM1.7625 0H0.7375C0 0 0 0.5125 0 1.25C0 1.9875 0 2.5 0.7375 2.5H1.75C2.4875 2.5 2.4875 1.9875 2.4875 1.25C2.4875 0.5125 2.4875 0 1.75 0H1.7625ZM14.2625 6.25H5.7375C5 6.25 5 6.7625 5 7.5C5 8.2375 5 8.75 5.7375 8.75H14.25C14.9875 8.75 14.9875 8.2375 14.9875 7.5C14.9875 6.7625 14.9875 6.25 14.25 6.25H14.2625ZM14.2625 12.5H5.7375C5 12.5 5 13.0125 5 13.75C5 14.4875 5 15 5.7375 15H14.25C14.9875 15 14.9875 14.4875 14.9875 13.75C14.9875 13.0125 14.9875 12.5 14.25 12.5H14.2625Z" transform="translate(125 43.5)" fill="#79B8FF"/>
</g>
<g opacity="0.5">
<path fill-rule="evenodd" clip-rule="evenodd" d="M4.5 3H6V4.5H4.5V3V3ZM9 2.625V9.75C9 10.1625 8.6625 10.5 8.25 10.5H0.75C0.3375 10.5 0 10.1625 0 9.75V0.75C0 0.3375 0.3375 0 0.75 0H6.375L9 2.625V2.625ZM8.25 3L6 0.75H0.75V9L3 5.25L4.5 8.25L6 6.75L8.25 9V3V3Z" transform="translate(509 13.75)" fill="#79B8FF"/>
</g>
<g opacity="0.5">
<path fill-rule="evenodd" clip-rule="evenodd" d="M13 0H1C0.45 0 0 0.45 0 1V13C0 13.55 0.45 14 1 14H13C13.55 14 14 13.55 14 13V1C14 0.45 13.55 0 13 0V0ZM13 13H1V1H13V13V13ZM6 8H3V6H6V3H8V6H11V8H8V11H6V8V8Z" transform="translate(90 12)" fill="#79B8FF"/>
</g>
<g opacity="0.7">
<path fill-rule="evenodd" clip-rule="evenodd" d="M12 10H8V8H12V10V10ZM18 12H8V14H18V12V12ZM28 11.04V28C28 29.1 27.1 30 26 30H2C0.9 30 0 29.1 0 28V11.04C0 10.38 0.32 9.78 0.84 9.42L4 7.16V6C4 4.9 4.9 4 6 4H8.4L14 0L19.6 4H22C23.1 4 24 4.9 24 6V7.16L27.16 9.42C27.7 9.8 28 10.38 28 11.04V11.04ZM6 15L14 20L22 15V6H6V15V15ZM2 27L11 21L2 15V27V27ZM24 28L14 22L4 28H24V28ZM26 15L17 21L26 27V15V15Z" transform="translate(172 63)" fill="#79B8FF"/>
</g>
<g opacity="0.6">
<path fill-rule="evenodd" clip-rule="evenodd" d="M11.25 0C10.0375 0 9.1375 0.525 8.5 1.25C7.8625 1.975 7.525 2.4 7.5 2.5C7.475 2.4 7.15 1.975 6.5 1.25C5.85 0.525 5.0375 0 3.75 0C1.71004 0.107367 0.0578931 1.66585 0 3.75C0 4.4 0.1125 5.65 0.8375 7.0875C1.5625 8.525 3.7625 10.7625 7.5 13.75C11.225 10.7625 13.4625 8.5375 14.175 7.0875C14.8875 5.6375 15 4.375 15 3.75C14.9413 1.63775 13.3228 0.109095 11.25 0Z" transform="translate(95 74.5)" fill="#79B8FF"/>
</g>
</svg>
