<svg width="392" height="285" viewBox="0 0 392 285" fill="none" xmlns="http://www.w3.org/2000/svg">
<rect width="262" height="231" transform="translate(130 38)" fill="#044289"/>
<path d="M263.777 121.902C292.627 192.381 194.78 253.643 145.757 241.441C96.7342 229.239 38.2275 210.057 6.75549 131.927C-24.7165 53.7964 60.0828 -44.1681 130.895 21.6643C201.708 87.4967 234.928 51.4237 263.777 121.902Z" transform="translate(0 13)" fill="#0366D6"/>
<rect width="12" height="32" transform="translate(300 230)" fill="#005CC5"/>
<rect width="12" height="32" transform="translate(324 230)" fill="#005CC5"/>
<rect width="12" height="32" transform="translate(348 230)" fill="#005CC5"/>
<rect width="12" height="32" transform="translate(372 230)" fill="#005CC5"/>
<rect width="100" height="34" transform="translate(292 235)" fill="#0366D6"/>
<path opacity="0.6" d="M100 0V24H0L100 0Z" transform="translate(292 245)" fill="#2188FF"/>
<rect width="12" height="32" transform="translate(196.33 229.82) rotate(-20.7024)" fill="#032F62"/>
<rect width="12" height="32" transform="translate(218.78 221.335) rotate(-20.7024)" fill="#032F62"/>
<rect width="12" height="32" transform="translate(241.23 212.851) rotate(-20.7024)" fill="#032F62"/>
<rect width="12" height="32" transform="translate(263.68 204.367) rotate(-20.7024)" fill="#032F62"/>
<rect width="100" height="34" transform="translate(190.614 237.325) rotate(-20.7024)" fill="#032F62"/>
<circle cx="16" cy="16" r="15.5" transform="translate(141)" stroke="#79B8FF"/>
<rect x="0.5" y="0.5" width="15" height="15" transform="translate(207.314 32) rotate(45)" stroke="#79B8FF"/>
<rect x="0.5" y="0.5" width="31" height="31" transform="translate(348 167) rotate(90)" stroke="#05264C"/>
<mask id="mask0" mask-type="alpha" maskUnits="userSpaceOnUse" x="0" y="157" width="100" height="45">
<rect width="100" height="45" transform="translate(0 157)" fill="#005CC5"/>
</mask>
<g mask="url(#mask0)">
<line y1="-0.5" x2="147.078" y2="-0.5" transform="translate(-2 161.5) rotate(-45)" stroke="#79B8FF"/>
<line y1="-0.5" x2="147.078" y2="-0.5" transform="translate(-2 173) rotate(-45)" stroke="#79B8FF"/>
<line y1="-0.5" x2="147.078" y2="-0.5" transform="translate(-2 184.5) rotate(-45)" stroke="#79B8FF"/>
<line y1="-0.5" x2="147.078" y2="-0.5" transform="translate(-2 196) rotate(-45)" stroke="#79B8FF"/>
<line y1="-0.5" x2="147.078" y2="-0.5" transform="translate(-2 207.5) rotate(-45)" stroke="#79B8FF"/>
<line y1="-0.5" x2="147.078" y2="-0.5" transform="translate(-2 219) rotate(-45)" stroke="#79B8FF"/>
<line y1="-0.5" x2="147.078" y2="-0.5" transform="translate(-2 230.5) rotate(-45)" stroke="#79B8FF"/>
<line y1="-0.5" x2="147.078" y2="-0.5" transform="translate(-2 242) rotate(-45)" stroke="#79B8FF"/>
<line y1="-0.5" x2="147.078" y2="-0.5" transform="translate(-2 253.5) rotate(-45)" stroke="#79B8FF"/>
<line y1="-0.5" x2="147.078" y2="-0.5" transform="translate(-2 265) rotate(-45)" stroke="#79B8FF"/>
<line y1="-0.5" x2="147.078" y2="-0.5" transform="translate(-2 276.5) rotate(-45)" stroke="#79B8FF"/>
<line y1="-0.5" x2="147.078" y2="-0.5" transform="translate(-2 288) rotate(-45)" stroke="#79B8FF"/>
<line y1="-0.5" x2="147.078" y2="-0.5" transform="translate(-2 299.5) rotate(-45)" stroke="#79B8FF"/>
</g>
<path d="M0 0C4 0 4 8 8 8C12 8 12 0 16 0C20 0 20 8 24 8C28 8 28 0 32 0C36 0 36 8 40 8" transform="translate(156 188)" stroke="#032F62"/>
<path d="M0 0C8 0 8 16 16 16C24 16 24 0 32 0C40 0 40 16 48 16C56 16 56 0 64 0C72 0 72 16 80 16" transform="translate(364 148) rotate(-90)" stroke="#79B8FF"/>
<path d="M48 46C48 59.2548 37.2548 70 24 70C10.7452 70 0 59.2548 0 46C0 30.5 23 12 24 0C25 12 48 31 48 46Z" transform="translate(106 83)" fill="#044289"/>
<path fill-rule="evenodd" clip-rule="evenodd" d="M25.4033 134C32.2012 123.721 37 98.7158 37 69.4999C37 31.1162 28.7173 0 18.5 0C8.28271 0 0 31.1162 0 69.4999C0 98.7158 4.79883 123.721 11.5967 134H25.4033Z" transform="translate(110.994 151)" fill="#05264C"/>
<mask id="mask1" mask-type="alpha" maskUnits="userSpaceOnUse" x="110" y="151" width="38" height="134">
<path fill-rule="evenodd" clip-rule="evenodd" d="M25.4033 134C32.2012 123.721 37 98.7158 37 69.4999C37 31.1162 28.7173 0 18.5 0C8.28271 0 0 31.1162 0 69.4999C0 98.7158 4.79883 123.721 11.5967 134H25.4033Z" transform="translate(110.994 151)" fill="#05264C"/>
</mask>
<g mask="url(#mask1)">
<rect width="55" height="38" transform="translate(101.001 144)" fill="#79B8FF"/>
</g>
<mask id="mask2" mask-type="alpha" maskUnits="userSpaceOnUse" x="105" y="83" width="49" height="70">
<path d="M48 46C48 59.2548 37.2548 70 24 70C10.7452 70 0 59.2548 0 46C0 30.5 23 12 24 0C25 12 48 31 48 46Z" transform="translate(106 83)" fill="#032F62"/>
</mask>
<g mask="url(#mask2)">
<ellipse cx="29.5" cy="34" rx="29.5" ry="34" transform="translate(88.9988 107)" fill="#032F62"/>
</g>
<path d="M0 0C8 0 8 16 16 16C24 16 24 0 32 0C40 0 40 16 48 16" transform="translate(91 119)" stroke="#79B8FF" stroke-linecap="square"/>
</svg>
