<svg width="428" height="298" viewBox="0 0 428 298" fill="none" xmlns="http://www.w3.org/2000/svg">
<rect width="380" height="243" transform="translate(48 48)" fill="#044289"/>
<path d="M274.564 126.919C304.593 200.298 202.745 264.081 151.717 251.377C100.69 238.672 39.7907 218.702 7.03174 137.356C-25.7273 56.0102 62.5398 -45.9857 136.248 22.5558C209.956 91.0973 244.535 53.5399 274.564 126.919Z" transform="translate(5 8)" fill="#0366D6"/>
<rect width="12" height="32" transform="translate(311 232)" fill="#005CC5"/>
<rect width="12" height="32" transform="translate(335 232)" fill="#005CC5"/>
<rect width="12" height="32" transform="translate(359 232)" fill="#005CC5"/>
<rect width="12" height="32" transform="translate(383 232)" fill="#005CC5"/>
<rect width="100" height="34" transform="translate(303 237)" fill="#0366D6"/>
<path opacity="0.6" d="M100 0V24H0L100 0Z" transform="translate(303 247)" fill="#2188FF"/>
<rect width="12" height="32" transform="translate(207.33 231.82) rotate(-20.7024)" fill="#032F62"/>
<rect width="12" height="32" transform="translate(229.78 223.335) rotate(-20.7024)" fill="#032F62"/>
<rect width="12" height="32" transform="translate(252.23 214.851) rotate(-20.7024)" fill="#032F62"/>
<rect width="12" height="32" transform="translate(274.68 206.367) rotate(-20.7024)" fill="#032F62"/>
<rect width="100" height="34" transform="translate(201.614 239.325) rotate(-20.7024)" fill="#032F62"/>
<circle cx="16" cy="16" r="15.5" transform="translate(152)" stroke="#79B8FF"/>
<rect x="0.5" y="0.5" width="15" height="15" transform="translate(218.314 32) rotate(45)" stroke="#79B8FF"/>
<rect x="0.5" y="0.5" width="31" height="31" transform="translate(366 167) rotate(90)" stroke="#79B8FF"/>
<mask id="mask0" mask-type="alpha" maskUnits="userSpaceOnUse" x="0" y="154" width="100" height="45">
<rect width="100" height="45" transform="translate(0 154)" fill="#005CC5"/>
</mask>
<g mask="url(#mask0)">
<line y1="-0.5" x2="147.078" y2="-0.5" transform="translate(-2 158.5) rotate(-45)" stroke="#79B8FF"/>
<line y1="-0.5" x2="147.078" y2="-0.5" transform="translate(-2 170) rotate(-45)" stroke="#79B8FF"/>
<line y1="-0.5" x2="147.078" y2="-0.5" transform="translate(-2 181.5) rotate(-45)" stroke="#79B8FF"/>
<line y1="-0.5" x2="147.078" y2="-0.5" transform="translate(-2 193) rotate(-45)" stroke="#79B8FF"/>
<line y1="-0.5" x2="147.078" y2="-0.5" transform="translate(-2 204.5) rotate(-45)" stroke="#79B8FF"/>
<line y1="-0.5" x2="147.078" y2="-0.5" transform="translate(-2 216) rotate(-45)" stroke="#79B8FF"/>
<line y1="-0.5" x2="147.078" y2="-0.5" transform="translate(-2 227.5) rotate(-45)" stroke="#79B8FF"/>
<line y1="-0.5" x2="147.078" y2="-0.5" transform="translate(-2 239) rotate(-45)" stroke="#79B8FF"/>
<line y1="-0.5" x2="147.078" y2="-0.5" transform="translate(-2 250.5) rotate(-45)" stroke="#79B8FF"/>
<line y1="-0.5" x2="147.078" y2="-0.5" transform="translate(-2 262) rotate(-45)" stroke="#79B8FF"/>
<line y1="-0.5" x2="147.078" y2="-0.5" transform="translate(-2 273.5) rotate(-45)" stroke="#79B8FF"/>
<line y1="-0.5" x2="147.078" y2="-0.5" transform="translate(-2 285) rotate(-45)" stroke="#79B8FF"/>
<line y1="-0.5" x2="147.078" y2="-0.5" transform="translate(-2 296.5) rotate(-45)" stroke="#79B8FF"/>
</g>
<path d="M3.00962 23.5L16 1L28.9904 23.5H3.00962Z" transform="translate(88 297.713) rotate(-120)" stroke="#79B8FF"/>
<path d="M0 0C4 0 4 8 8 8C12 8 12 0 16 0C20 0 20 8 24 8C28 8 28 0 32 0C36 0 36 8 40 8" transform="translate(167 188)" stroke="#C8E1FF"/>
<path d="M0 0C8 0 8 16 16 16C24 16 24 0 32 0C40 0 40 16 48 16C56 16 56 0 64 0C72 0 72 16 80 16" transform="translate(382 148) rotate(-90)" stroke="#79B8FF"/>
<path d="M48 46C48 59.2548 37.2548 70 24 70C10.7452 70 0 59.2548 0 46C0 30.5 23 12 24 0C25 12 48 31 48 46Z" transform="translate(117 69)" fill="#044289"/>
<path fill-rule="evenodd" clip-rule="evenodd" d="M25.4033 134C32.2014 123.722 37 98.7163 37 69.5C37 31.1162 28.7173 0 18.5 0C8.28271 0 0 31.1162 0 69.5C0 98.7163 4.79858 123.722 11.5967 134H25.4033Z" transform="translate(122 137)" fill="#05264C"/>
<mask id="mask1" mask-type="alpha" maskUnits="userSpaceOnUse" x="122" y="137" width="37" height="134">
<path fill-rule="evenodd" clip-rule="evenodd" d="M25.4033 134C32.2014 123.722 37 98.7163 37 69.5C37 31.1162 28.7173 0 18.5 0C8.28271 0 0 31.1162 0 69.5C0 98.7163 4.79858 123.722 11.5967 134H25.4033Z" transform="translate(122 137)" fill="#05264C"/>
</mask>
<g mask="url(#mask1)">
<rect width="55" height="38" transform="translate(112 130)" fill="#79B8FF"/>
</g>
<mask id="mask2" mask-type="alpha" maskUnits="userSpaceOnUse" x="117" y="69" width="48" height="70">
<path d="M48 46C48 59.2548 37.2548 70 24 70C10.7452 70 0 59.2548 0 46C0 30.5 23 12 24 0C25 12 48 31 48 46Z" transform="translate(117 69)" fill="#032F62"/>
</mask>
<g mask="url(#mask2)">
<ellipse cx="29.5" cy="34" rx="29.5" ry="34" transform="translate(100 93)" fill="#032F62"/>
</g>
<path d="M0 0C8 0 8 16 16 16C24 16 24 0 32 0C40 0 40 16 48 16" transform="translate(102 105)" stroke="#79B8FF" stroke-linecap="square"/>
</svg>
