<svg width="446" height="350" viewBox="0 0 446 350" fill="none" xmlns="http://www.w3.org/2000/svg">
<rect width="200" height="256" transform="translate(38 42)" fill="#0366D6"/>
<rect width="384" height="216" transform="translate(62 82)" fill="#2188FF"/>
<rect width="12" height="32" transform="translate(344 259)" fill="#005CC5"/>
<rect width="12" height="32" transform="translate(368 259)" fill="#005CC5"/>
<rect width="12" height="32" transform="translate(392 259)" fill="#005CC5"/>
<rect width="12" height="32" transform="translate(416 259)" fill="#005CC5"/>
<rect width="100" height="34" transform="translate(336 264)" fill="#0366D6"/>
<rect width="12" height="32" transform="translate(240.33 258.82) rotate(-20.7024)" fill="#044289"/>
<rect width="12" height="32" transform="translate(262.78 250.335) rotate(-20.7024)" fill="#044289"/>
<rect width="12" height="32" transform="translate(285.23 241.851) rotate(-20.7024)" fill="#044289"/>
<rect width="12" height="32" transform="translate(307.68 233.367) rotate(-20.7024)" fill="#044289"/>
<rect width="100" height="34" transform="translate(234.614 266.325) rotate(-20.7024)" fill="#005CC5"/>
<circle cx="16" cy="16" r="15.5" transform="translate(162)" stroke="#79B8FF"/>
<circle cx="10" cy="10" r="9.5" transform="translate(26 55)" stroke="#79B8FF"/>
<rect x="0.5" y="0.5" width="15" height="15" transform="translate(336.314 43) rotate(45)" stroke="#79B8FF"/>
<rect x="0.5" y="0.5" width="31" height="31" transform="translate(374 154) rotate(90)" stroke="#C8E1FF"/>
<mask id="mask0" mask-type="alpha" maskUnits="userSpaceOnUse" x="0" y="170" width="100" height="45">
<rect width="100" height="45" transform="translate(0 170)" fill="#005CC5"/>
</mask>
<g mask="url(#mask0)">
<line y1="-0.5" x2="147.078" y2="-0.5" transform="translate(-2 174.5) rotate(-45)" stroke="#79B8FF"/>
<line y1="-0.5" x2="147.078" y2="-0.5" transform="translate(-2 186) rotate(-45)" stroke="#79B8FF"/>
<line y1="-0.5" x2="147.078" y2="-0.5" transform="translate(-2 197.5) rotate(-45)" stroke="#79B8FF"/>
<line y1="-0.5" x2="147.078" y2="-0.5" transform="translate(-2 209) rotate(-45)" stroke="#79B8FF"/>
<line y1="-0.5" x2="147.078" y2="-0.5" transform="translate(-2 220.5) rotate(-45)" stroke="#79B8FF"/>
<line y1="-0.5" x2="147.078" y2="-0.5" transform="translate(-2 232) rotate(-45)" stroke="#79B8FF"/>
<line y1="-0.5" x2="147.078" y2="-0.5" transform="translate(-2 243.5) rotate(-45)" stroke="#79B8FF"/>
<line y1="-0.5" x2="147.078" y2="-0.5" transform="translate(-2 255) rotate(-45)" stroke="#79B8FF"/>
<line y1="-0.5" x2="147.078" y2="-0.5" transform="translate(-2 266.5) rotate(-45)" stroke="#79B8FF"/>
<line y1="-0.5" x2="147.078" y2="-0.5" transform="translate(-2 278) rotate(-45)" stroke="#79B8FF"/>
<line y1="-0.5" x2="147.078" y2="-0.5" transform="translate(-2 289.5) rotate(-45)" stroke="#79B8FF"/>
<line y1="-0.5" x2="147.078" y2="-0.5" transform="translate(-2 301) rotate(-45)" stroke="#79B8FF"/>
<line y1="-0.5" x2="147.078" y2="-0.5" transform="translate(-2 312.5) rotate(-45)" stroke="#79B8FF"/>
</g>
<mask id="mask1" mask-type="alpha" maskUnits="userSpaceOnUse" x="196" y="70" width="100" height="100">
<rect width="100" height="100" transform="translate(196 70)" fill="#005CC5"/>
</mask>
<g mask="url(#mask1)">
<line y1="-0.5" x2="147.078" y2="-0.5" transform="translate(194 83.5) rotate(-45)" stroke="#032F62"/>
<line y1="-0.5" x2="147.078" y2="-0.5" transform="translate(194 95) rotate(-45)" stroke="#032F62"/>
<line y1="-0.5" x2="147.078" y2="-0.5" transform="translate(194 106.5) rotate(-45)" stroke="#032F62"/>
<line y1="-0.5" x2="147.078" y2="-0.5" transform="translate(194 118) rotate(-45)" stroke="#032F62"/>
<line y1="-0.5" x2="147.078" y2="-0.5" transform="translate(194 129.5) rotate(-45)" stroke="#032F62"/>
<line y1="-0.5" x2="147.078" y2="-0.5" transform="translate(194 141) rotate(-45)" stroke="#032F62"/>
<line y1="-0.5" x2="147.078" y2="-0.5" transform="translate(194 152.5) rotate(-45)" stroke="#032F62"/>
<line y1="-0.5" x2="147.078" y2="-0.5" transform="translate(194 164) rotate(-45)" stroke="#032F62"/>
<line y1="-0.5" x2="147.078" y2="-0.5" transform="translate(194 175.5) rotate(-45)" stroke="#032F62"/>
<line y1="-0.5" x2="147.078" y2="-0.5" transform="translate(194 187) rotate(-45)" stroke="#032F62"/>
<line y1="-0.5" x2="147.078" y2="-0.5" transform="translate(194 198.5) rotate(-45)" stroke="#032F62"/>
<line y1="-0.5" x2="147.078" y2="-0.5" transform="translate(194 210) rotate(-45)" stroke="#032F62"/>
<line y1="-0.5" x2="147.078" y2="-0.5" transform="translate(194 221.5) rotate(-45)" stroke="#032F62"/>
<line y1="-0.5" x2="147.078" y2="-0.5" transform="translate(194 233) rotate(-45)" stroke="#032F62"/>
<line y1="-0.5" x2="147.078" y2="-0.5" transform="translate(194 244.5) rotate(-45)" stroke="#032F62"/>
<line y1="-0.5" x2="147.078" y2="-0.5" transform="translate(194 256) rotate(-45)" stroke="#032F62"/>
<line y1="-0.5" x2="147.078" y2="-0.5" transform="translate(194 267.5) rotate(-45)" stroke="#032F62"/>
</g>
<path d="M3.00962 23.5L16 1L28.9904 23.5H3.00962Z" transform="translate(190.144 349.856) rotate(-120)" stroke="#79B8FF"/>
<path d="M0 0C4 0 4 8 8 8C12 8 12 0 16 0C20 0 20 8 24 8C28 8 28 0 32 0C36 0 36 8 40 8" transform="translate(167 220)" stroke="#C8E1FF"/>
<path d="M0 0C8 0 8 16 16 16C24 16 24 0 32 0C40 0 40 16 48 16C56 16 56 0 64 0C72 0 72 16 80 16" transform="translate(390 145) rotate(-90)" stroke="#C8E1FF"/>
<path d="M48 46C48 59.2548 37.2548 70 24 70C10.7452 70 0 59.2548 0 46C0 30.5 23 12 24 0C25 12 48 31 48 46Z" transform="translate(117 96)" fill="#044289"/>
<path fill-rule="evenodd" clip-rule="evenodd" d="M25.4033 134C32.2014 123.722 37 98.7163 37 69.5C37 31.1162 28.7173 0 18.5 0C8.28271 0 0 31.1162 0 69.5C0 98.7163 4.79858 123.722 11.5967 134H25.4033Z" transform="translate(122 164)" fill="#05264C"/>
<mask id="mask2" mask-type="alpha" maskUnits="userSpaceOnUse" x="122" y="164" width="37" height="134">
<path fill-rule="evenodd" clip-rule="evenodd" d="M25.4033 134C32.2014 123.722 37 98.7163 37 69.5C37 31.1162 28.7173 0 18.5 0C8.28271 0 0 31.1162 0 69.5C0 98.7163 4.79858 123.722 11.5967 134H25.4033Z" transform="translate(122 164)" fill="#05264C"/>
</mask>
<g mask="url(#mask2)">
<rect width="55" height="38" transform="translate(112 157)" fill="#79B8FF"/>
</g>
<mask id="mask3" mask-type="alpha" maskUnits="userSpaceOnUse" x="117" y="96" width="48" height="70">
<path d="M48 46C48 59.2548 37.2548 70 24 70C10.7452 70 0 59.2548 0 46C0 30.5 23 12 24 0C25 12 48 31 48 46Z" transform="translate(117 96)" fill="#032F62"/>
</mask>
<g mask="url(#mask3)">
<ellipse cx="29.5" cy="34" rx="29.5" ry="34" transform="translate(100 120)" fill="#032F62"/>
</g>
<path d="M0 0C8 0 8 16 16 16C24 16 24 0 32 0C40 0 40 16 48 16" transform="translate(102 132)" stroke="#79B8FF" stroke-linecap="square"/>
</svg>
