<svg width="326" height="160" viewBox="0 0 326 160" fill="none" xmlns="http://www.w3.org/2000/svg">
<g id="primer">
<g id="package" style="mix-blend-mode:lighten">
<path id="Vector" fill-rule="evenodd" clip-rule="evenodd" d="M0 33.7867V126.151C0 131.716 3.70943 136.538 9.27357 138.145L89.6445 159.536C91.6229 160.155 93.8485 160.155 95.8269 159.536L176.198 138.145C181.762 136.538 185.471 131.716 185.471 126.151V33.7867C185.471 28.2226 181.762 23.4003 176.198 21.7929L95.8269 0.278234C93.7828 -0.0927457 91.6886 -0.0927457 89.6445 0.278234L9.27357 21.7929C3.70943 23.4003 0 28.2226 0 33.7867ZM86.5533 146.182L12.3648 126.522V42.813L86.5533 62.7203V146.182ZM12.3648 30.4482L43.2767 22.1639L123.648 43.5549L92.7357 51.8393L12.3648 30.4482ZM173.107 126.522L98.9181 146.182V62.7203L123.648 55.9196V86.0897L148.377 79.5363V49.3663L173.107 42.813V126.522ZM148.377 37.0016L68.0062 15.6105L92.7357 9.05721L173.107 30.4482L148.377 37.0016V37.0016Z" transform="translate(140)" fill="#F97583"/>
</g>
<g id="package_2" style="mix-blend-mode:lighten">
<path id="Vector_2" fill-rule="evenodd" clip-rule="evenodd" d="M0 33.7867V126.151C0 131.716 3.70943 136.538 9.27357 138.145L89.6445 159.536C91.6229 160.155 93.8485 160.155 95.8269 159.536L176.198 138.145C181.762 136.538 185.471 131.716 185.471 126.151V33.7867C185.471 28.2226 181.762 23.4003 176.198 21.7929L95.8269 0.278234C93.7828 -0.0927457 91.6886 -0.0927457 89.6445 0.278234L9.27357 21.7929C3.70943 23.4003 0 28.2226 0 33.7867ZM86.5533 146.182L12.3648 126.522V42.813L86.5533 62.7203V146.182ZM12.3648 30.4482L43.2767 22.1639L123.648 43.5549L92.7357 51.8393L12.3648 30.4482ZM173.107 126.522L98.9181 146.182V62.7203L123.648 55.9196V86.0897L148.377 79.5363V49.3663L173.107 42.813V126.522ZM148.377 37.0016L68.0062 15.6105L92.7357 9.05721L173.107 30.4482L148.377 37.0016V37.0016Z" fill="#2188FF"/>
</g>
<g id="package_3">
<path id="Vector_3" fill-rule="evenodd" clip-rule="evenodd" d="M0 33.7867V126.151C0 131.716 3.70943 136.538 9.27357 138.145L89.6445 159.536C91.6229 160.155 93.8485 160.155 95.8269 159.536L176.198 138.145C181.762 136.538 185.471 131.716 185.471 126.151V33.7867C185.471 28.2226 181.762 23.4003 176.198 21.7929L95.8269 0.278234C93.7828 -0.0927457 91.6886 -0.0927457 89.6445 0.278234L9.27357 21.7929C3.70943 23.4003 0 28.2226 0 33.7867ZM86.5533 146.182L12.3648 126.522V42.813L86.5533 62.7203V146.182ZM12.3648 30.4482L43.2767 22.1639L123.648 43.5549L92.7357 51.8393L12.3648 30.4482ZM173.107 126.522L98.9181 146.182V62.7203L123.648 55.9196V86.0897L148.377 79.5363V49.3663L173.107 42.813V126.522ZM148.377 37.0016L68.0062 15.6105L92.7357 9.05721L173.107 30.4482L148.377 37.0016V37.0016Z" transform="translate(70)" fill="white"/>
</g>
</g>
</svg>
