<svg width="36" height="32" viewBox="0 0 36 32" fill="none" xmlns="http://www.w3.org/2000/svg">
<path d="M35.5434 16.0037C35.5434 13.6233 32.5947 11.3674 28.0739 9.96841C29.1172 5.31014 28.6535 1.60403 26.6104 0.417487C26.1395 0.139162 25.5889 0.00732422 24.9876 0.00732422V1.64065C25.3208 1.64065 25.5889 1.70657 25.8135 1.83108C26.7988 2.40238 27.2263 4.57771 26.893 7.3756C26.8133 8.06409 26.6829 8.7892 26.5235 9.52895C25.1035 9.17739 23.5531 8.90639 21.923 8.7306C20.9449 7.3756 19.9307 6.14511 18.9091 5.06844C21.271 2.84916 23.4879 1.63333 24.9948 1.63333V0C23.0025 0 20.3943 1.43557 17.7572 3.92584C15.1201 1.45022 12.5119 0.0292974 10.5196 0.0292974V1.66262C12.0193 1.66262 14.2434 2.87114 16.6053 5.07576C15.591 6.15244 14.5767 7.3756 13.6131 8.7306C11.9758 8.90639 10.4254 9.17739 9.00538 9.53628C8.83875 8.80385 8.71559 8.09339 8.62865 7.41222C8.28814 4.61433 8.70834 2.439 9.6864 1.86038C9.90375 1.72854 10.1863 1.66995 10.5196 1.66995V0.0366217C9.91099 0.0366217 9.36038 0.168459 8.88222 0.446784C6.84641 1.63333 6.38998 5.33211 7.44049 9.97574C2.93418 11.382 -2.21096e-07 13.6306 -2.21096e-07 16.0037C-2.21096e-07 18.3841 2.94866 20.64 7.46947 22.0389C6.42621 26.6972 6.88988 30.4033 8.93293 31.5898C9.40385 31.8682 9.95446 32 10.563 32C12.5554 32 15.1635 30.5644 17.8007 28.0742C20.4378 30.5498 23.046 31.9707 25.0383 31.9707C25.6469 31.9707 26.1975 31.8389 26.6756 31.5605C28.7115 30.374 29.1679 26.6752 28.1174 22.0316C32.6092 20.6326 35.5434 18.3767 35.5434 16.0037ZM26.1105 11.1183C25.8425 12.0632 25.5092 13.0373 25.1325 14.0114C24.8354 13.4255 24.5239 12.8396 24.1834 12.2536C23.8501 11.6677 23.4951 11.0964 23.1401 10.5397C24.1689 10.6935 25.1615 10.884 26.1105 11.1183ZM22.7924 18.9187C22.2273 19.9075 21.6477 20.845 21.0464 21.7166C19.9669 21.8119 18.8729 21.8631 17.7717 21.8631C16.6777 21.8631 15.5837 21.8119 14.5115 21.724C13.9102 20.8524 13.3233 19.9222 12.7582 18.9407C12.2076 17.9812 11.7077 17.0071 11.2513 16.0256C11.7005 15.0442 12.2076 14.0627 12.751 13.1032C13.3161 12.1144 13.8957 11.1769 14.497 10.3053C15.5765 10.2101 16.6705 10.1588 17.7717 10.1588C18.8657 10.1588 19.9596 10.2101 21.0319 10.298C21.6332 11.1696 22.22 12.0998 22.7851 13.0813C23.3358 14.0407 23.8356 15.0149 24.2921 15.9963C23.8356 16.9778 23.3357 17.9593 22.7924 18.9187ZM25.1325 17.9666C25.5237 18.948 25.857 19.9295 26.1323 20.8817C25.1832 21.116 24.1834 21.3138 23.1474 21.4676C23.5024 20.9036 23.8574 20.325 24.1906 19.7317C24.5239 19.1458 24.8354 18.5525 25.1325 17.9666ZM17.7862 25.7816C17.1124 25.0785 16.4386 24.2948 15.7721 23.4379C16.4241 23.4672 17.0907 23.4891 17.7644 23.4891C18.4455 23.4891 19.1192 23.4745 19.7785 23.4379C19.1265 24.2948 18.4527 25.0785 17.7862 25.7816ZM12.396 21.4676C11.3672 21.3138 10.3747 21.1234 9.42558 20.889C9.69365 19.9442 10.0269 18.97 10.4036 17.9959C10.7007 18.5818 11.0122 19.1678 11.3527 19.7537C11.6932 20.3397 12.041 20.911 12.396 21.4676ZM17.75 6.22568C18.4237 6.92882 19.0975 7.71252 19.764 8.56947C19.112 8.54017 18.4455 8.5182 17.7717 8.5182C17.0907 8.5182 16.4169 8.53285 15.7576 8.56947C16.4096 7.71252 17.0834 6.92882 17.75 6.22568ZM12.3887 10.5397C12.0337 11.1037 11.6787 11.6823 11.3455 12.2756C11.0122 12.8615 10.7007 13.4475 10.4036 14.0334C10.0124 13.052 9.67916 12.0705 9.40385 11.1183C10.3529 10.8913 11.3527 10.6935 12.3887 10.5397ZM5.83213 19.7098C3.26744 18.6038 1.60836 17.1536 1.60836 16.0037C1.60836 14.8537 3.26744 13.3962 5.83213 12.2976C6.45519 12.0266 7.1362 11.7848 7.83896 11.5578C8.25192 12.9934 8.79528 14.4875 9.46905 16.0183C8.80253 17.5418 8.26641 19.0286 7.86069 20.4569C7.14345 20.2298 6.46243 19.9808 5.83213 19.7098ZM9.72987 30.1762C8.74457 29.6049 8.31712 27.4296 8.65038 24.6317C8.73008 23.9432 8.86049 23.2181 9.01987 22.4784C10.4399 22.8299 11.9903 23.1009 13.6204 23.2767C14.5984 24.6317 15.6127 25.8622 16.6342 26.9389C14.2724 29.1582 12.0555 30.374 10.5485 30.374C10.2225 30.3667 9.94722 30.3008 9.72987 30.1762ZM26.9147 24.5951C27.2552 27.393 26.835 29.5683 25.857 30.1469C25.6396 30.2788 25.3571 30.3374 25.0238 30.3374C23.5241 30.3374 21.2999 29.1289 18.9381 26.9242C19.9524 25.8476 20.9667 24.6244 21.9302 23.2694C23.5676 23.0936 25.118 22.8226 26.538 22.4637C26.7046 23.2035 26.835 23.9139 26.9147 24.5951ZM29.704 19.7098C29.0809 19.9808 28.3999 20.2225 27.6972 20.4495C27.2842 19.014 26.7408 17.5198 26.0671 15.989C26.7336 14.4656 27.2697 12.9787 27.6754 11.5505C28.3927 11.7775 29.0737 12.0266 29.7112 12.2976C32.2759 13.4035 33.935 14.8537 33.935 16.0037C33.9278 17.1536 32.2687 18.6111 29.704 19.7098Z" fill="#C8E1FF"/>
<path d="M3.31091 6.69444C5.13947 6.69444 6.62182 5.19584 6.62182 3.34722C6.62182 1.4986 5.13947 0 3.31091 0C1.48234 0 0 1.4986 0 3.34722C0 5.19584 1.48234 6.69444 3.31091 6.69444Z" transform="translate(14.4531 12.6565)" fill="#C8E1FF"/>
</svg>
