<svg width="188" height="195" viewBox="0 0 188 195" fill="none" xmlns="http://www.w3.org/2000/svg">
<path d="M10 0L18.6603 5L18.6603 15L10 20L1.33975 15L1.33975 5L10 0Z" transform="translate(186 18) scale(1.5) rotate(90)" stroke="#79B8FF" stroke-linecap="round" stroke-linejoin="round"/>
<path d="M16 0L29.8564 24L2.14359 24L16 0Z" transform="translate(104.569 129) scale(1.5) rotate(60)" stroke="#2188FF" stroke-linecap="round" stroke-linejoin="round"/>
<circle cx="6" cy="6" r="5.5" transform="translate(168 9) scale(1.5)" stroke="#79B8FF"/>
<path d="M0 0C8 0 8 16 16 16C24 16 24 0 32 0C40 0 40 16 48 16C56 16 56 0 64 0C72 0 72 16 80 16" transform="translate(136.5 120) scale(1.5) rotate(-135)" stroke="#2188FF" stroke-linecap="round" stroke-linejoin="round"/>
<path d="M0 0C8 0 8 16 16 16C24 16 24 0 32 0C40 0 40 16 48 16C56 16 56 0 64 0C72 0 72 16 80 16" transform="translate(86.3525 103.323) scale(1.5) rotate(-135)" stroke="#79B8FF" stroke-linecap="round" stroke-linejoin="round"/>
</svg>
