<svg width="143" height="107" viewBox="0 0 143 107" fill="none" xmlns="http://www.w3.org/2000/svg">
<circle cx="10" cy="10" r="9.5" transform="translate(114)" stroke="#79B8FF"/>
<circle cx="2" cy="2" r="2" transform="translate(49 31)" fill="#005CC5"/>
<circle cx="2" cy="2" r="2" transform="translate(69 31)" fill="#005CC5"/>
<circle cx="2" cy="2" r="2" transform="translate(89 31)" fill="#005CC5"/>
<circle cx="2" cy="2" r="2" transform="translate(109 31)" fill="#005CC5"/>
<circle cx="2" cy="2" r="2" transform="translate(129 31)" fill="#005CC5"/>
<circle cx="2" cy="2" r="2" transform="translate(59 43)" fill="#005CC5"/>
<circle cx="2" cy="2" r="2" transform="translate(79 43)" fill="#005CC5"/>
<circle cx="2" cy="2" r="2" transform="translate(99 43)" fill="#005CC5"/>
<circle cx="2" cy="2" r="2" transform="translate(119 43)" fill="#005CC5"/>
<circle cx="2" cy="2" r="2" transform="translate(139 43)" fill="#005CC5"/>
<circle cx="2" cy="2" r="2" transform="translate(49 55)" fill="#005CC5"/>
<circle cx="2" cy="2" r="2" transform="translate(69 55)" fill="#005CC5"/>
<circle cx="2" cy="2" r="2" transform="translate(89 55)" fill="#005CC5"/>
<circle cx="2" cy="2" r="2" transform="translate(109 55)" fill="#005CC5"/>
<circle cx="2" cy="2" r="2" transform="translate(129 55)" fill="#005CC5"/>
<circle cx="2" cy="2" r="2" transform="translate(59 67)" fill="#005CC5"/>
<circle cx="2" cy="2" r="2" transform="translate(79 67)" fill="#005CC5"/>
<circle cx="2" cy="2" r="2" transform="translate(99 67)" fill="#005CC5"/>
<circle cx="2" cy="2" r="2" transform="translate(119 67)" fill="#005CC5"/>
<circle cx="2" cy="2" r="2" transform="translate(139 67)" fill="#005CC5"/>
<circle cx="2" cy="2" r="2" transform="translate(49 79)" fill="#005CC5"/>
<circle cx="2" cy="2" r="2" transform="translate(69 79)" fill="#005CC5"/>
<circle cx="2" cy="2" r="2" transform="translate(89 79)" fill="#005CC5"/>
<circle cx="2" cy="2" r="2" transform="translate(109 79)" fill="#005CC5"/>
<circle cx="2" cy="2" r="2" transform="translate(129 79)" fill="#005CC5"/>
<circle cx="2" cy="2" r="2" transform="translate(59 91)" fill="#005CC5"/>
<circle cx="2" cy="2" r="2" transform="translate(79 91)" fill="#005CC5"/>
<circle cx="2" cy="2" r="2" transform="translate(99 91)" fill="#005CC5"/>
<circle cx="2" cy="2" r="2" transform="translate(119 91)" fill="#005CC5"/>
<circle cx="2" cy="2" r="2" transform="translate(139 91)" fill="#005CC5"/>
<circle cx="2" cy="2" r="2" transform="translate(49 103)" fill="#005CC5"/>
<circle cx="2" cy="2" r="2" transform="translate(69 103)" fill="#005CC5"/>
<circle cx="2" cy="2" r="2" transform="translate(89 103)" fill="#005CC5"/>
<circle cx="2" cy="2" r="2" transform="translate(109 103)" fill="#005CC5"/>
<circle cx="2" cy="2" r="2" transform="translate(129 103)" fill="#005CC5"/>
<path d="M0 0C8 0 8 16 16 16C24 16 24 0 32 0C40 0 40 16 48 16C56 16 56 0 64 0C72 0 72 16 80 16" transform="translate(111 33) rotate(-180)" stroke="#79B8FF"/>
<path d="M0 0C8 0 8 16 16 16C24 16 24 0 32 0C40 0 40 16 48 16C56 16 56 0 64 0C72 0 72 16 80 16" transform="translate(80 51) rotate(-180)" stroke="#79B8FF"/>
</svg>
