<svg width="222" height="183" viewBox="0 0 222 183" fill="none" xmlns="http://www.w3.org/2000/svg">
<circle cx="10" cy="10" r="9.5" transform="translate(172.5 22.5) scale(1.5)" stroke="#79B8FF"/>
<circle cx="6" cy="6" r="5.5" transform="translate(204) scale(1.5)" stroke="#79B8FF"/>
<circle cx="2" cy="2" r="2" transform="translate(75 69) scale(1.5)" fill="#005CC5"/>
<circle cx="2" cy="2" r="2" transform="translate(105 69) scale(1.5)" fill="#005CC5"/>
<circle cx="2" cy="2" r="2" transform="translate(135 69) scale(1.5)" fill="#005CC5"/>
<circle cx="2" cy="2" r="2" transform="translate(165 69) scale(1.5)" fill="#005CC5"/>
<circle cx="2" cy="2" r="2" transform="translate(195 69) scale(1.5)" fill="#005CC5"/>
<circle cx="2" cy="2" r="2" transform="translate(90 87) scale(1.5)" fill="#005CC5"/>
<circle cx="2" cy="2" r="2" transform="translate(120 87) scale(1.5)" fill="#005CC5"/>
<circle cx="2" cy="2" r="2" transform="translate(150 87) scale(1.5)" fill="#005CC5"/>
<circle cx="2" cy="2" r="2" transform="translate(180 87) scale(1.5)" fill="#005CC5"/>
<circle cx="2" cy="2" r="2" transform="translate(210 87) scale(1.5)" fill="#005CC5"/>
<circle cx="2" cy="2" r="2" transform="translate(75 105) scale(1.5)" fill="#005CC5"/>
<circle cx="2" cy="2" r="2" transform="translate(105 105) scale(1.5)" fill="#005CC5"/>
<circle cx="2" cy="2" r="2" transform="translate(135 105) scale(1.5)" fill="#005CC5"/>
<circle cx="2" cy="2" r="2" transform="translate(165 105) scale(1.5)" fill="#005CC5"/>
<circle cx="2" cy="2" r="2" transform="translate(195 105) scale(1.5)" fill="#005CC5"/>
<circle cx="2" cy="2" r="2" transform="translate(90 123) scale(1.5)" fill="#005CC5"/>
<circle cx="2" cy="2" r="2" transform="translate(120 123) scale(1.5)" fill="#005CC5"/>
<circle cx="2" cy="2" r="2" transform="translate(150 123) scale(1.5)" fill="#005CC5"/>
<circle cx="2" cy="2" r="2" transform="translate(180 123) scale(1.5)" fill="#005CC5"/>
<circle cx="2" cy="2" r="2" transform="translate(210 123) scale(1.5)" fill="#005CC5"/>
<circle cx="2" cy="2" r="2" transform="translate(75 141) scale(1.5)" fill="#005CC5"/>
<circle cx="2" cy="2" r="2" transform="translate(105 141) scale(1.5)" fill="#005CC5"/>
<circle cx="2" cy="2" r="2" transform="translate(135 141) scale(1.5)" fill="#005CC5"/>
<circle cx="2" cy="2" r="2" transform="translate(165 141) scale(1.5)" fill="#005CC5"/>
<circle cx="2" cy="2" r="2" transform="translate(195 141) scale(1.5)" fill="#005CC5"/>
<circle cx="2" cy="2" r="2" transform="translate(90 159) scale(1.5)" fill="#005CC5"/>
<circle cx="2" cy="2" r="2" transform="translate(120 159) scale(1.5)" fill="#005CC5"/>
<circle cx="2" cy="2" r="2" transform="translate(150 159) scale(1.5)" fill="#005CC5"/>
<circle cx="2" cy="2" r="2" transform="translate(180 159) scale(1.5)" fill="#005CC5"/>
<circle cx="2" cy="2" r="2" transform="translate(210 159) scale(1.5)" fill="#005CC5"/>
<circle cx="2" cy="2" r="2" transform="translate(75 177) scale(1.5)" fill="#005CC5"/>
<circle cx="2" cy="2" r="2" transform="translate(105 177) scale(1.5)" fill="#005CC5"/>
<circle cx="2" cy="2" r="2" transform="translate(135 177) scale(1.5)" fill="#005CC5"/>
<circle cx="2" cy="2" r="2" transform="translate(165 177) scale(1.5)" fill="#005CC5"/>
<circle cx="2" cy="2" r="2" transform="translate(195 177) scale(1.5)" fill="#005CC5"/>
<path d="M0 0C8 0 8 16 16 16C24 16 24 0 32 0C40 0 40 16 48 16C56 16 56 0 64 0C72 0 72 16 80 16" transform="translate(168 72) scale(1.5) rotate(-180)" stroke="#79B8FF" stroke-linecap="round" stroke-linejoin="round"/>
<path d="M0 0C8 0 8 16 16 16C24 16 24 0 32 0C40 0 40 16 48 16C56 16 56 0 64 0C72 0 72 16 80 16" transform="translate(121.5 99) scale(1.5) rotate(-180)" stroke="#79B8FF" stroke-linecap="round" stroke-linejoin="round"/>
</svg>
