<svg width="206" height="147" viewBox="0 0 206 147" fill="none" xmlns="http://www.w3.org/2000/svg">
<circle cx="2" cy="2" r="2" transform="translate(0 25.5) scale(1.5)" fill="#005CC5"/>
<circle cx="2" cy="2" r="2" transform="translate(30 25.5) scale(1.5)" fill="#005CC5"/>
<circle cx="2" cy="2" r="2" transform="translate(60 25.5) scale(1.5)" fill="#005CC5"/>
<circle cx="2" cy="2" r="2" transform="translate(90 25.5) scale(1.5)" fill="#005CC5"/>
<circle cx="2" cy="2" r="2" transform="translate(120 25.5) scale(1.5)" fill="#005CC5"/>
<circle cx="2" cy="2" r="2" transform="translate(15 43.5) scale(1.5)" fill="#005CC5"/>
<circle cx="2" cy="2" r="2" transform="translate(45 43.5) scale(1.5)" fill="#005CC5"/>
<circle cx="2" cy="2" r="2" transform="translate(75 43.5) scale(1.5)" fill="#005CC5"/>
<circle cx="2" cy="2" r="2" transform="translate(105 43.5) scale(1.5)" fill="#005CC5"/>
<circle cx="2" cy="2" r="2" transform="translate(135 43.5) scale(1.5)" fill="#005CC5"/>
<circle cx="2" cy="2" r="2" transform="translate(0 61.5) scale(1.5)" fill="#005CC5"/>
<circle cx="2" cy="2" r="2" transform="translate(30 61.5) scale(1.5)" fill="#005CC5"/>
<circle cx="2" cy="2" r="2" transform="translate(60 61.5) scale(1.5)" fill="#005CC5"/>
<circle cx="2" cy="2" r="2" transform="translate(90 61.5) scale(1.5)" fill="#005CC5"/>
<circle cx="2" cy="2" r="2" transform="translate(120 61.5) scale(1.5)" fill="#005CC5"/>
<circle cx="2" cy="2" r="2" transform="translate(15 79.5) scale(1.5)" fill="#005CC5"/>
<circle cx="2" cy="2" r="2" transform="translate(45 79.5) scale(1.5)" fill="#005CC5"/>
<circle cx="2" cy="2" r="2" transform="translate(75 79.5) scale(1.5)" fill="#005CC5"/>
<circle cx="2" cy="2" r="2" transform="translate(105 79.5) scale(1.5)" fill="#005CC5"/>
<circle cx="2" cy="2" r="2" transform="translate(135 79.5) scale(1.5)" fill="#005CC5"/>
<circle cx="2" cy="2" r="2" transform="translate(0 97.5) scale(1.5)" fill="#005CC5"/>
<circle cx="2" cy="2" r="2" transform="translate(30 97.5) scale(1.5)" fill="#005CC5"/>
<circle cx="2" cy="2" r="2" transform="translate(60 97.5) scale(1.5)" fill="#005CC5"/>
<circle cx="2" cy="2" r="2" transform="translate(90 97.5) scale(1.5)" fill="#005CC5"/>
<circle cx="2" cy="2" r="2" transform="translate(120 97.5) scale(1.5)" fill="#005CC5"/>
<path d="M0 0C4 0 4 8 8 8C12 8 12 0 16 0C20 0 20 8 24 8C28 8 28 0 32 0C36 0 36 8 40 8" transform="translate(144 49.5) scale(1.5) rotate(-180)" stroke="#79B8FF" stroke-linecap="round" stroke-linejoin="round"/>
<path d="M0 0C8 0 8 16 16 16C24 16 24 0 32 0C40 0 40 16 48 16C56 16 56 0 64 0C72 0 72 16 80 16" transform="translate(204 85.5) scale(1.5) rotate(-180)" stroke="#79B8FF" stroke-linecap="round" stroke-linejoin="round"/>
<rect width="32" height="24" transform="translate(36 1.5) scale(1.5)" stroke="#79B8FF" stroke-linejoin="round"/>
<rect width="32" height="16" transform="translate(36 91.5) scale(1.5)" stroke="#79B8FF" stroke-linejoin="round"/>
<rect width="32" height="16" transform="translate(36 121.5) scale(1.5)" stroke="#79B8FF" stroke-linejoin="round"/>
<rect width="32" height="16" transform="translate(36 37.5) scale(1.5)" stroke="#79B8FF" stroke-linejoin="round"/>
<rect width="32" height="16" transform="translate(36 61.5) scale(1.5)" stroke="#79B8FF" stroke-linejoin="round"/>
</svg>
