<svg width="195" height="311" viewBox="0 0 195 311" fill="none" xmlns="http://www.w3.org/2000/svg">
<circle cx="128.722" cy="308.425" r="2.54897" transform="rotate(-180 128.722 308.425)" fill="#005CC5"/>
<circle cx="103.232" cy="308.425" r="2.54897" transform="rotate(-180 103.232 308.425)" fill="#005CC5"/>
<circle cx="77.7372" cy="308.425" r="2.54897" transform="rotate(-180 77.7372 308.425)" fill="#005CC5"/>
<circle cx="52.2518" cy="308.425" r="2.54897" transform="rotate(-180 52.2518 308.425)" fill="#005CC5"/>
<circle cx="26.7616" cy="308.425" r="2.54897" transform="rotate(-180 26.7616 308.425)" fill="#005CC5"/>
<circle cx="115.977" cy="293.132" r="2.54897" transform="rotate(-180 115.977 293.132)" fill="#005CC5"/>
<circle cx="90.4803" cy="293.132" r="2.54897" transform="rotate(-180 90.4803 293.132)" fill="#005CC5"/>
<circle cx="64.994" cy="293.132" r="2.54897" transform="rotate(-180 64.994 293.132)" fill="#005CC5"/>
<circle cx="39.5038" cy="293.132" r="2.54897" transform="rotate(-180 39.5038 293.132)" fill="#005CC5"/>
<circle cx="14.0194" cy="293.132" r="2.54897" transform="rotate(-180 14.0194 293.132)" fill="#005CC5"/>
<circle cx="128.722" cy="277.838" r="2.54897" transform="rotate(-180 128.722 277.838)" fill="#005CC5"/>
<circle cx="103.232" cy="277.838" r="2.54897" transform="rotate(-180 103.232 277.838)" fill="#005CC5"/>
<circle cx="77.7372" cy="277.838" r="2.54897" transform="rotate(-180 77.7372 277.838)" fill="#005CC5"/>
<circle cx="52.2518" cy="277.838" r="2.54897" transform="rotate(-180 52.2518 277.838)" fill="#005CC5"/>
<circle cx="26.7616" cy="277.838" r="2.54897" transform="rotate(-180 26.7616 277.838)" fill="#005CC5"/>
<circle cx="115.977" cy="262.544" r="2.54897" transform="rotate(-180 115.977 262.544)" fill="#005CC5"/>
<circle cx="90.4803" cy="262.544" r="2.54897" transform="rotate(-180 90.4803 262.544)" fill="#005CC5"/>
<circle cx="64.994" cy="262.544" r="2.54897" transform="rotate(-180 64.994 262.544)" fill="#005CC5"/>
<circle cx="39.5038" cy="262.544" r="2.54897" transform="rotate(-180 39.5038 262.544)" fill="#005CC5"/>
<circle cx="14.0194" cy="262.544" r="2.54897" transform="rotate(-180 14.0194 262.544)" fill="#005CC5"/>
<circle cx="128.722" cy="247.25" r="2.54897" transform="rotate(-180 128.722 247.25)" fill="#005CC5"/>
<circle cx="103.232" cy="247.25" r="2.54897" transform="rotate(-180 103.232 247.25)" fill="#005CC5"/>
<circle cx="77.7372" cy="247.25" r="2.54897" transform="rotate(-180 77.7372 247.25)" fill="#005CC5"/>
<circle cx="52.2518" cy="247.25" r="2.54897" transform="rotate(-180 52.2518 247.25)" fill="#005CC5"/>
<circle cx="26.7616" cy="247.25" r="2.54897" transform="rotate(-180 26.7616 247.25)" fill="#005CC5"/>
<circle cx="115.977" cy="231.956" r="2.54897" transform="rotate(-180 115.977 231.956)" fill="#005CC5"/>
<circle cx="90.4803" cy="231.956" r="2.54897" transform="rotate(-180 90.4803 231.956)" fill="#005CC5"/>
<circle cx="64.994" cy="231.956" r="2.54897" transform="rotate(-180 64.994 231.956)" fill="#005CC5"/>
<circle cx="39.5038" cy="231.956" r="2.54897" transform="rotate(-180 39.5038 231.956)" fill="#005CC5"/>
<circle cx="14.0194" cy="231.956" r="2.54897" transform="rotate(-180 14.0194 231.956)" fill="#005CC5"/>
<circle cx="128.722" cy="216.662" r="2.54897" transform="rotate(-180 128.722 216.662)" fill="#005CC5"/>
<circle cx="103.232" cy="216.662" r="2.54897" transform="rotate(-180 103.232 216.662)" fill="#005CC5"/>
<circle cx="77.7372" cy="216.662" r="2.54897" transform="rotate(-180 77.7372 216.662)" fill="#005CC5"/>
<circle cx="52.2518" cy="216.662" r="2.54897" transform="rotate(-180 52.2518 216.662)" fill="#005CC5"/>
<circle cx="26.7616" cy="216.662" r="2.54897" transform="rotate(-180 26.7616 216.662)" fill="#005CC5"/>
<circle cx="2.54897" cy="216.663" r="2.54897" fill="#005CC5"/>
<circle cx="2.54897" cy="247.25" r="2.54897" fill="#005CC5"/>
<circle cx="2.54897" cy="277.838" r="2.54897" fill="#005CC5"/>
<circle cx="2.54897" cy="308.425" r="2.54897" fill="#005CC5"/>
<circle cx="115.977" cy="201.369" r="2.54897" transform="rotate(-180 115.977 201.369)" fill="#005CC5"/>
<circle cx="90.4803" cy="201.369" r="2.54897" transform="rotate(-180 90.4803 201.369)" fill="#005CC5"/>
<circle cx="64.994" cy="201.369" r="2.54897" transform="rotate(-180 64.994 201.369)" fill="#005CC5"/>
<circle cx="39.5038" cy="201.369" r="2.54897" transform="rotate(-180 39.5038 201.369)" fill="#005CC5"/>
<circle cx="14.0194" cy="201.369" r="2.54897" transform="rotate(-180 14.0194 201.369)" fill="#005CC5"/>
<circle cx="128.722" cy="186.075" r="2.54897" transform="rotate(-180 128.722 186.075)" fill="#005CC5"/>
<circle cx="103.232" cy="186.075" r="2.54897" transform="rotate(-180 103.232 186.075)" fill="#005CC5"/>
<circle cx="77.7372" cy="186.075" r="2.54897" transform="rotate(-180 77.7372 186.075)" fill="#005CC5"/>
<circle cx="52.2518" cy="186.075" r="2.54897" transform="rotate(-180 52.2518 186.075)" fill="#005CC5"/>
<circle cx="26.7616" cy="186.075" r="2.54897" transform="rotate(-180 26.7616 186.075)" fill="#005CC5"/>
<circle cx="115.977" cy="170.781" r="2.54897" transform="rotate(-180 115.977 170.781)" fill="#005CC5"/>
<circle cx="90.4803" cy="170.781" r="2.54897" transform="rotate(-180 90.4803 170.781)" fill="#005CC5"/>
<circle cx="64.994" cy="170.781" r="2.54897" transform="rotate(-180 64.994 170.781)" fill="#005CC5"/>
<circle cx="39.5038" cy="170.781" r="2.54897" transform="rotate(-180 39.5038 170.781)" fill="#005CC5"/>
<circle cx="14.0194" cy="170.781" r="2.54897" transform="rotate(-180 14.0194 170.781)" fill="#005CC5"/>
<circle cx="128.722" cy="155.487" r="2.54897" transform="rotate(-180 128.722 155.487)" fill="#005CC5"/>
<circle cx="103.232" cy="155.487" r="2.54897" transform="rotate(-180 103.232 155.487)" fill="#005CC5"/>
<circle cx="77.7372" cy="155.487" r="2.54897" transform="rotate(-180 77.7372 155.487)" fill="#005CC5"/>
<circle cx="52.2518" cy="155.487" r="2.54897" transform="rotate(-180 52.2518 155.487)" fill="#005CC5"/>
<circle cx="26.7616" cy="155.487" r="2.54897" transform="rotate(-180 26.7616 155.487)" fill="#005CC5"/>
<circle cx="115.977" cy="140.193" r="2.54897" transform="rotate(-180 115.977 140.193)" fill="#005CC5"/>
<circle cx="90.4803" cy="140.193" r="2.54897" transform="rotate(-180 90.4803 140.193)" fill="#005CC5"/>
<circle cx="64.994" cy="140.193" r="2.54897" transform="rotate(-180 64.994 140.193)" fill="#005CC5"/>
<circle cx="39.5038" cy="140.193" r="2.54897" transform="rotate(-180 39.5038 140.193)" fill="#005CC5"/>
<circle cx="14.0194" cy="140.193" r="2.54897" transform="rotate(-180 14.0194 140.193)" fill="#005CC5"/>
<circle cx="128.722" cy="124.9" r="2.54897" transform="rotate(-180 128.722 124.9)" fill="#005CC5"/>
<circle cx="103.232" cy="124.9" r="2.54897" transform="rotate(-180 103.232 124.9)" fill="#005CC5"/>
<circle cx="77.7372" cy="124.9" r="2.54897" transform="rotate(-180 77.7372 124.9)" fill="#005CC5"/>
<circle cx="52.2518" cy="124.9" r="2.54897" transform="rotate(-180 52.2518 124.9)" fill="#005CC5"/>
<circle cx="26.7616" cy="124.9" r="2.54897" transform="rotate(-180 26.7616 124.9)" fill="#005CC5"/>
<circle cx="2.54897" cy="124.9" r="2.54897" fill="#005CC5"/>
<circle cx="2.54897" cy="155.487" r="2.54897" fill="#005CC5"/>
<circle cx="2.54897" cy="186.075" r="2.54897" fill="#005CC5"/>
<circle cx="154.214" cy="216.663" r="2.54897" fill="#005CC5"/>
<circle cx="179.702" cy="216.663" r="2.54897" fill="#005CC5"/>
<circle cx="141.466" cy="231.956" r="2.54897" fill="#005CC5"/>
<circle cx="166.958" cy="231.956" r="2.54897" fill="#005CC5"/>
<circle cx="192.451" cy="231.956" r="2.54897" fill="#005CC5"/>
<circle cx="154.214" cy="247.25" r="2.54897" fill="#005CC5"/>
<circle cx="179.702" cy="247.25" r="2.54897" fill="#005CC5"/>
<circle cx="141.466" cy="262.544" r="2.54897" fill="#005CC5"/>
<circle cx="166.958" cy="262.544" r="2.54897" fill="#005CC5"/>
<circle cx="192.451" cy="262.544" r="2.54897" fill="#005CC5"/>
<circle cx="154.214" cy="277.838" r="2.54897" fill="#005CC5"/>
<circle cx="179.702" cy="277.838" r="2.54897" fill="#005CC5"/>
<circle cx="141.466" cy="293.132" r="2.54897" fill="#005CC5"/>
<circle cx="166.958" cy="293.132" r="2.54897" fill="#005CC5"/>
<circle cx="192.451" cy="293.132" r="2.54897" fill="#005CC5"/>
<circle cx="154.214" cy="308.425" r="2.54897" fill="#005CC5"/>
<circle cx="179.702" cy="308.425" r="2.54897" fill="#005CC5"/>
<circle cx="154.214" cy="124.9" r="2.54897" fill="#005CC5"/>
<circle cx="179.702" cy="124.9" r="2.54897" fill="#005CC5"/>
<circle cx="141.466" cy="140.193" r="2.54897" fill="#005CC5"/>
<circle cx="166.958" cy="140.193" r="2.54897" fill="#005CC5"/>
<circle cx="192.451" cy="140.193" r="2.54897" fill="#005CC5"/>
<circle cx="154.214" cy="155.487" r="2.54897" fill="#005CC5"/>
<circle cx="179.702" cy="155.487" r="2.54897" fill="#005CC5"/>
<circle cx="141.466" cy="170.781" r="2.54897" fill="#005CC5"/>
<circle cx="166.958" cy="170.781" r="2.54897" fill="#005CC5"/>
<circle cx="192.451" cy="170.781" r="2.54897" fill="#005CC5"/>
<circle cx="154.214" cy="186.075" r="2.54897" fill="#005CC5"/>
<circle cx="179.702" cy="186.075" r="2.54897" fill="#005CC5"/>
<circle cx="141.466" cy="201.369" r="2.54897" fill="#005CC5"/>
<circle cx="166.958" cy="201.369" r="2.54897" fill="#005CC5"/>
<circle cx="192.451" cy="201.369" r="2.54897" fill="#005CC5"/>
<circle cx="115.977" cy="109.606" r="2.54897" transform="rotate(-180 115.977 109.606)" fill="#005CC5"/>
<circle cx="90.4803" cy="109.606" r="2.54897" transform="rotate(-180 90.4803 109.606)" fill="#005CC5"/>
<circle cx="64.994" cy="109.606" r="2.54897" transform="rotate(-180 64.994 109.606)" fill="#005CC5"/>
<circle cx="39.5038" cy="109.606" r="2.54897" transform="rotate(-180 39.5038 109.606)" fill="#005CC5"/>
<circle cx="14.0194" cy="109.606" r="2.54897" transform="rotate(-180 14.0194 109.606)" fill="#005CC5"/>
<circle cx="128.722" cy="94.3119" r="2.54897" transform="rotate(-180 128.722 94.3119)" fill="#005CC5"/>
<circle cx="103.232" cy="94.3119" r="2.54897" transform="rotate(-180 103.232 94.3119)" fill="#005CC5"/>
<circle cx="77.7372" cy="94.3119" r="2.54897" transform="rotate(-180 77.7372 94.3119)" fill="#005CC5"/>
<circle cx="52.2518" cy="94.3119" r="2.54897" transform="rotate(-180 52.2518 94.3119)" fill="#005CC5"/>
<circle cx="26.7616" cy="94.3119" r="2.54897" transform="rotate(-180 26.7616 94.3119)" fill="#005CC5"/>
<circle cx="115.977" cy="79.0181" r="2.54897" transform="rotate(-180 115.977 79.0181)" fill="#005CC5"/>
<circle cx="90.4803" cy="79.0181" r="2.54897" transform="rotate(-180 90.4803 79.0181)" fill="#005CC5"/>
<circle cx="64.994" cy="79.0181" r="2.54897" transform="rotate(-180 64.994 79.0181)" fill="#005CC5"/>
<circle cx="39.5038" cy="79.0181" r="2.54897" transform="rotate(-180 39.5038 79.0181)" fill="#005CC5"/>
<circle cx="14.0194" cy="79.0181" r="2.54897" transform="rotate(-180 14.0194 79.0181)" fill="#005CC5"/>
<circle cx="128.722" cy="63.7243" r="2.54897" transform="rotate(-180 128.722 63.7243)" fill="#005CC5"/>
<circle cx="103.232" cy="63.7243" r="2.54897" transform="rotate(-180 103.232 63.7243)" fill="#005CC5"/>
<circle cx="77.7372" cy="63.7243" r="2.54897" transform="rotate(-180 77.7372 63.7243)" fill="#005CC5"/>
<circle cx="52.2518" cy="63.7243" r="2.54897" transform="rotate(-180 52.2518 63.7243)" fill="#005CC5"/>
<circle cx="26.7616" cy="63.7243" r="2.54897" transform="rotate(-180 26.7616 63.7243)" fill="#005CC5"/>
<circle cx="115.977" cy="48.4304" r="2.54897" transform="rotate(-180 115.977 48.4304)" fill="#005CC5"/>
<circle cx="90.4803" cy="48.4304" r="2.54897" transform="rotate(-180 90.4803 48.4304)" fill="#005CC5"/>
<circle cx="64.994" cy="48.4304" r="2.54897" transform="rotate(-180 64.994 48.4304)" fill="#005CC5"/>
<circle cx="39.5038" cy="48.4304" r="2.54897" transform="rotate(-180 39.5038 48.4304)" fill="#005CC5"/>
<circle cx="14.0194" cy="48.4304" r="2.54897" transform="rotate(-180 14.0194 48.4304)" fill="#005CC5"/>
<circle cx="128.722" cy="33.1366" r="2.54897" transform="rotate(-180 128.722 33.1366)" fill="#005CC5"/>
<circle cx="103.232" cy="33.1366" r="2.54897" transform="rotate(-180 103.232 33.1366)" fill="#005CC5"/>
<circle cx="77.7372" cy="33.1366" r="2.54897" transform="rotate(-180 77.7372 33.1366)" fill="#005CC5"/>
<circle cx="52.2518" cy="33.1366" r="2.54897" transform="rotate(-180 52.2518 33.1366)" fill="#005CC5"/>
<circle cx="26.7616" cy="33.1366" r="2.54897" transform="rotate(-180 26.7616 33.1366)" fill="#005CC5"/>
<circle cx="2.54897" cy="33.1367" r="2.54897" fill="#005CC5"/>
<circle cx="2.54897" cy="63.7243" r="2.54897" fill="#005CC5"/>
<circle cx="2.54897" cy="94.312" r="2.54897" fill="#005CC5"/>
<circle cx="115.977" cy="17.8428" r="2.54897" transform="rotate(-180 115.977 17.8428)" fill="#005CC5"/>
<circle cx="90.4803" cy="17.8428" r="2.54897" transform="rotate(-180 90.4803 17.8428)" fill="#005CC5"/>
<circle cx="64.994" cy="17.8428" r="2.54897" transform="rotate(-180 64.994 17.8428)" fill="#005CC5"/>
<circle cx="39.5038" cy="17.8428" r="2.54897" transform="rotate(-180 39.5038 17.8428)" fill="#005CC5"/>
<circle cx="14.0194" cy="17.8428" r="2.54897" transform="rotate(-180 14.0194 17.8428)" fill="#005CC5"/>
<circle cx="128.722" cy="2.54901" r="2.54897" transform="rotate(-180 128.722 2.54901)" fill="#005CC5"/>
<circle cx="103.232" cy="2.54901" r="2.54897" transform="rotate(-180 103.232 2.54901)" fill="#005CC5"/>
<circle cx="77.7372" cy="2.54901" r="2.54897" transform="rotate(-180 77.7372 2.54901)" fill="#005CC5"/>
<circle cx="52.2518" cy="2.54901" r="2.54897" transform="rotate(-180 52.2518 2.54901)" fill="#005CC5"/>
<circle cx="26.7616" cy="2.54901" r="2.54897" transform="rotate(-180 26.7616 2.54901)" fill="#005CC5"/>
<circle cx="2.54897" cy="2.54897" r="2.54897" fill="#005CC5"/>
<circle cx="154.214" cy="33.1367" r="2.54897" fill="#005CC5"/>
<circle cx="179.702" cy="33.1367" r="2.54897" fill="#005CC5"/>
<circle cx="141.466" cy="48.4305" r="2.54897" fill="#005CC5"/>
<circle cx="166.958" cy="48.4305" r="2.54897" fill="#005CC5"/>
<circle cx="192.451" cy="48.4305" r="2.54897" fill="#005CC5"/>
<circle cx="154.214" cy="63.7243" r="2.54897" fill="#005CC5"/>
<circle cx="179.702" cy="63.7243" r="2.54897" fill="#005CC5"/>
<circle cx="141.466" cy="79.0181" r="2.54897" fill="#005CC5"/>
<circle cx="166.958" cy="79.0181" r="2.54897" fill="#005CC5"/>
<circle cx="192.451" cy="79.0181" r="2.54897" fill="#005CC5"/>
<circle cx="154.214" cy="94.312" r="2.54897" fill="#005CC5"/>
<circle cx="179.702" cy="94.312" r="2.54897" fill="#005CC5"/>
<circle cx="141.466" cy="109.606" r="2.54897" fill="#005CC5"/>
<circle cx="166.958" cy="109.606" r="2.54897" fill="#005CC5"/>
<circle cx="192.451" cy="109.606" r="2.54897" fill="#005CC5"/>
<circle cx="154.214" cy="2.54897" r="2.54897" fill="#005CC5"/>
<circle cx="179.702" cy="2.54897" r="2.54897" fill="#005CC5"/>
<circle cx="141.466" cy="17.8428" r="2.54897" fill="#005CC5"/>
<circle cx="166.958" cy="17.8428" r="2.54897" fill="#005CC5"/>
<circle cx="192.451" cy="17.8428" r="2.54897" fill="#005CC5"/>
</svg>
