<svg width="371" height="377" viewBox="0 0 371 377" fill="none" xmlns="http://www.w3.org/2000/svg">
<mask id="mask0" mask-type="alpha" maskUnits="userSpaceOnUse" x="-5" y="-1" width="379" height="379">
<rect x="183" y="-1" width="270" height="265" transform="rotate(45 183 -1)" fill="#C4C4C4"/>
</mask>
<g mask="url(#mask0)">
<ellipse cx="4.79009" cy="268.52" rx="2.34783" ry="2.34513" transform="rotate(-135 4.79009 268.52)" fill="#005CC5"/>
<ellipse cx="6.43853" cy="250.269" rx="2.34783" ry="2.34513" transform="rotate(-135 6.43853 250.269)" fill="#005CC5"/>
<ellipse cx="24.6895" cy="248.62" rx="2.34783" ry="2.34513" transform="rotate(-135 24.6895 248.62)" fill="#005CC5"/>
<ellipse cx="8.08647" cy="232.019" rx="2.34783" ry="2.34513" transform="rotate(-135 8.08647 232.019)" fill="#005CC5"/>
<ellipse cx="26.337" cy="230.37" rx="2.34783" ry="2.34513" transform="rotate(-135 26.337 230.37)" fill="#005CC5"/>
<ellipse cx="9.73687" cy="213.768" rx="2.34783" ry="2.34513" transform="rotate(-135 9.73687 213.768)" fill="#005CC5"/>
<ellipse cx="44.5879" cy="228.721" rx="2.34783" ry="2.34513" transform="rotate(-135 44.5879 228.721)" fill="#005CC5"/>
<ellipse cx="27.9864" cy="212.12" rx="2.34783" ry="2.34513" transform="rotate(-135 27.9864 212.12)" fill="#005CC5"/>
<ellipse cx="11.3843" cy="195.518" rx="2.34783" ry="2.34513" transform="rotate(-135 11.3843 195.518)" fill="#005CC5"/>
<ellipse cx="46.2354" cy="210.471" rx="2.34783" ry="2.34513" transform="rotate(-135 46.2354 210.471)" fill="#005CC5"/>
<ellipse cx="29.6358" cy="193.869" rx="2.34783" ry="2.34513" transform="rotate(-135 29.6358 193.869)" fill="#005CC5"/>
<ellipse cx="13.0333" cy="177.268" rx="2.34783" ry="2.34513" transform="rotate(-135 13.0333 177.268)" fill="#005CC5"/>
<ellipse cx="64.4854" cy="208.822" rx="2.34783" ry="2.34513" transform="rotate(-135 64.4854 208.822)" fill="#005CC5"/>
<ellipse cx="47.8848" cy="192.22" rx="2.34783" ry="2.34513" transform="rotate(-135 47.8848 192.22)" fill="#005CC5"/>
<ellipse cx="31.2842" cy="175.619" rx="2.34783" ry="2.34513" transform="rotate(-135 31.2842 175.619)" fill="#005CC5"/>
<ellipse cx="14.6827" cy="159.017" rx="2.34783" ry="2.34513" transform="rotate(-135 14.6827 159.017)" fill="#005CC5"/>
<ellipse cx="-1.91841" cy="142.416" rx="2.34783" ry="2.34513" transform="rotate(-135 -1.91841 142.416)" fill="#005CC5"/>
<ellipse cx="66.1358" cy="190.572" rx="2.34783" ry="2.34513" transform="rotate(-135 66.1358 190.572)" fill="#005CC5"/>
<ellipse cx="49.5352" cy="173.97" rx="2.34783" ry="2.34513" transform="rotate(-135 49.5352 173.97)" fill="#005CC5"/>
<ellipse cx="32.9327" cy="157.369" rx="2.34783" ry="2.34513" transform="rotate(-135 32.9327 157.369)" fill="#005CC5"/>
<ellipse cx="16.3306" cy="140.767" rx="2.34783" ry="2.34513" transform="rotate(-135 16.3306 140.767)" fill="#005CC5"/>
<ellipse cx="-0.270947" cy="124.165" rx="2.34783" ry="2.34513" transform="rotate(-135 -0.270947 124.165)" fill="#005CC5"/>
<ellipse cx="84.3858" cy="188.923" rx="2.34783" ry="2.34513" transform="rotate(-135 84.3858 188.923)" fill="#005CC5"/>
<ellipse cx="67.7852" cy="172.321" rx="2.34783" ry="2.34513" transform="rotate(-135 67.7852 172.321)" fill="#005CC5"/>
<ellipse cx="51.1846" cy="155.72" rx="2.34783" ry="2.34513" transform="rotate(-135 51.1846 155.72)" fill="#005CC5"/>
<ellipse cx="34.5801" cy="139.118" rx="2.34783" ry="2.34513" transform="rotate(-135 34.5801 139.118)" fill="#005CC5"/>
<ellipse cx="17.98" cy="122.516" rx="2.34783" ry="2.34513" transform="rotate(-135 17.98 122.516)" fill="#005CC5"/>
<ellipse cx="86.0342" cy="170.673" rx="2.34783" ry="2.34513" transform="rotate(-135 86.0342 170.673)" fill="#005CC5"/>
<ellipse cx="69.4327" cy="154.071" rx="2.34783" ry="2.34513" transform="rotate(-135 69.4327 154.071)" fill="#005CC5"/>
<ellipse cx="52.8311" cy="137.469" rx="2.34783" ry="2.34513" transform="rotate(-135 52.8311 137.469)" fill="#005CC5"/>
<ellipse cx="36.2295" cy="120.868" rx="2.34783" ry="2.34513" transform="rotate(-135 36.2295 120.868)" fill="#005CC5"/>
<ellipse cx="19.6285" cy="104.266" rx="2.34783" ry="2.34513" transform="rotate(-135 19.6285 104.266)" fill="#005CC5"/>
<ellipse cx="104.284" cy="169.024" rx="2.34783" ry="2.34513" transform="rotate(-135 104.284 169.024)" fill="#005CC5"/>
<ellipse cx="87.6836" cy="152.422" rx="2.34783" ry="2.34513" transform="rotate(-135 87.6836 152.422)" fill="#005CC5"/>
<ellipse cx="71.0821" cy="135.821" rx="2.34783" ry="2.34513" transform="rotate(-135 71.0821 135.821)" fill="#005CC5"/>
<ellipse cx="54.4795" cy="119.219" rx="2.34783" ry="2.34513" transform="rotate(-135 54.4795 119.219)" fill="#005CC5"/>
<ellipse cx="37.8799" cy="102.617" rx="2.34783" ry="2.34513" transform="rotate(-135 37.8799 102.617)" fill="#005CC5"/>
<ellipse cx="105.935" cy="150.774" rx="2.34783" ry="2.34513" transform="rotate(-135 105.935 150.774)" fill="#005CC5"/>
<ellipse cx="89.3331" cy="134.172" rx="2.34783" ry="2.34513" transform="rotate(-135 89.3331 134.172)" fill="#005CC5"/>
<ellipse cx="72.7305" cy="117.57" rx="2.34783" ry="2.34513" transform="rotate(-135 72.7305 117.57)" fill="#005CC5"/>
<ellipse cx="56.129" cy="100.969" rx="2.34783" ry="2.34513" transform="rotate(-135 56.129 100.969)" fill="#005CC5"/>
<ellipse cx="39.5284" cy="84.367" rx="2.34783" ry="2.34513" transform="rotate(-135 39.5284 84.367)" fill="#005CC5"/>
<ellipse cx="124.184" cy="149.125" rx="2.34783" ry="2.34513" transform="rotate(-135 124.184 149.125)" fill="#005CC5"/>
<ellipse cx="107.583" cy="132.523" rx="2.34783" ry="2.34513" transform="rotate(-135 107.583 132.523)" fill="#005CC5"/>
<ellipse cx="90.9805" cy="115.922" rx="2.34783" ry="2.34513" transform="rotate(-135 90.9805 115.922)" fill="#005CC5"/>
<ellipse cx="74.379" cy="99.3199" rx="2.34783" ry="2.34513" transform="rotate(-135 74.379 99.3199)" fill="#005CC5"/>
<ellipse cx="57.7774" cy="82.7183" rx="2.34783" ry="2.34513" transform="rotate(-135 57.7774 82.7183)" fill="#005CC5"/>
<ellipse cx="42.0068" cy="66.9467" rx="2.34783" ry="2.34513" transform="rotate(45 42.0068 66.9467)" fill="#005CC5"/>
<ellipse cx="22.1074" cy="86.8458" rx="2.34783" ry="2.34513" transform="rotate(45 22.1074 86.8458)" fill="#005CC5"/>
<ellipse cx="2.20845" cy="106.745" rx="2.34783" ry="2.34513" transform="rotate(45 2.20845 106.745)" fill="#005CC5"/>
<ellipse cx="81.0878" cy="225.424" rx="2.34783" ry="2.34513" transform="rotate(45 81.0878 225.424)" fill="#005CC5"/>
<ellipse cx="97.6904" cy="242.025" rx="2.34783" ry="2.34513" transform="rotate(45 97.6904 242.025)" fill="#005CC5"/>
<ellipse cx="114.292" cy="258.627" rx="2.34783" ry="2.34513" transform="rotate(45 114.292 258.627)" fill="#005CC5"/>
<ellipse cx="62.8388" cy="227.073" rx="2.34783" ry="2.34513" transform="rotate(45 62.8388 227.073)" fill="#005CC5"/>
<ellipse cx="79.4404" cy="243.674" rx="2.34783" ry="2.34513" transform="rotate(45 79.4404 243.674)" fill="#005CC5"/>
<ellipse cx="96.041" cy="260.276" rx="2.34783" ry="2.34513" transform="rotate(45 96.041 260.276)" fill="#005CC5"/>
<ellipse cx="112.643" cy="276.878" rx="2.34783" ry="2.34513" transform="rotate(45 112.643 276.878)" fill="#005CC5"/>
<ellipse cx="61.1904" cy="245.323" rx="2.34783" ry="2.34513" transform="rotate(45 61.1904 245.323)" fill="#005CC5"/>
<ellipse cx="77.791" cy="261.925" rx="2.34783" ry="2.34513" transform="rotate(45 77.791 261.925)" fill="#005CC5"/>
<ellipse cx="94.3925" cy="278.526" rx="2.34783" ry="2.34513" transform="rotate(45 94.3925 278.526)" fill="#005CC5"/>
<ellipse cx="42.9404" cy="246.972" rx="2.34783" ry="2.34513" transform="rotate(45 42.9404 246.972)" fill="#005CC5"/>
<ellipse cx="59.5419" cy="263.573" rx="2.34783" ry="2.34513" transform="rotate(45 59.5419 263.573)" fill="#005CC5"/>
<ellipse cx="76.1425" cy="280.175" rx="2.34783" ry="2.34513" transform="rotate(45 76.1425 280.175)" fill="#005CC5"/>
<ellipse cx="92.746" cy="296.777" rx="2.34783" ry="2.34513" transform="rotate(45 92.746 296.777)" fill="#005CC5"/>
<ellipse cx="41.291" cy="265.222" rx="2.34783" ry="2.34513" transform="rotate(45 41.291 265.222)" fill="#005CC5"/>
<ellipse cx="57.8916" cy="281.824" rx="2.34783" ry="2.34513" transform="rotate(45 57.8916 281.824)" fill="#005CC5"/>
<ellipse cx="74.4931" cy="298.425" rx="2.34783" ry="2.34513" transform="rotate(45 74.4931 298.425)" fill="#005CC5"/>
<ellipse cx="23.04" cy="266.871" rx="2.34783" ry="2.34513" transform="rotate(45 23.04 266.871)" fill="#005CC5"/>
<ellipse cx="39.6425" cy="283.472" rx="2.34783" ry="2.34513" transform="rotate(45 39.6425 283.472)" fill="#005CC5"/>
<ellipse cx="56.2421" cy="300.074" rx="2.34783" ry="2.34513" transform="rotate(45 56.2421 300.074)" fill="#005CC5"/>
<ellipse cx="72.8466" cy="316.676" rx="2.34783" ry="2.34513" transform="rotate(45 72.8466 316.676)" fill="#005CC5"/>
<ellipse cx="21.3911" cy="285.121" rx="2.34783" ry="2.34513" transform="rotate(45 21.3911 285.121)" fill="#005CC5"/>
<ellipse cx="37.9941" cy="301.723" rx="2.34783" ry="2.34513" transform="rotate(45 37.9941 301.723)" fill="#005CC5"/>
<ellipse cx="54.5947" cy="318.324" rx="2.34783" ry="2.34513" transform="rotate(45 54.5947 318.324)" fill="#005CC5"/>
<ellipse cx="70.3653" cy="334.096" rx="2.34783" ry="2.34513" transform="rotate(-135 70.3653 334.096)" fill="#005CC5"/>
<ellipse cx="90.2647" cy="314.197" rx="2.34783" ry="2.34513" transform="rotate(-135 90.2647 314.197)" fill="#005CC5"/>
<ellipse cx="110.164" cy="294.298" rx="2.34783" ry="2.34513" transform="rotate(-135 110.164 294.298)" fill="#005CC5"/>
<ellipse cx="130.063" cy="274.399" rx="2.34783" ry="2.34513" transform="rotate(-135 130.063 274.399)" fill="#005CC5"/>
<ellipse cx="140.787" cy="165.726" rx="2.34783" ry="2.34513" transform="rotate(45 140.787 165.726)" fill="#005CC5"/>
<ellipse cx="157.389" cy="182.328" rx="2.34783" ry="2.34513" transform="rotate(45 157.389 182.328)" fill="#005CC5"/>
<ellipse cx="173.988" cy="198.93" rx="2.34783" ry="2.34513" transform="rotate(45 173.988 198.93)" fill="#005CC5"/>
<ellipse cx="122.536" cy="167.375" rx="2.34783" ry="2.34513" transform="rotate(45 122.536 167.375)" fill="#005CC5"/>
<ellipse cx="139.138" cy="183.977" rx="2.34783" ry="2.34513" transform="rotate(45 139.138 183.977)" fill="#005CC5"/>
<ellipse cx="155.738" cy="200.578" rx="2.34783" ry="2.34513" transform="rotate(45 155.738 200.578)" fill="#005CC5"/>
<ellipse cx="172.341" cy="217.18" rx="2.34783" ry="2.34513" transform="rotate(45 172.341 217.18)" fill="#005CC5"/>
<ellipse cx="120.888" cy="185.626" rx="2.34783" ry="2.34513" transform="rotate(45 120.888 185.626)" fill="#005CC5"/>
<ellipse cx="137.489" cy="202.227" rx="2.34783" ry="2.34513" transform="rotate(45 137.489 202.227)" fill="#005CC5"/>
<ellipse cx="154.09" cy="218.829" rx="2.34783" ry="2.34513" transform="rotate(45 154.09 218.829)" fill="#005CC5"/>
<ellipse cx="102.636" cy="187.274" rx="2.34783" ry="2.34513" transform="rotate(45 102.636 187.274)" fill="#005CC5"/>
<ellipse cx="119.238" cy="203.876" rx="2.34783" ry="2.34513" transform="rotate(45 119.238 203.876)" fill="#005CC5"/>
<ellipse cx="135.84" cy="220.478" rx="2.34783" ry="2.34513" transform="rotate(45 135.84 220.478)" fill="#005CC5"/>
<ellipse cx="152.441" cy="237.079" rx="2.34783" ry="2.34513" transform="rotate(45 152.441 237.079)" fill="#005CC5"/>
<ellipse cx="100.988" cy="205.525" rx="2.34783" ry="2.34513" transform="rotate(45 100.988 205.525)" fill="#005CC5"/>
<ellipse cx="117.59" cy="222.126" rx="2.34783" ry="2.34513" transform="rotate(45 117.59 222.126)" fill="#005CC5"/>
<ellipse cx="134.19" cy="238.728" rx="2.34783" ry="2.34513" transform="rotate(45 134.19 238.728)" fill="#005CC5"/>
<ellipse cx="82.7373" cy="207.173" rx="2.34783" ry="2.34513" transform="rotate(45 82.7373 207.173)" fill="#005CC5"/>
<ellipse cx="99.3398" cy="223.775" rx="2.34783" ry="2.34513" transform="rotate(45 99.3398 223.775)" fill="#005CC5"/>
<ellipse cx="115.94" cy="240.377" rx="2.34783" ry="2.34513" transform="rotate(45 115.94 240.377)" fill="#005CC5"/>
<ellipse cx="132.542" cy="256.978" rx="2.34783" ry="2.34513" transform="rotate(45 132.542 256.978)" fill="#005CC5"/>
<ellipse cx="149.962" cy="254.5" rx="2.34783" ry="2.34513" transform="rotate(-135 149.962 254.5)" fill="#005CC5"/>
<ellipse cx="169.862" cy="234.6" rx="2.34783" ry="2.34513" transform="rotate(-135 169.862 234.6)" fill="#005CC5"/>
<ellipse cx="189.762" cy="214.701" rx="2.34783" ry="2.34513" transform="rotate(-135 189.762 214.701)" fill="#005CC5"/>
<ellipse cx="102.741" cy="366.469" rx="2.34783" ry="2.34513" transform="rotate(-135 102.741 366.469)" fill="#005CC5"/>
<ellipse cx="86.1377" cy="349.868" rx="2.34783" ry="2.34513" transform="rotate(-135 86.1377 349.868)" fill="#005CC5"/>
<ellipse cx="120.99" cy="364.82" rx="2.34783" ry="2.34513" transform="rotate(-135 120.99 364.82)" fill="#005CC5"/>
<ellipse cx="104.388" cy="348.219" rx="2.34783" ry="2.34513" transform="rotate(-135 104.388 348.219)" fill="#005CC5"/>
<ellipse cx="87.7872" cy="331.617" rx="2.34783" ry="2.34513" transform="rotate(-135 87.7872 331.617)" fill="#005CC5"/>
<ellipse cx="155.841" cy="379.773" rx="2.34783" ry="2.34513" transform="rotate(-135 155.841 379.773)" fill="#005CC5"/>
<ellipse cx="139.24" cy="363.172" rx="2.34783" ry="2.34513" transform="rotate(-135 139.24 363.172)" fill="#005CC5"/>
<ellipse cx="122.639" cy="346.57" rx="2.34783" ry="2.34513" transform="rotate(-135 122.639 346.57)" fill="#005CC5"/>
<ellipse cx="106.037" cy="329.968" rx="2.34783" ry="2.34513" transform="rotate(-135 106.037 329.968)" fill="#005CC5"/>
<ellipse cx="174.091" cy="378.125" rx="2.34783" ry="2.34513" transform="rotate(-135 174.091 378.125)" fill="#005CC5"/>
<ellipse cx="157.491" cy="361.523" rx="2.34783" ry="2.34513" transform="rotate(-135 157.491 361.523)" fill="#005CC5"/>
<ellipse cx="140.89" cy="344.921" rx="2.34783" ry="2.34513" transform="rotate(-135 140.89 344.921)" fill="#005CC5"/>
<ellipse cx="124.286" cy="328.32" rx="2.34783" ry="2.34513" transform="rotate(-135 124.286 328.32)" fill="#005CC5"/>
<ellipse cx="107.686" cy="311.718" rx="2.34783" ry="2.34513" transform="rotate(-135 107.686 311.718)" fill="#005CC5"/>
<ellipse cx="192.343" cy="376.476" rx="2.34783" ry="2.34513" transform="rotate(-135 192.343 376.476)" fill="#005CC5"/>
<ellipse cx="175.74" cy="359.874" rx="2.34783" ry="2.34513" transform="rotate(-135 175.74 359.874)" fill="#005CC5"/>
<ellipse cx="159.14" cy="343.273" rx="2.34783" ry="2.34513" transform="rotate(-135 159.14 343.273)" fill="#005CC5"/>
<ellipse cx="142.538" cy="326.671" rx="2.34783" ry="2.34513" transform="rotate(-135 142.538 326.671)" fill="#005CC5"/>
<ellipse cx="125.936" cy="310.069" rx="2.34783" ry="2.34513" transform="rotate(-135 125.936 310.069)" fill="#005CC5"/>
<ellipse cx="193.99" cy="358.226" rx="2.34783" ry="2.34513" transform="rotate(-135 193.99 358.226)" fill="#005CC5"/>
<ellipse cx="177.39" cy="341.624" rx="2.34783" ry="2.34513" transform="rotate(-135 177.39 341.624)" fill="#005CC5"/>
<ellipse cx="160.789" cy="325.022" rx="2.34783" ry="2.34513" transform="rotate(-135 160.789 325.022)" fill="#005CC5"/>
<ellipse cx="144.186" cy="308.421" rx="2.34783" ry="2.34513" transform="rotate(-135 144.186 308.421)" fill="#005CC5"/>
<ellipse cx="127.586" cy="291.819" rx="2.34783" ry="2.34513" transform="rotate(-135 127.586 291.819)" fill="#005CC5"/>
<ellipse cx="212.242" cy="356.577" rx="2.34783" ry="2.34513" transform="rotate(-135 212.242 356.577)" fill="#005CC5"/>
<ellipse cx="195.639" cy="339.975" rx="2.34783" ry="2.34513" transform="rotate(-135 195.639 339.975)" fill="#005CC5"/>
<ellipse cx="179.039" cy="323.374" rx="2.34783" ry="2.34513" transform="rotate(-135 179.039 323.374)" fill="#005CC5"/>
<ellipse cx="162.437" cy="306.772" rx="2.34783" ry="2.34513" transform="rotate(-135 162.437 306.772)" fill="#005CC5"/>
<ellipse cx="145.834" cy="290.17" rx="2.34783" ry="2.34513" transform="rotate(-135 145.834 290.17)" fill="#005CC5"/>
<ellipse cx="213.89" cy="338.326" rx="2.34783" ry="2.34513" transform="rotate(-135 213.89 338.326)" fill="#005CC5"/>
<ellipse cx="197.289" cy="321.725" rx="2.34783" ry="2.34513" transform="rotate(-135 197.289 321.725)" fill="#005CC5"/>
<ellipse cx="180.688" cy="305.123" rx="2.34783" ry="2.34513" transform="rotate(-135 180.688 305.123)" fill="#005CC5"/>
<ellipse cx="164.085" cy="288.521" rx="2.34783" ry="2.34513" transform="rotate(-135 164.085 288.521)" fill="#005CC5"/>
<ellipse cx="147.485" cy="271.92" rx="2.34783" ry="2.34513" transform="rotate(-135 147.485 271.92)" fill="#005CC5"/>
<ellipse cx="232.142" cy="336.678" rx="2.34783" ry="2.34513" transform="rotate(-135 232.142 336.678)" fill="#005CC5"/>
<ellipse cx="215.539" cy="320.076" rx="2.34783" ry="2.34513" transform="rotate(-135 215.539 320.076)" fill="#005CC5"/>
<ellipse cx="198.938" cy="303.474" rx="2.34783" ry="2.34513" transform="rotate(-135 198.938 303.474)" fill="#005CC5"/>
<ellipse cx="182.337" cy="286.873" rx="2.34783" ry="2.34513" transform="rotate(-135 182.337 286.873)" fill="#005CC5"/>
<ellipse cx="165.732" cy="270.271" rx="2.34783" ry="2.34513" transform="rotate(-135 165.732 270.271)" fill="#005CC5"/>
<ellipse cx="233.789" cy="318.427" rx="2.34783" ry="2.34513" transform="rotate(-135 233.789 318.427)" fill="#005CC5"/>
<ellipse cx="217.189" cy="301.826" rx="2.34783" ry="2.34513" transform="rotate(-135 217.189 301.826)" fill="#005CC5"/>
<ellipse cx="200.587" cy="285.224" rx="2.34783" ry="2.34513" transform="rotate(-135 200.587 285.224)" fill="#005CC5"/>
<ellipse cx="183.983" cy="268.622" rx="2.34783" ry="2.34513" transform="rotate(-135 183.983 268.622)" fill="#005CC5"/>
<ellipse cx="167.383" cy="252.021" rx="2.34783" ry="2.34513" transform="rotate(-135 167.383 252.021)" fill="#005CC5"/>
<ellipse cx="252.039" cy="316.779" rx="2.34783" ry="2.34513" transform="rotate(-135 252.039 316.779)" fill="#005CC5"/>
<ellipse cx="235.438" cy="300.177" rx="2.34783" ry="2.34513" transform="rotate(-135 235.438 300.177)" fill="#005CC5"/>
<ellipse cx="218.836" cy="283.575" rx="2.34783" ry="2.34513" transform="rotate(-135 218.836 283.575)" fill="#005CC5"/>
<ellipse cx="202.235" cy="266.974" rx="2.34783" ry="2.34513" transform="rotate(-135 202.235 266.974)" fill="#005CC5"/>
<ellipse cx="185.632" cy="250.372" rx="2.34783" ry="2.34513" transform="rotate(-135 185.632 250.372)" fill="#005CC5"/>
<ellipse cx="253.689" cy="298.528" rx="2.34783" ry="2.34513" transform="rotate(-135 253.689 298.528)" fill="#005CC5"/>
<ellipse cx="237.088" cy="281.927" rx="2.34783" ry="2.34513" transform="rotate(-135 237.088 281.927)" fill="#005CC5"/>
<ellipse cx="220.485" cy="265.325" rx="2.34783" ry="2.34513" transform="rotate(-135 220.485 265.325)" fill="#005CC5"/>
<ellipse cx="203.884" cy="248.723" rx="2.34783" ry="2.34513" transform="rotate(-135 203.884 248.723)" fill="#005CC5"/>
<ellipse cx="187.282" cy="232.122" rx="2.34783" ry="2.34513" transform="rotate(-135 187.282 232.122)" fill="#005CC5"/>
<ellipse cx="271.94" cy="296.879" rx="2.34783" ry="2.34513" transform="rotate(-135 271.94 296.879)" fill="#005CC5"/>
<ellipse cx="255.337" cy="280.278" rx="2.34783" ry="2.34513" transform="rotate(-135 255.337 280.278)" fill="#005CC5"/>
<ellipse cx="238.736" cy="263.676" rx="2.34783" ry="2.34513" transform="rotate(-135 238.736 263.676)" fill="#005CC5"/>
<ellipse cx="222.135" cy="247.075" rx="2.34783" ry="2.34513" transform="rotate(-135 222.135 247.075)" fill="#005CC5"/>
<ellipse cx="205.531" cy="230.473" rx="2.34783" ry="2.34513" transform="rotate(-135 205.531 230.473)" fill="#005CC5"/>
<ellipse cx="228.843" cy="373.178" rx="2.34783" ry="2.34513" transform="rotate(45 228.843 373.178)" fill="#005CC5"/>
<ellipse cx="210.594" cy="374.827" rx="2.34783" ry="2.34513" transform="rotate(45 210.594 374.827)" fill="#005CC5"/>
<ellipse cx="288.541" cy="313.481" rx="2.34783" ry="2.34513" transform="rotate(45 288.541 313.481)" fill="#005CC5"/>
<ellipse cx="305.143" cy="330.083" rx="2.34783" ry="2.34513" transform="rotate(45 305.143 330.083)" fill="#005CC5"/>
<ellipse cx="321.744" cy="346.684" rx="2.34783" ry="2.34513" transform="rotate(45 321.744 346.684)" fill="#005CC5"/>
<ellipse cx="270.291" cy="315.13" rx="2.34783" ry="2.34513" transform="rotate(45 270.291 315.13)" fill="#005CC5"/>
<ellipse cx="286.893" cy="331.731" rx="2.34783" ry="2.34513" transform="rotate(45 286.893 331.731)" fill="#005CC5"/>
<ellipse cx="303.493" cy="348.333" rx="2.34783" ry="2.34513" transform="rotate(45 303.493 348.333)" fill="#005CC5"/>
<ellipse cx="320.097" cy="364.935" rx="2.34783" ry="2.34513" transform="rotate(45 320.097 364.935)" fill="#005CC5"/>
<ellipse cx="268.643" cy="333.38" rx="2.34783" ry="2.34513" transform="rotate(45 268.643 333.38)" fill="#005CC5"/>
<ellipse cx="285.244" cy="349.982" rx="2.34783" ry="2.34513" transform="rotate(45 285.244 349.982)" fill="#005CC5"/>
<ellipse cx="301.846" cy="366.583" rx="2.34783" ry="2.34513" transform="rotate(45 301.846 366.583)" fill="#005CC5"/>
<ellipse cx="250.392" cy="335.029" rx="2.34783" ry="2.34513" transform="rotate(45 250.392 335.029)" fill="#005CC5"/>
<ellipse cx="266.993" cy="351.631" rx="2.34783" ry="2.34513" transform="rotate(45 266.993 351.631)" fill="#005CC5"/>
<ellipse cx="283.594" cy="368.232" rx="2.34783" ry="2.34513" transform="rotate(45 283.594 368.232)" fill="#005CC5"/>
<ellipse cx="248.742" cy="353.279" rx="2.34783" ry="2.34513" transform="rotate(45 248.742 353.279)" fill="#005CC5"/>
<ellipse cx="265.344" cy="369.881" rx="2.34783" ry="2.34513" transform="rotate(45 265.344 369.881)" fill="#005CC5"/>
<ellipse cx="230.492" cy="354.928" rx="2.34783" ry="2.34513" transform="rotate(45 230.492 354.928)" fill="#005CC5"/>
<ellipse cx="247.095" cy="371.53" rx="2.34783" ry="2.34513" transform="rotate(45 247.095 371.53)" fill="#005CC5"/>
<ellipse cx="337.516" cy="362.456" rx="2.34783" ry="2.34513" transform="rotate(-135 337.516 362.456)" fill="#005CC5"/>
<ellipse cx="125.832" cy="130.874" rx="2.34783" ry="2.34513" transform="rotate(-135 125.832 130.874)" fill="#005CC5"/>
<ellipse cx="109.231" cy="114.273" rx="2.34783" ry="2.34513" transform="rotate(-135 109.231 114.273)" fill="#005CC5"/>
<ellipse cx="92.6299" cy="97.6712" rx="2.34783" ry="2.34513" transform="rotate(-135 92.6299 97.6712)" fill="#005CC5"/>
<ellipse cx="76.0284" cy="81.0695" rx="2.34783" ry="2.34513" transform="rotate(-135 76.0284 81.0695)" fill="#005CC5"/>
<ellipse cx="59.4268" cy="64.4679" rx="2.34783" ry="2.34513" transform="rotate(-135 59.4268 64.4679)" fill="#005CC5"/>
<ellipse cx="144.083" cy="129.226" rx="2.34783" ry="2.34513" transform="rotate(-135 144.083 129.226)" fill="#005CC5"/>
<ellipse cx="127.483" cy="112.624" rx="2.34783" ry="2.34513" transform="rotate(-135 127.483 112.624)" fill="#005CC5"/>
<ellipse cx="110.88" cy="96.0225" rx="2.34783" ry="2.34513" transform="rotate(-135 110.88 96.0225)" fill="#005CC5"/>
<ellipse cx="94.2784" cy="79.4208" rx="2.34783" ry="2.34513" transform="rotate(-135 94.2784 79.4208)" fill="#005CC5"/>
<ellipse cx="77.6768" cy="62.8192" rx="2.34783" ry="2.34513" transform="rotate(-135 77.6768 62.8192)" fill="#005CC5"/>
<ellipse cx="145.731" cy="110.975" rx="2.34783" ry="2.34513" transform="rotate(-135 145.731 110.975)" fill="#005CC5"/>
<ellipse cx="129.131" cy="94.3737" rx="2.34783" ry="2.34513" transform="rotate(-135 129.131 94.3737)" fill="#005CC5"/>
<ellipse cx="112.527" cy="77.7721" rx="2.34783" ry="2.34513" transform="rotate(-135 112.527 77.7721)" fill="#005CC5"/>
<ellipse cx="95.9278" cy="61.1704" rx="2.34783" ry="2.34513" transform="rotate(-135 95.9278 61.1704)" fill="#005CC5"/>
<ellipse cx="79.3262" cy="44.5688" rx="2.34783" ry="2.34513" transform="rotate(-135 79.3262 44.5688)" fill="#005CC5"/>
<ellipse cx="163.981" cy="109.327" rx="2.34783" ry="2.34513" transform="rotate(-135 163.981 109.327)" fill="#005CC5"/>
<ellipse cx="147.382" cy="92.725" rx="2.34783" ry="2.34513" transform="rotate(-135 147.382 92.725)" fill="#005CC5"/>
<ellipse cx="130.779" cy="76.1233" rx="2.34783" ry="2.34513" transform="rotate(-135 130.779 76.1233)" fill="#005CC5"/>
<ellipse cx="114.178" cy="59.5217" rx="2.34783" ry="2.34513" transform="rotate(-135 114.178 59.5217)" fill="#005CC5"/>
<ellipse cx="97.5762" cy="42.9201" rx="2.34783" ry="2.34513" transform="rotate(-135 97.5762 42.9201)" fill="#005CC5"/>
<ellipse cx="165.63" cy="91.0762" rx="2.34783" ry="2.34513" transform="rotate(-135 165.63 91.0762)" fill="#005CC5"/>
<ellipse cx="149.031" cy="74.4746" rx="2.34783" ry="2.34513" transform="rotate(-135 149.031 74.4746)" fill="#005CC5"/>
<ellipse cx="132.427" cy="57.873" rx="2.34783" ry="2.34513" transform="rotate(-135 132.427 57.873)" fill="#005CC5"/>
<ellipse cx="115.827" cy="41.2713" rx="2.34783" ry="2.34513" transform="rotate(-135 115.827 41.2713)" fill="#005CC5"/>
<ellipse cx="99.2256" cy="24.6697" rx="2.34783" ry="2.34513" transform="rotate(-135 99.2256 24.6697)" fill="#005CC5"/>
<ellipse cx="183.881" cy="89.4275" rx="2.34783" ry="2.34513" transform="rotate(-135 183.881 89.4275)" fill="#005CC5"/>
<ellipse cx="167.28" cy="72.8259" rx="2.34783" ry="2.34513" transform="rotate(-135 167.28 72.8259)" fill="#005CC5"/>
<ellipse cx="150.679" cy="56.2242" rx="2.34783" ry="2.34513" transform="rotate(-135 150.679 56.2242)" fill="#005CC5"/>
<ellipse cx="134.076" cy="39.6226" rx="2.34783" ry="2.34513" transform="rotate(-135 134.076 39.6226)" fill="#005CC5"/>
<ellipse cx="117.476" cy="23.0209" rx="2.34783" ry="2.34513" transform="rotate(-135 117.476 23.0209)" fill="#005CC5"/>
<ellipse cx="101.703" cy="7.24939" rx="2.34783" ry="2.34513" transform="rotate(45 101.703 7.24939)" fill="#005CC5"/>
<ellipse cx="81.8046" cy="27.1485" rx="2.34783" ry="2.34513" transform="rotate(45 81.8046 27.1485)" fill="#005CC5"/>
<ellipse cx="61.9052" cy="47.0476" rx="2.34783" ry="2.34513" transform="rotate(45 61.9052 47.0476)" fill="#005CC5"/>
<ellipse cx="185.529" cy="71.1771" rx="2.34783" ry="2.34513" transform="rotate(-135 185.529 71.1771)" fill="#005CC5"/>
<ellipse cx="168.93" cy="54.5755" rx="2.34783" ry="2.34513" transform="rotate(-135 168.93 54.5755)" fill="#005CC5"/>
<ellipse cx="152.326" cy="37.9739" rx="2.34783" ry="2.34513" transform="rotate(-135 152.326 37.9739)" fill="#005CC5"/>
<ellipse cx="135.727" cy="21.3722" rx="2.34783" ry="2.34513" transform="rotate(-135 135.727 21.3722)" fill="#005CC5"/>
<ellipse cx="119.124" cy="4.77059" rx="2.34783" ry="2.34513" transform="rotate(-135 119.124 4.77059)" fill="#005CC5"/>
<ellipse cx="203.78" cy="69.5284" rx="2.34783" ry="2.34513" transform="rotate(-135 203.78 69.5284)" fill="#005CC5"/>
<ellipse cx="187.179" cy="52.9267" rx="2.34783" ry="2.34513" transform="rotate(-135 187.179 52.9267)" fill="#005CC5"/>
<ellipse cx="170.578" cy="36.3251" rx="2.34783" ry="2.34513" transform="rotate(-135 170.578 36.3251)" fill="#005CC5"/>
<ellipse cx="153.975" cy="19.7235" rx="2.34783" ry="2.34513" transform="rotate(-135 153.975 19.7235)" fill="#005CC5"/>
<ellipse cx="137.374" cy="3.12184" rx="2.34783" ry="2.34513" transform="rotate(-135 137.374 3.12184)" fill="#005CC5"/>
<ellipse cx="205.429" cy="51.278" rx="2.34783" ry="2.34513" transform="rotate(-135 205.429 51.278)" fill="#005CC5"/>
<ellipse cx="188.829" cy="34.6764" rx="2.34783" ry="2.34513" transform="rotate(-135 188.829 34.6764)" fill="#005CC5"/>
<ellipse cx="172.226" cy="18.0748" rx="2.34783" ry="2.34513" transform="rotate(-135 172.226 18.0748)" fill="#005CC5"/>
<ellipse cx="155.625" cy="1.47309" rx="2.34783" ry="2.34513" transform="rotate(-135 155.625 1.47309)" fill="#005CC5"/>
<ellipse cx="223.68" cy="49.6293" rx="2.34783" ry="2.34513" transform="rotate(-135 223.68 49.6293)" fill="#005CC5"/>
<ellipse cx="207.078" cy="33.0276" rx="2.34783" ry="2.34513" transform="rotate(-135 207.078 33.0276)" fill="#005CC5"/>
<ellipse cx="190.478" cy="16.426" rx="2.34783" ry="2.34513" transform="rotate(-135 190.478 16.426)" fill="#005CC5"/>
<ellipse cx="173.874" cy="-0.175639" rx="2.34783" ry="2.34513" transform="rotate(-135 173.874 -0.175639)" fill="#005CC5"/>
<ellipse cx="225.328" cy="31.3789" rx="2.34783" ry="2.34513" transform="rotate(-135 225.328 31.3789)" fill="#005CC5"/>
<ellipse cx="208.728" cy="14.7773" rx="2.34783" ry="2.34513" transform="rotate(-135 208.728 14.7773)" fill="#005CC5"/>
<ellipse cx="192.124" cy="-1.82434" rx="2.34783" ry="2.34513" transform="rotate(-135 192.124 -1.82434)" fill="#005CC5"/>
<ellipse cx="243.579" cy="29.7302" rx="2.34783" ry="2.34513" transform="rotate(-135 243.579 29.7302)" fill="#005CC5"/>
<ellipse cx="226.978" cy="13.1285" rx="2.34783" ry="2.34513" transform="rotate(-135 226.978 13.1285)" fill="#005CC5"/>
<ellipse cx="200.484" cy="106.029" rx="2.34783" ry="2.34513" transform="rotate(45 200.484 106.029)" fill="#005CC5"/>
<ellipse cx="217.086" cy="122.631" rx="2.34783" ry="2.34513" transform="rotate(45 217.086 122.631)" fill="#005CC5"/>
<ellipse cx="233.686" cy="139.232" rx="2.34783" ry="2.34513" transform="rotate(45 233.686 139.232)" fill="#005CC5"/>
<ellipse cx="182.234" cy="107.678" rx="2.34783" ry="2.34513" transform="rotate(45 182.234 107.678)" fill="#005CC5"/>
<ellipse cx="198.835" cy="124.28" rx="2.34783" ry="2.34513" transform="rotate(45 198.835 124.28)" fill="#005CC5"/>
<ellipse cx="215.436" cy="140.881" rx="2.34783" ry="2.34513" transform="rotate(45 215.436 140.881)" fill="#005CC5"/>
<ellipse cx="232.039" cy="157.483" rx="2.34783" ry="2.34513" transform="rotate(45 232.039 157.483)" fill="#005CC5"/>
<ellipse cx="180.584" cy="125.928" rx="2.34783" ry="2.34513" transform="rotate(45 180.584 125.928)" fill="#005CC5"/>
<ellipse cx="197.186" cy="142.53" rx="2.34783" ry="2.34513" transform="rotate(45 197.186 142.53)" fill="#005CC5"/>
<ellipse cx="213.786" cy="159.132" rx="2.34783" ry="2.34513" transform="rotate(45 213.786 159.132)" fill="#005CC5"/>
<ellipse cx="162.334" cy="127.577" rx="2.34783" ry="2.34513" transform="rotate(45 162.334 127.577)" fill="#005CC5"/>
<ellipse cx="178.936" cy="144.179" rx="2.34783" ry="2.34513" transform="rotate(45 178.936 144.179)" fill="#005CC5"/>
<ellipse cx="195.536" cy="160.78" rx="2.34783" ry="2.34513" transform="rotate(45 195.536 160.78)" fill="#005CC5"/>
<ellipse cx="212.14" cy="177.382" rx="2.34783" ry="2.34513" transform="rotate(45 212.14 177.382)" fill="#005CC5"/>
<ellipse cx="160.686" cy="145.827" rx="2.34783" ry="2.34513" transform="rotate(45 160.686 145.827)" fill="#005CC5"/>
<ellipse cx="177.287" cy="162.429" rx="2.34783" ry="2.34513" transform="rotate(45 177.287 162.429)" fill="#005CC5"/>
<ellipse cx="193.888" cy="179.031" rx="2.34783" ry="2.34513" transform="rotate(45 193.888 179.031)" fill="#005CC5"/>
<ellipse cx="142.435" cy="147.476" rx="2.34783" ry="2.34513" transform="rotate(45 142.435 147.476)" fill="#005CC5"/>
<ellipse cx="159.037" cy="164.078" rx="2.34783" ry="2.34513" transform="rotate(45 159.037 164.078)" fill="#005CC5"/>
<ellipse cx="175.637" cy="180.679" rx="2.34783" ry="2.34513" transform="rotate(45 175.637 180.679)" fill="#005CC5"/>
<ellipse cx="192.24" cy="197.281" rx="2.34783" ry="2.34513" transform="rotate(45 192.24 197.281)" fill="#005CC5"/>
<ellipse cx="209.659" cy="194.802" rx="2.34783" ry="2.34513" transform="rotate(-135 209.659 194.802)" fill="#005CC5"/>
<ellipse cx="229.558" cy="174.903" rx="2.34783" ry="2.34513" transform="rotate(-135 229.558 174.903)" fill="#005CC5"/>
<ellipse cx="249.457" cy="155.004" rx="2.34783" ry="2.34513" transform="rotate(-135 249.457 155.004)" fill="#005CC5"/>
<ellipse cx="273.587" cy="278.629" rx="2.34783" ry="2.34513" transform="rotate(-135 273.587 278.629)" fill="#005CC5"/>
<ellipse cx="256.986" cy="262.027" rx="2.34783" ry="2.34513" transform="rotate(-135 256.986 262.027)" fill="#005CC5"/>
<ellipse cx="240.384" cy="245.426" rx="2.34783" ry="2.34513" transform="rotate(-135 240.384 245.426)" fill="#005CC5"/>
<ellipse cx="223.782" cy="228.824" rx="2.34783" ry="2.34513" transform="rotate(-135 223.782 228.824)" fill="#005CC5"/>
<ellipse cx="207.181" cy="212.223" rx="2.34783" ry="2.34513" transform="rotate(-135 207.181 212.223)" fill="#005CC5"/>
<ellipse cx="291.839" cy="276.98" rx="2.34783" ry="2.34513" transform="rotate(-135 291.839 276.98)" fill="#005CC5"/>
<ellipse cx="275.236" cy="260.379" rx="2.34783" ry="2.34513" transform="rotate(-135 275.236 260.379)" fill="#005CC5"/>
<ellipse cx="258.636" cy="243.777" rx="2.34783" ry="2.34513" transform="rotate(-135 258.636 243.777)" fill="#005CC5"/>
<ellipse cx="242.034" cy="227.175" rx="2.34783" ry="2.34513" transform="rotate(-135 242.034 227.175)" fill="#005CC5"/>
<ellipse cx="225.432" cy="210.574" rx="2.34783" ry="2.34513" transform="rotate(-135 225.432 210.574)" fill="#005CC5"/>
<ellipse cx="293.486" cy="258.73" rx="2.34783" ry="2.34513" transform="rotate(-135 293.486 258.73)" fill="#005CC5"/>
<ellipse cx="276.886" cy="242.128" rx="2.34783" ry="2.34513" transform="rotate(-135 276.886 242.128)" fill="#005CC5"/>
<ellipse cx="260.284" cy="225.527" rx="2.34783" ry="2.34513" transform="rotate(-135 260.284 225.527)" fill="#005CC5"/>
<ellipse cx="243.682" cy="208.925" rx="2.34783" ry="2.34513" transform="rotate(-135 243.682 208.925)" fill="#005CC5"/>
<ellipse cx="227.08" cy="192.323" rx="2.34783" ry="2.34513" transform="rotate(-135 227.08 192.323)" fill="#005CC5"/>
<ellipse cx="311.737" cy="257.081" rx="2.34783" ry="2.34513" transform="rotate(-135 311.737 257.081)" fill="#005CC5"/>
<ellipse cx="295.134" cy="240.48" rx="2.34783" ry="2.34513" transform="rotate(-135 295.134 240.48)" fill="#005CC5"/>
<ellipse cx="278.534" cy="223.878" rx="2.34783" ry="2.34513" transform="rotate(-135 278.534 223.878)" fill="#005CC5"/>
<ellipse cx="261.932" cy="207.276" rx="2.34783" ry="2.34513" transform="rotate(-135 261.932 207.276)" fill="#005CC5"/>
<ellipse cx="245.33" cy="190.675" rx="2.34783" ry="2.34513" transform="rotate(-135 245.33 190.675)" fill="#005CC5"/>
<ellipse cx="313.386" cy="238.831" rx="2.34783" ry="2.34513" transform="rotate(-135 313.386 238.831)" fill="#005CC5"/>
<ellipse cx="296.785" cy="222.229" rx="2.34783" ry="2.34513" transform="rotate(-135 296.785 222.229)" fill="#005CC5"/>
<ellipse cx="280.184" cy="205.628" rx="2.34783" ry="2.34513" transform="rotate(-135 280.184 205.628)" fill="#005CC5"/>
<ellipse cx="263.582" cy="189.026" rx="2.34783" ry="2.34513" transform="rotate(-135 263.582 189.026)" fill="#005CC5"/>
<ellipse cx="246.981" cy="172.424" rx="2.34783" ry="2.34513" transform="rotate(-135 246.981 172.424)" fill="#005CC5"/>
<ellipse cx="331.637" cy="237.182" rx="2.34783" ry="2.34513" transform="rotate(-135 331.637 237.182)" fill="#005CC5"/>
<ellipse cx="315.033" cy="220.58" rx="2.34783" ry="2.34513" transform="rotate(-135 315.033 220.58)" fill="#005CC5"/>
<ellipse cx="298.435" cy="203.979" rx="2.34783" ry="2.34513" transform="rotate(-135 298.435 203.979)" fill="#005CC5"/>
<ellipse cx="281.831" cy="187.377" rx="2.34783" ry="2.34513" transform="rotate(-135 281.831 187.377)" fill="#005CC5"/>
<ellipse cx="265.23" cy="170.776" rx="2.34783" ry="2.34513" transform="rotate(-135 265.23 170.776)" fill="#005CC5"/>
<ellipse cx="260.18" cy="46.3318" rx="2.34783" ry="2.34513" transform="rotate(45 260.18 46.3318)" fill="#005CC5"/>
<ellipse cx="276.783" cy="62.9335" rx="2.34783" ry="2.34513" transform="rotate(45 276.783 62.9335)" fill="#005CC5"/>
<ellipse cx="293.383" cy="79.5351" rx="2.34783" ry="2.34513" transform="rotate(45 293.383 79.5351)" fill="#005CC5"/>
<ellipse cx="241.93" cy="47.9806" rx="2.34783" ry="2.34513" transform="rotate(45 241.93 47.9806)" fill="#005CC5"/>
<ellipse cx="258.532" cy="64.5822" rx="2.34783" ry="2.34513" transform="rotate(45 258.532 64.5822)" fill="#005CC5"/>
<ellipse cx="275.133" cy="81.1838" rx="2.34783" ry="2.34513" transform="rotate(45 275.133 81.1838)" fill="#005CC5"/>
<ellipse cx="291.735" cy="97.7855" rx="2.34783" ry="2.34513" transform="rotate(45 291.735 97.7855)" fill="#005CC5"/>
<ellipse cx="240.281" cy="66.2309" rx="2.34783" ry="2.34513" transform="rotate(45 240.281 66.2309)" fill="#005CC5"/>
<ellipse cx="256.884" cy="82.8326" rx="2.34783" ry="2.34513" transform="rotate(45 256.884 82.8326)" fill="#005CC5"/>
<ellipse cx="273.483" cy="99.4343" rx="2.34783" ry="2.34513" transform="rotate(45 273.483 99.4343)" fill="#005CC5"/>
<ellipse cx="222.03" cy="67.8797" rx="2.34783" ry="2.34513" transform="rotate(45 222.03 67.8797)" fill="#005CC5"/>
<ellipse cx="238.634" cy="84.4813" rx="2.34783" ry="2.34513" transform="rotate(45 238.634 84.4813)" fill="#005CC5"/>
<ellipse cx="255.234" cy="101.083" rx="2.34783" ry="2.34513" transform="rotate(45 255.234 101.083)" fill="#005CC5"/>
<ellipse cx="271.837" cy="117.685" rx="2.34783" ry="2.34513" transform="rotate(45 271.837 117.685)" fill="#005CC5"/>
<ellipse cx="220.383" cy="86.13" rx="2.34783" ry="2.34513" transform="rotate(45 220.383 86.13)" fill="#005CC5"/>
<ellipse cx="236.985" cy="102.732" rx="2.34783" ry="2.34513" transform="rotate(45 236.985 102.732)" fill="#005CC5"/>
<ellipse cx="253.586" cy="119.333" rx="2.34783" ry="2.34513" transform="rotate(45 253.586 119.333)" fill="#005CC5"/>
<ellipse cx="202.132" cy="87.7788" rx="2.34783" ry="2.34513" transform="rotate(45 202.132 87.7788)" fill="#005CC5"/>
<ellipse cx="218.733" cy="104.38" rx="2.34783" ry="2.34513" transform="rotate(45 218.733 104.38)" fill="#005CC5"/>
<ellipse cx="235.334" cy="120.982" rx="2.34783" ry="2.34513" transform="rotate(45 235.334 120.982)" fill="#005CC5"/>
<ellipse cx="251.936" cy="137.584" rx="2.34783" ry="2.34513" transform="rotate(45 251.936 137.584)" fill="#005CC5"/>
<ellipse cx="269.357" cy="135.105" rx="2.34783" ry="2.34513" transform="rotate(-135 269.357 135.105)" fill="#005CC5"/>
<ellipse cx="289.256" cy="115.206" rx="2.34783" ry="2.34513" transform="rotate(-135 289.256 115.206)" fill="#005CC5"/>
<ellipse cx="309.157" cy="95.3067" rx="2.34783" ry="2.34513" transform="rotate(-135 309.157 95.3067)" fill="#005CC5"/>
<ellipse cx="333.284" cy="218.932" rx="2.34783" ry="2.34513" transform="rotate(-135 333.284 218.932)" fill="#005CC5"/>
<ellipse cx="316.683" cy="202.33" rx="2.34783" ry="2.34513" transform="rotate(-135 316.683 202.33)" fill="#005CC5"/>
<ellipse cx="300.082" cy="185.728" rx="2.34783" ry="2.34513" transform="rotate(-135 300.082 185.728)" fill="#005CC5"/>
<ellipse cx="283.479" cy="169.127" rx="2.34783" ry="2.34513" transform="rotate(-135 283.479 169.127)" fill="#005CC5"/>
<ellipse cx="266.879" cy="152.525" rx="2.34783" ry="2.34513" transform="rotate(-135 266.879 152.525)" fill="#005CC5"/>
<ellipse cx="351.535" cy="217.283" rx="2.34783" ry="2.34513" transform="rotate(-135 351.535 217.283)" fill="#005CC5"/>
<ellipse cx="334.933" cy="200.681" rx="2.34783" ry="2.34513" transform="rotate(-135 334.933 200.681)" fill="#005CC5"/>
<ellipse cx="318.333" cy="184.08" rx="2.34783" ry="2.34513" transform="rotate(-135 318.333 184.08)" fill="#005CC5"/>
<ellipse cx="301.731" cy="167.478" rx="2.34783" ry="2.34513" transform="rotate(-135 301.731 167.478)" fill="#005CC5"/>
<ellipse cx="285.129" cy="150.876" rx="2.34783" ry="2.34513" transform="rotate(-135 285.129 150.876)" fill="#005CC5"/>
<ellipse cx="353.185" cy="199.033" rx="2.34783" ry="2.34513" transform="rotate(-135 353.185 199.033)" fill="#005CC5"/>
<ellipse cx="336.583" cy="182.431" rx="2.34783" ry="2.34513" transform="rotate(-135 336.583 182.431)" fill="#005CC5"/>
<ellipse cx="319.982" cy="165.829" rx="2.34783" ry="2.34513" transform="rotate(-135 319.982 165.829)" fill="#005CC5"/>
<ellipse cx="303.378" cy="149.228" rx="2.34783" ry="2.34513" transform="rotate(-135 303.378 149.228)" fill="#005CC5"/>
<ellipse cx="286.778" cy="132.626" rx="2.34783" ry="2.34513" transform="rotate(-135 286.778 132.626)" fill="#005CC5"/>
<ellipse cx="371.436" cy="197.384" rx="2.34783" ry="2.34513" transform="rotate(-135 371.436 197.384)" fill="#005CC5"/>
<ellipse cx="354.832" cy="180.782" rx="2.34783" ry="2.34513" transform="rotate(-135 354.832 180.782)" fill="#005CC5"/>
<ellipse cx="338.231" cy="164.181" rx="2.34783" ry="2.34513" transform="rotate(-135 338.231 164.181)" fill="#005CC5"/>
<ellipse cx="321.63" cy="147.579" rx="2.34783" ry="2.34513" transform="rotate(-135 321.63 147.579)" fill="#005CC5"/>
<ellipse cx="305.027" cy="130.977" rx="2.34783" ry="2.34513" transform="rotate(-135 305.027 130.977)" fill="#005CC5"/>
<ellipse cx="373.083" cy="179.134" rx="2.34783" ry="2.34513" transform="rotate(-135 373.083 179.134)" fill="#005CC5"/>
<ellipse cx="356.482" cy="162.532" rx="2.34783" ry="2.34513" transform="rotate(-135 356.482 162.532)" fill="#005CC5"/>
<ellipse cx="339.881" cy="145.93" rx="2.34783" ry="2.34513" transform="rotate(-135 339.881 145.93)" fill="#005CC5"/>
<ellipse cx="323.277" cy="129.329" rx="2.34783" ry="2.34513" transform="rotate(-135 323.277 129.329)" fill="#005CC5"/>
<ellipse cx="306.678" cy="112.727" rx="2.34783" ry="2.34513" transform="rotate(-135 306.678 112.727)" fill="#005CC5"/>
<ellipse cx="358.131" cy="144.281" rx="2.34783" ry="2.34513" transform="rotate(-135 358.131 144.281)" fill="#005CC5"/>
<ellipse cx="341.529" cy="127.68" rx="2.34783" ry="2.34513" transform="rotate(-135 341.529 127.68)" fill="#005CC5"/>
<ellipse cx="324.926" cy="111.078" rx="2.34783" ry="2.34513" transform="rotate(-135 324.926 111.078)" fill="#005CC5"/>
<ellipse cx="348.238" cy="253.784" rx="2.34783" ry="2.34513" transform="rotate(45 348.238 253.784)" fill="#005CC5"/>
<ellipse cx="364.839" cy="270.385" rx="2.34783" ry="2.34513" transform="rotate(45 364.839 270.385)" fill="#005CC5"/>
<ellipse cx="329.988" cy="255.432" rx="2.34783" ry="2.34513" transform="rotate(45 329.988 255.432)" fill="#005CC5"/>
<ellipse cx="346.59" cy="272.034" rx="2.34783" ry="2.34513" transform="rotate(45 346.59 272.034)" fill="#005CC5"/>
<ellipse cx="363.19" cy="288.636" rx="2.34783" ry="2.34513" transform="rotate(45 363.19 288.636)" fill="#005CC5"/>
<ellipse cx="328.34" cy="273.683" rx="2.34783" ry="2.34513" transform="rotate(45 328.34 273.683)" fill="#005CC5"/>
<ellipse cx="344.938" cy="290.285" rx="2.34783" ry="2.34513" transform="rotate(45 344.938 290.285)" fill="#005CC5"/>
<ellipse cx="361.543" cy="306.886" rx="2.34783" ry="2.34513" transform="rotate(45 361.543 306.886)" fill="#005CC5"/>
<ellipse cx="310.089" cy="275.332" rx="2.34783" ry="2.34513" transform="rotate(45 310.089 275.332)" fill="#005CC5"/>
<ellipse cx="326.69" cy="291.933" rx="2.34783" ry="2.34513" transform="rotate(45 326.69 291.933)" fill="#005CC5"/>
<ellipse cx="343.292" cy="308.535" rx="2.34783" ry="2.34513" transform="rotate(45 343.292 308.535)" fill="#005CC5"/>
<ellipse cx="359.893" cy="325.136" rx="2.34783" ry="2.34513" transform="rotate(45 359.893 325.136)" fill="#005CC5"/>
<ellipse cx="308.44" cy="293.582" rx="2.34783" ry="2.34513" transform="rotate(45 308.44 293.582)" fill="#005CC5"/>
<ellipse cx="325.041" cy="310.184" rx="2.34783" ry="2.34513" transform="rotate(45 325.041 310.184)" fill="#005CC5"/>
<ellipse cx="341.643" cy="326.785" rx="2.34783" ry="2.34513" transform="rotate(45 341.643 326.785)" fill="#005CC5"/>
<ellipse cx="290.189" cy="295.231" rx="2.34783" ry="2.34513" transform="rotate(45 290.189 295.231)" fill="#005CC5"/>
<ellipse cx="306.792" cy="311.832" rx="2.34783" ry="2.34513" transform="rotate(45 306.792 311.832)" fill="#005CC5"/>
<ellipse cx="323.393" cy="328.434" rx="2.34783" ry="2.34513" transform="rotate(45 323.393 328.434)" fill="#005CC5"/>
<ellipse cx="339.995" cy="345.036" rx="2.34783" ry="2.34513" transform="rotate(45 339.995 345.036)" fill="#005CC5"/>
<ellipse cx="357.415" cy="342.557" rx="2.34783" ry="2.34513" transform="rotate(-135 357.415 342.557)" fill="#005CC5"/>
<ellipse cx="369.786" cy="215.634" rx="2.34783" ry="2.34513" transform="rotate(45 369.786 215.634)" fill="#005CC5"/>
<ellipse cx="368.138" cy="233.885" rx="2.34783" ry="2.34513" transform="rotate(45 368.138 233.885)" fill="#005CC5"/>
<ellipse cx="349.888" cy="235.533" rx="2.34783" ry="2.34513" transform="rotate(45 349.888 235.533)" fill="#005CC5"/>
<ellipse cx="366.489" cy="252.135" rx="2.34783" ry="2.34513" transform="rotate(45 366.489 252.135)" fill="#005CC5"/>
</g>
</svg>
