<svg width="431" height="340" viewBox="0 0 431 340" fill="none" xmlns="http://www.w3.org/2000/svg">
<path d="M428.717 135.321L386.396 93L344 135.311L386.322 177.632L428.717 135.321Z" stroke="white" stroke-width="2" stroke-miterlimit="10"/>
<path d="M400.66 70.4311L351.037 23.8077L285.349 42.8806L270.339 109.569L319.963 156.192L385.651 137.119L400.66 70.4311Z" stroke="#2188FF" stroke-width="2" stroke-miterlimit="10"/>
<ellipse cx="4.36765" cy="170" rx="4.36765" ry="4.33334" fill="#005CC5"/>
<ellipse cx="48.0439" cy="170" rx="4.36765" ry="4.33334" fill="#005CC5"/>
<ellipse cx="91.7199" cy="170" rx="4.36765" ry="4.33334" fill="#005CC5"/>
<ellipse cx="135.397" cy="170" rx="4.36765" ry="4.33334" fill="#005CC5"/>
<ellipse cx="179.074" cy="170" rx="4.36765" ry="4.33334" fill="#005CC5"/>
<ellipse cx="26.2058" cy="196" rx="4.36765" ry="4.33334" fill="#005CC5"/>
<ellipse cx="69.882" cy="196" rx="4.36765" ry="4.33334" fill="#005CC5"/>
<ellipse cx="113.559" cy="196" rx="4.36765" ry="4.33334" fill="#005CC5"/>
<ellipse cx="157.235" cy="196" rx="4.36765" ry="4.33334" fill="#005CC5"/>
<ellipse cx="200.912" cy="196" rx="4.36765" ry="4.33334" fill="#005CC5"/>
<ellipse cx="4.36765" cy="222" rx="4.36765" ry="4.33334" fill="#005CC5"/>
<ellipse cx="48.0439" cy="222" rx="4.36765" ry="4.33334" fill="#005CC5"/>
<ellipse cx="91.7199" cy="222" rx="4.36765" ry="4.33334" fill="#005CC5"/>
<ellipse cx="135.397" cy="222" rx="4.36765" ry="4.33334" fill="#005CC5"/>
<ellipse cx="179.074" cy="222" rx="4.36765" ry="4.33334" fill="#005CC5"/>
<ellipse cx="26.2058" cy="248" rx="4.36765" ry="4.33334" fill="#005CC5"/>
<ellipse cx="69.882" cy="248" rx="4.36765" ry="4.33334" fill="#005CC5"/>
<ellipse cx="113.559" cy="248" rx="4.36765" ry="4.33334" fill="#005CC5"/>
<ellipse cx="157.235" cy="248" rx="4.36765" ry="4.33334" fill="#005CC5"/>
<ellipse cx="200.912" cy="248" rx="4.36765" ry="4.33334" fill="#005CC5"/>
<ellipse cx="4.36765" cy="274" rx="4.36765" ry="4.33334" fill="#005CC5"/>
<ellipse cx="48.0439" cy="274" rx="4.36765" ry="4.33334" fill="#005CC5"/>
<ellipse cx="91.7199" cy="274" rx="4.36765" ry="4.33334" fill="#005CC5"/>
<ellipse cx="135.397" cy="274" rx="4.36765" ry="4.33334" fill="#005CC5"/>
<ellipse cx="179.074" cy="274" rx="4.36765" ry="4.33334" fill="#005CC5"/>
<path d="M209.648 200.333C200.912 200.333 200.912 183 192.177 183C183.442 183 183.442 200.333 174.707 200.333C165.971 200.333 165.971 183 157.236 183C148.501 183 148.501 200.333 139.765 200.333C131.03 200.333 131.03 183 122.295 183" stroke="#79B8FF" stroke-width="2" stroke-linecap="round" stroke-linejoin="round"/>
<path d="M297 252.334C279.529 252.334 279.529 217.667 262.059 217.667C244.588 217.667 244.588 252.334 227.118 252.334C209.647 252.334 209.647 217.667 192.176 217.667C174.706 217.667 174.706 252.334 157.235 252.334C139.765 252.334 139.765 217.667 122.294 217.667" stroke="#79B8FF" stroke-width="2" stroke-linecap="round" stroke-linejoin="round"/>
<rect x="52.4119" y="131" width="69.8824" height="52.0001" stroke="#79B8FF" stroke-width="2" stroke-linejoin="round"/>
<rect x="52.4119" y="261" width="69.8824" height="34.6667" stroke="#79B8FF" stroke-width="2" stroke-linejoin="round"/>
<rect x="52.4119" y="304.333" width="69.8824" height="34.6667" stroke="#79B8FF" stroke-width="2" stroke-linejoin="round"/>
<rect x="52.4119" y="183" width="69.8824" height="34.6667" stroke="#79B8FF" stroke-width="2" stroke-linejoin="round"/>
<rect x="52.4119" y="217.667" width="69.8824" height="34.6667" stroke="#79B8FF" stroke-width="2" stroke-linejoin="round"/>
</svg>
