<svg viewBox="0 0 426 309" fill="none" xmlns="http://www.w3.org/2000/svg">
<path d="M423.97 98.0735L386.144 60.2471L348.252 98.064L386.078 135.89L423.97 98.0735Z" stroke="#C8E1FF" stroke-width="2" stroke-miterlimit="10"/>
<path fill-rule="evenodd" clip-rule="evenodd" d="M315.533 0.151367L375.489 34.767L376.133 104.282L315.532 138.436L255.576 103.821L254.932 34.3062L315.533 0.151367ZM315.52 2.45349L256.944 35.4675L257.566 102.66L315.545 136.134L374.122 103.12L373.499 35.9275L315.52 2.45349Z" fill="#2188FF"/>
<ellipse cx="4.36765" cy="139" rx="4.36765" ry="4.33334" fill="#005CC5"/>
<ellipse cx="48.0439" cy="139" rx="4.36765" ry="4.33334" fill="#005CC5"/>
<ellipse cx="91.7202" cy="139" rx="4.36765" ry="4.33334" fill="#005CC5"/>
<ellipse cx="135.397" cy="139" rx="4.36765" ry="4.33334" fill="#005CC5"/>
<ellipse cx="179.074" cy="139" rx="4.36765" ry="4.33334" fill="#005CC5"/>
<ellipse cx="26.206" cy="165" rx="4.36765" ry="4.33334" fill="#005CC5"/>
<ellipse cx="69.8818" cy="165" rx="4.36765" ry="4.33334" fill="#005CC5"/>
<ellipse cx="113.559" cy="165" rx="4.36765" ry="4.33334" fill="#005CC5"/>
<ellipse cx="157.235" cy="165" rx="4.36765" ry="4.33334" fill="#005CC5"/>
<ellipse cx="200.912" cy="165" rx="4.36765" ry="4.33334" fill="#005CC5"/>
<ellipse cx="4.36765" cy="191" rx="4.36765" ry="4.33334" fill="#005CC5"/>
<ellipse cx="48.0439" cy="191" rx="4.36765" ry="4.33334" fill="#005CC5"/>
<ellipse cx="91.7202" cy="191" rx="4.36765" ry="4.33334" fill="#005CC5"/>
<ellipse cx="135.397" cy="191" rx="4.36765" ry="4.33334" fill="#005CC5"/>
<ellipse cx="179.074" cy="191" rx="4.36765" ry="4.33334" fill="#005CC5"/>
<ellipse cx="26.206" cy="217" rx="4.36765" ry="4.33334" fill="#005CC5"/>
<ellipse cx="69.8818" cy="217" rx="4.36765" ry="4.33334" fill="#005CC5"/>
<ellipse cx="113.559" cy="217" rx="4.36765" ry="4.33334" fill="#005CC5"/>
<ellipse cx="157.235" cy="217" rx="4.36765" ry="4.33334" fill="#005CC5"/>
<ellipse cx="200.912" cy="217" rx="4.36765" ry="4.33334" fill="#005CC5"/>
<ellipse cx="4.36765" cy="243" rx="4.36765" ry="4.33334" fill="#005CC5"/>
<ellipse cx="48.0439" cy="243" rx="4.36765" ry="4.33334" fill="#005CC5"/>
<ellipse cx="91.7202" cy="243" rx="4.36765" ry="4.33334" fill="#005CC5"/>
<ellipse cx="135.397" cy="243" rx="4.36765" ry="4.33334" fill="#005CC5"/>
<ellipse cx="179.074" cy="243" rx="4.36765" ry="4.33334" fill="#005CC5"/>
<path d="M209.647 157.333C200.912 157.333 200.912 140 192.177 140C183.442 140 183.442 157.333 174.706 157.333C165.971 157.333 165.971 140 157.236 140C148.5 140 148.5 157.333 139.765 157.333C131.03 157.333 131.03 140 122.295 140" stroke="#79B8FF" stroke-width="2" stroke-linecap="round" stroke-linejoin="round"/>
<path d="M297 209.333C279.529 209.333 279.529 174.667 262.059 174.667C244.588 174.667 244.588 209.333 227.118 209.333C209.647 209.333 209.647 174.667 192.176 174.667C174.706 174.667 174.706 209.333 157.235 209.333C139.765 209.333 139.765 174.667 122.294 174.667" stroke="#79B8FF" stroke-width="2" stroke-linecap="round" stroke-linejoin="round"/>
<rect x="52.4121" y="100" width="69.8824" height="52.0001" stroke="#79B8FF" stroke-width="2" stroke-linejoin="round"/>
<rect x="52.4121" y="230" width="69.8824" height="34.6667" stroke="#79B8FF" stroke-width="2" stroke-linejoin="round"/>
<rect x="52.4121" y="273.333" width="69.8824" height="34.6667" stroke="#79B8FF" stroke-width="2" stroke-linejoin="round"/>
<rect x="52.4121" y="152" width="69.8824" height="34.6667" stroke="#79B8FF" stroke-width="2" stroke-linejoin="round"/>
<rect x="52.4121" y="186.667" width="69.8824" height="34.6667" stroke="#79B8FF" stroke-width="2" stroke-linejoin="round"/>
</svg>
