<svg width="489" height="297" viewBox="0 0 489 297" fill="none" xmlns="http://www.w3.org/2000/svg">
<g clip-path="url(#clip0)">
<path d="M129 71L125 77.9282H117L113 71L117 64.0718H125L129 71Z" stroke="#2188FF" stroke-width="2" stroke-linecap="round" stroke-linejoin="round"/>
<path fill-rule="evenodd" clip-rule="evenodd" d="M460.975 78.275C461.6 77.65 461.6 76.6 460.975 75.975C460.175 75.15 459.775 74.075 459.775 73C459.775 71.925 460.175 70.85 460.975 70.025C461.6 69.375 461.6 68.35 460.975 67.725C460.675 67.4 460.25 67.25 459.85 67.25C459.45 67.25 459.025 67.4 458.725 67.725C457.3 69.175 456.6 71.1 456.6 73C456.6 74.9 457.325 76.825 458.725 78.275C459.35 78.9 460.375 78.9 460.975 78.275ZM454.825 64.3C454.5 63.975 454.1 63.825 453.675 63.825C453.275 63.825 452.85 63.975 452.525 64.3C450.2 66.7 449.025 69.85 449.025 72.975C449.025 76.125 450.2 79.275 452.525 81.675C453.15 82.325 454.175 82.325 454.8 81.675C455.425 81.025 455.425 79.975 454.8 79.325C453.1 77.575 452.25 75.275 452.25 72.975C452.25 70.675 453.1 68.375 454.8 66.625C455.45 66 455.45 64.95 454.825 64.3ZM469.05 77.05C471.3 77.05 473.1 75.225 473.1 73C473.1 70.75 471.275 68.95 469.05 68.95C466.8 68.95 465 70.775 465 73C464.975 75.225 466.8 77.05 469.05 77.05ZM485.475 64.325C484.85 63.675 483.825 63.675 483.2 64.325C482.575 64.975 482.575 66.025 483.2 66.675C484.9 68.425 485.75 70.725 485.75 73.025C485.75 75.325 484.9 77.6 483.2 79.375C482.575 80.025 482.575 81.075 483.2 81.725C483.525 82.05 483.925 82.2 484.35 82.2C484.75 82.2 485.175 82.05 485.5 81.725C487.825 79.325 489 76.175 489 73.025C488.975 69.875 487.8 66.725 485.475 64.325ZM469.05 80.3C468.025 80.3 466.975 80.05 466.05 79.55L458.175 100.475H461.9L464.05 97.975H474.05L476.15 100.475H479.875L472.025 79.55C471.075 80.05 470.075 80.3 469.05 80.3ZM469.025 81.5L471.55 90.5H466.55L469.025 81.5ZM464.05 95.475L466.55 92.975H471.55L474.05 95.475H464.05ZM477.025 67.725C476.4 68.35 476.4 69.4 477.025 70.025C477.825 70.85 478.225 71.925 478.225 73C478.225 74.075 477.825 75.15 477.025 75.975C476.4 76.625 476.4 77.65 477.025 78.275C477.325 78.6 477.75 78.75 478.15 78.75C478.55 78.75 478.95 78.6 479.275 78.275C480.7 76.825 481.4 74.9 481.4 73C481.4 71.1 480.7 69.175 479.275 67.725C478.65 67.1 477.625 67.1 477.025 67.725Z" fill="#79B8FF"/>
<path d="M53.9998 274C53.9998 225 76 130 170 130C285 130 277 226 345 226C400.001 226 406.022 137.017 318 71.0002C229.977 4.98302 469 -47.9999 469 71.0003" stroke="#C8E1FF"/>
<rect x="32" y="215" width="16" height="32" fill="#044289"/>
<rect x="72" y="215" width="97" height="32" fill="#044289"/>
<rect x="185" y="215" width="27" height="32" fill="#044289"/>
<rect y="159" width="16" height="40" fill="#005CC5"/>
<rect x="32" y="159" width="78" height="40" fill="#005CC5"/>
<rect x="328" y="211" width="31" height="28" fill="#1B1F23"/>
<path fill-rule="evenodd" clip-rule="evenodd" d="M338.5 212.5H341V215H338.5V212.5ZM333.5 212.5H336V215H333.5V212.5ZM328.5 212.5H331V215H328.5V212.5ZM358.5 237.5H328.5V217.5H358.5V237.5ZM358.5 215H343.5V212.5H358.5V215ZM361 212.5C361 211.125 359.875 210 358.5 210H328.5C327.125 210 326 211.125 326 212.5V237.5C326 238.875 327.125 240 328.5 240H358.5C359.875 240 361 238.875 361 237.5V212.5Z" fill="#79B8FF"/>
<path fill-rule="evenodd" clip-rule="evenodd" d="M56.5 286.5H55C55.825 286.5 56.5 285.825 56.5 285V283.5C56.5 282.675 55.825 282 55 282H53.5C52.675 282 52 282.675 52 283.5V285C52 285.825 52.675 286.5 53.5 286.5H52C51.175 286.5 50.5 287.175 50.5 288V291H52V295.5C52 296.325 52.675 297 53.5 297H55C55.825 297 56.5 296.325 56.5 295.5V291H58V288C58 287.175 57.325 286.5 56.5 286.5ZM53.5 283.5H55V285H53.5V283.5ZM56.5 289.5H55V295.5H53.5V289.5H52V288H56.5V289.5ZM59.635 284.25C59.635 281.28 57.22 278.865 54.25 278.865C51.28 278.865 48.865 281.28 48.865 284.25C48.865 284.67 48.91 285.075 49 285.465V288.435C48.085 287.28 47.5 285.84 47.5 284.235C47.5 280.515 50.53 277.485 54.25 277.485C57.97 277.485 61 280.515 61 284.235C61 285.825 60.415 287.28 59.5 288.435V285.465C59.59 285.06 59.635 284.67 59.635 284.25ZM65.5 284.25C65.5 288.57 63.055 292.32 59.5 294.195V292.62C62.29 290.88 64.135 287.79 64.135 284.25C64.135 278.79 59.71 274.365 54.25 274.365C48.79 274.365 44.365 278.79 44.365 284.25C44.365 287.79 46.21 290.88 49 292.62V294.195C45.445 292.32 43 288.57 43 284.25C43 278.04 48.04 273 54.25 273C60.46 273 65.5 278.04 65.5 284.25Z" fill="#79B8FF"/>
<rect width="19.5819" height="16" transform="matrix(-1 0 0 1 338 71)" fill="#044289"/>
<rect width="19.9815" height="16" transform="matrix(-1 0 0 1 278.854 71)" fill="#044289"/>
<rect width="20.3812" height="16" transform="matrix(-1 0 0 1 242.887 71)" fill="#044289"/>
<rect width="7.59298" height="16" transform="matrix(-1 0 0 1 302.432 71)" fill="#044289"/>
<circle cx="428" cy="127" r="12" fill="#1B1F23" stroke="#C8E1FF"/>
<path d="M469 232L453 232L461 218L469 232Z" stroke="#2188FF" stroke-width="2" stroke-linejoin="round"/>
<path d="M401 43C397 43 397 35 393 35C389 35 389 43 385 43C381 43 381 35 377 35C373 35 373 43 369 43C365 43 365 35 361 35" stroke="#2188FF" stroke-width="2" stroke-linecap="round" stroke-linejoin="round"/>
<path d="M256 287C256 283 264 283 264 279C264 275 256 275 256 271C256 267 264 267 264 263C264 259 256 259 256 255C256 251 264 251 264 247" stroke="#C8E1FF" stroke-linecap="round" stroke-linejoin="round"/>
<rect width="24" height="24" transform="matrix(0.707107 -0.707107 0.706902 0.707311 15 153.971)" stroke="#C8E1FF" stroke-linejoin="round"/>
</g>
<defs>
<clipPath id="clip0">
<rect width="489" height="297" fill="white"/>
</clipPath>
</defs>
</svg>
