<svg width="435" height="241" viewBox="0 0 435 241" fill="none" xmlns="http://www.w3.org/2000/svg">
<rect y="93.1458" width="21" height="38" fill="#044289"/>
<rect x="58" y="93.1458" width="99" height="38" fill="#044289"/>
<rect x="43" y="170.146" width="20" height="19" fill="#05264C"/>
<rect x="101" y="170.146" width="78" height="19" fill="#05264C"/>
<rect x="212" y="170.146" width="39" height="19" fill="#05264C"/>
<rect x="265" y="170.146" width="145" height="19" fill="#05264C"/>
<rect x="194" y="93.1458" width="58" height="38" fill="#044289"/>
<rect x="291" y="93.1458" width="39" height="38" fill="#044289"/>
<path d="M349.426 181.529L321.713 229.211L294 181.529L349.426 181.529Z" stroke="#2188FF" stroke-width="2" stroke-linecap="round" stroke-linejoin="round"/>
<path d="M433.47 63.894C417.523 63.947 417.629 32.053 401.682 32.106C385.735 32.1589 385.629 64.053 369.682 64.106C353.735 64.1589 353.841 32.2649 337.894 32.3179C321.947 32.3709 321.841 64.2649 305.894 64.3179C289.947 64.3709 290.053 32.4768 274.106 32.5298" stroke="#2188FF" stroke-width="2" stroke-linecap="round" stroke-linejoin="round"/>
<path d="M371.47 106.701C355.523 106.754 355.629 74.8599 339.682 74.9128C323.735 74.9658 323.629 106.86 307.682 106.913C291.735 106.966 291.841 75.0718 275.894 75.1248C259.947 75.1777 259.841 107.072 243.894 107.125C227.947 107.178 228.053 75.2837 212.106 75.3367" stroke="#79B8FF" stroke-width="2" stroke-linecap="round" stroke-linejoin="round"/>
<path d="M126.315 124.141L107.174 105L87.9998 124.136L107.141 143.277L126.315 124.141Z" stroke="#DBEDFF" stroke-width="2" stroke-miterlimit="10"/>
<path d="M184 32L168 59.7128L136 59.7128L120 32L136 4.28719L168 4.28719L184 32Z" stroke="#79B8FF" stroke-width="2" stroke-linecap="round" stroke-linejoin="round"/>
</svg>
