<svg width="434" height="243" viewBox="0 0 434 243" fill="none" xmlns="http://www.w3.org/2000/svg">
<path d="M91 32L75 59.7128H43L27 32L43 4.28719L75 4.28719L91 32Z" stroke="#79B8FF" stroke-width="2" stroke-linecap="round" stroke-linejoin="round"/>
<rect y="97.1458" width="21" height="38" fill="#044289"/>
<rect x="58" y="97.1458" width="99" height="38" fill="#044289"/>
<rect x="42" y="174.146" width="20" height="19" fill="#05264C"/>
<rect x="100" y="174.146" width="78" height="19" fill="#05264C"/>
<rect x="204" y="174.146" width="39" height="19" fill="#05264C"/>
<rect x="257" y="174.146" width="145" height="19" fill="#05264C"/>
<rect x="193" y="97.1458" width="58" height="38" fill="#044289"/>
<rect x="290" y="97.1458" width="39" height="38" fill="#044289"/>
<path d="M349.426 183.675L321.713 231.357L294 183.675L349.426 183.675Z" stroke="#2188FF" stroke-width="2" stroke-linecap="round" stroke-linejoin="round"/>
<path d="M432.47 67.894C416.523 67.947 416.629 36.053 400.682 36.106C384.735 36.1589 384.629 68.053 368.682 68.106C352.735 68.1589 352.841 36.2649 336.894 36.3179C320.947 36.3709 320.841 68.2649 304.894 68.3179C288.947 68.3709 289.053 36.4768 273.106 36.5298" stroke="#2188FF" stroke-width="2" stroke-linecap="round" stroke-linejoin="round"/>
<path d="M370.47 110.701C354.523 110.754 354.629 78.8599 338.682 78.9128C322.735 78.9658 322.629 110.86 306.682 110.913C290.735 110.966 290.841 79.0718 274.894 79.1248C258.947 79.1777 258.841 111.072 242.894 111.125C226.947 111.178 227.053 79.2837 211.106 79.3367" stroke="#79B8FF" stroke-width="2" stroke-linecap="round" stroke-linejoin="round"/>
<path d="M182.316 65.1411L163.175 46L144 65.1363L163.141 84.2774L182.316 65.1411Z" stroke="#C8E1FF" stroke-width="2" stroke-miterlimit="10"/>
</svg>
