<svg width="522" height="156" viewBox="0 0 522 156" fill="none" xmlns="http://www.w3.org/2000/svg">
<path d="M278 31.9999L273 40.6602H263L258 31.9999L263 23.3397H273L278 31.9999Z" stroke="#0366D6" stroke-linecap="round" stroke-linejoin="round"/>
<circle cx="272" cy="21.9999" r="5.5" stroke="#0366D6"/>
<path d="M91 79.9999C85.3431 74.3431 96.6569 63.0294 91 57.3725C85.3431 51.7157 74.0294 63.0294 68.3726 57.3725C62.7157 51.7157 74.0294 40.4019 68.3726 34.7451C62.7157 29.0882 51.402 40.4019 45.7452 34.7451C40.0883 29.0882 51.402 17.7745 45.7452 12.1177" stroke="#2188FF" stroke-linecap="round" stroke-linejoin="round"/>
<path d="M57.5684 68.8822C51.9115 63.2254 63.2252 51.9117 57.5684 46.2548C51.9115 40.598 40.5978 51.9117 34.9409 46.2548C29.2841 40.598 40.5978 29.2843 34.9409 23.6274C29.2841 17.9706 17.9704 29.2843 12.3135 23.6274C6.65667 17.9706 17.9704 6.65685 12.3135 0.999998" stroke="#0366D6" stroke-linecap="round" stroke-linejoin="round"/>
<circle cx="125" cy="41" r="2" fill="#044289"/>
<circle cx="145" cy="41" r="2" fill="#044289"/>
<circle cx="165" cy="41" r="2" fill="#044289"/>
<circle cx="185" cy="41" r="2" fill="#044289"/>
<circle cx="205" cy="41" r="2" fill="#044289"/>
<circle cx="135" cy="53" r="2" fill="#044289"/>
<circle cx="155" cy="53" r="2" fill="#044289"/>
<circle cx="175" cy="53" r="2" fill="#044289"/>
<circle cx="195" cy="53" r="2" fill="#044289"/>
<circle cx="215" cy="53" r="2" fill="#044289"/>
<circle cx="125" cy="65" r="2" fill="#044289"/>
<circle cx="145" cy="65" r="2" fill="#044289"/>
<circle cx="165" cy="65" r="2" fill="#044289"/>
<circle cx="185" cy="65" r="2" fill="#044289"/>
<circle cx="205" cy="65" r="2" fill="#044289"/>
<circle cx="135" cy="77" r="2" fill="#044289"/>
<circle cx="155" cy="77" r="2" fill="#044289"/>
<circle cx="175" cy="77" r="2" fill="#044289"/>
<circle cx="195" cy="77" r="2" fill="#044289"/>
<circle cx="215" cy="77" r="2" fill="#044289"/>
<circle cx="125" cy="89" r="2" fill="#044289"/>
<circle cx="145" cy="89" r="2" fill="#044289"/>
<circle cx="165" cy="89" r="2" fill="#044289"/>
<circle cx="185" cy="89" r="2" fill="#044289"/>
<circle cx="205" cy="89" r="2" fill="#044289"/>
<circle cx="135" cy="101" r="2" fill="#044289"/>
<circle cx="155" cy="101" r="2" fill="#044289"/>
<circle cx="175" cy="101" r="2" fill="#044289"/>
<circle cx="195" cy="101" r="2" fill="#044289"/>
<circle cx="215" cy="101" r="2" fill="#044289"/>
<circle cx="125" cy="113" r="2" fill="#044289"/>
<circle cx="145" cy="113" r="2" fill="#044289"/>
<circle cx="165" cy="113" r="2" fill="#044289"/>
<circle cx="185" cy="113" r="2" fill="#044289"/>
<circle cx="205" cy="113" r="2" fill="#044289"/>
<rect x="23" y="62" width="48" height="32" fill="#032F62"/>
<rect x="102" y="62" width="17" height="32" fill="#032F62"/>
<rect x="150" y="62" width="82" height="32" fill="#032F62"/>
<rect x="138" y="126" width="16" height="16" fill="#05264C"/>
<rect x="186" y="126" width="64" height="16" fill="#05264C"/>
<rect x="282" y="126" width="32" height="16" fill="#05264C"/>
<rect x="346" y="126" width="120" height="16" fill="#05264C"/>
<rect x="498" y="126" width="24" height="16" fill="#05264C"/>
<rect x="263" y="62" width="48" height="32" fill="#032F62"/>
<rect x="343" y="62" width="48" height="32" fill="#032F62"/>
<circle cx="390" cy="98" r="9.5" stroke="#044289"/>
<circle cx="407" cy="79" r="5.5" stroke="#044289"/>
<path d="M499 155C491 155 491 139 483 139C475 139 475 155 467 155C459 155 459 139 451 139C443 139 443 155 435 155C427 155 427 139 419 139" stroke="#044289" stroke-linecap="round" stroke-linejoin="round"/>
<path d="M159.713 89.8564L145.856 113.856L132 89.8564L159.713 89.8564Z" stroke="#2188FF" stroke-linecap="round" stroke-linejoin="round"/>
</svg>
