<svg width="95" viewBox="80 5 50 180" fill="none" xmlns="http://www.w3.org/2000/svg">
  <rect stroke="#fff" stroke-width="2" x="80" y="5" width="50" height="180" visibility="hidden" />
  <g transform="translate(0,0)">
    <path fill-rule="evenodd" clip-rule="evenodd" d="M111.247 190C117.29 180.642 126 146.951 126 120.351C126 85.4048 112.136 68.0005 106 68.0005C99.8637 68.0005 86 85.4048 86 120.351C86 146.951 94.7101 180.642 100.753 190H111.247Z" fill="#005CC5"/>
    <g mask="url(#mask0)">
      <path fill-rule="evenodd" clip-rule="evenodd" d="M106.889 90.761C106.889 86.487 103.506 83.0222 99.3336 83.0222C95.1608 83.0222 91.7781 86.487 91.7781 90.761V105.328C91.7781 109.602 95.1608 113.067 99.3336 113.067C103.506 113.067 106.889 109.602 106.889 105.328V90.761ZM99.3336 83.9327C103.016 83.9327 106 86.9898 106 90.761V105.328C106 109.099 103.016 112.157 99.3336 112.157C95.6517 112.157 92.667 109.099 92.667 105.328V90.761C92.667 86.9898 95.6517 83.9327 99.3336 83.9327Z" fill="#79B8FF"/>
      <path fill-rule="evenodd" clip-rule="evenodd" d="M110.445 96.6789C110.445 89.1365 104.475 83.0222 97.1114 83.0222C89.7476 83.0222 83.7781 89.1365 83.7781 96.6789V113.977C83.7781 121.52 89.7476 127.634 97.1114 127.634C104.475 127.634 110.445 121.52 110.445 113.977V96.6789ZM97.1114 83.9327C103.984 83.9327 109.556 89.6394 109.556 96.6789V113.977C109.556 121.017 103.984 126.724 97.1114 126.724C90.2385 126.724 84.667 121.017 84.667 113.977V96.6789C84.667 89.6394 90.2385 83.9327 97.1114 83.9327Z" fill="#79B8FF"/>
      <path fill-rule="evenodd" clip-rule="evenodd" d="M126 131.731H113.556C107.174 131.731 102 137.03 102 143.567V196.373C102 202.91 107.174 208.209 113.556 208.209H126C132.382 208.209 137.556 202.91 137.556 196.373V143.567C137.556 137.03 132.382 131.731 126 131.731ZM126 132.642C131.891 132.642 136.667 137.533 136.667 143.567V196.373C136.667 202.407 131.891 207.298 126 207.298H113.556C107.665 207.298 102.889 202.407 102.889 196.373V143.567C102.889 137.533 107.665 132.642 113.556 132.642H126Z" fill="#79B8FF"/>
      <path fill-rule="evenodd" clip-rule="evenodd" d="M124.223 142.657H117.111C112.693 142.657 109.111 146.325 109.111 150.851V175.433C109.111 179.958 112.693 183.627 117.111 183.627H124.223C128.641 183.627 132.223 179.958 132.223 175.433V150.851C132.223 146.325 128.641 142.657 124.223 142.657ZM124.223 143.567C128.15 143.567 131.334 146.828 131.334 150.851V175.433C131.334 179.455 128.15 182.716 124.223 182.716H117.111C113.184 182.716 110 179.455 110 175.433V150.851C110 146.828 113.184 143.567 117.111 143.567H124.223Z" fill="#79B8FF"/>
      <path fill-rule="evenodd" clip-rule="evenodd" d="M124.223 150.851H119.778C116.342 150.851 113.556 153.704 113.556 157.224V170.88C113.556 174.4 116.342 177.254 119.778 177.254H124.223C127.659 177.254 130.445 174.4 130.445 170.88V157.224C130.445 153.704 127.659 150.851 124.223 150.851ZM124.223 151.761C127.168 151.761 129.556 154.207 129.556 157.224V170.88C129.556 173.897 127.168 176.343 124.223 176.343H119.778C116.833 176.343 114.445 173.897 114.445 170.88V157.224C114.445 154.207 116.833 151.761 119.778 151.761H124.223Z" fill="#79B8FF"/>
    </g>
    <path fill-rule="evenodd" clip-rule="evenodd" d="M123.26 95.3132H88.74C93.0974 77.0872 101.566 68 106 68C110.434 68 118.903 77.0872 123.26 95.3132Z" fill="#044289"/>
    <path d="M128 48.0571C128 60.1758 118.15 70 106 70C93.8497 70 84 60.1758 84 48.0571C84 33.8857 105.083 16.9714 106 6C106.917 16.9714 128 34.3429 128 48.0571Z" fill="#005CC5" stroke="#005CC5" stroke-width="2" stroke-linecap="round" stroke-linejoin="round"/>
    <g mask="url(#mask1)">
      <circle cx="98.9863" cy="53.9714" r="24" fill="#79B8FF" stroke="#79B8FF" stroke-width="2"/>
    </g>
  </g>
  <mask id="mask0" mask-type="alpha" maskUnits="userSpaceOnUse" x="86" y="68" width="40" height="122">
    <path fill-rule="evenodd" clip-rule="evenodd" d="M111.247 190C117.29 180.642 126 146.951 126 120.351C126 85.4048 112.136 68.0005 106 68.0005C99.8637 68.0005 86 85.4048 86 120.351C86 146.951 94.7101 180.642 100.753 190H111.247Z" fill="#005CC5"/>
  </mask>
  <mask id="mask1" mask-type="alpha" maskUnits="userSpaceOnUse" x="83" y="5" width="46" height="67">
    <path d="M128 48.0571C128 60.1758 118.15 70 106 70C93.8497 70 84 60.1758 84 48.0571C84 33.8857 105.083 16.9714 106 6C106.917 16.9714 128 34.3429 128 48.0571Z" fill="#C8E1FF" stroke="#C8E1FF" stroke-width="2"/>
  </mask>
</svg>
