<svg width="400" height="220" viewBox="0 0 400 220" fill="none" xmlns="http://www.w3.org/2000/svg">
<rect width="400" height="220" fill="#1B1F23"/>
<rect x="115" y="25" width="170" height="170" fill="#1B1F23" stroke="#79B8FF"/>
<circle cx="130.597" cy="117.49" r="3.66652" stroke="#C8E1FF"/>
<circle cx="255.666" cy="92.6387" r="7.33303" fill="#1B1F23" stroke="#C8E1FF"/>
<rect x="222.26" y="160.673" width="20.3695" height="16.2956" fill="#044289"/>
<rect x="258.925" y="160.673" width="28.5173" height="16.2956" fill="#044289"/>
<rect x="106.19" y="63.7139" width="43.1834" height="19.5548" fill="#005CC5"/>
<path d="M165.632 51.8996C201.686 20.5305 236.722 77.9725 190.076 91.4165C143.429 104.86 135.485 135.461 154.633 144.785C173.78 154.109 198.984 149.771 222.259 136.229C244.666 123.193 256.645 140.596 249.962 152.118" stroke="#C8E1FF"/>
<path d="M241.203 61.677L238.555 56.7883L241.203 51.8997L246.499 51.8997L249.147 56.7883L246.499 61.677H241.203Z" stroke="#2188FF" stroke-width="2" stroke-linecap="round" stroke-linejoin="round"/>
<path d="M157.892 170.45L151.374 170.45L154.633 164.747L157.892 170.45Z" stroke="#2188FF" stroke-width="2" stroke-linejoin="round"/>
<path fill-rule="evenodd" clip-rule="evenodd" d="M246.777 149.829V150.741L247.347 151.881L242.217 155.301H237.886C237.384 155.301 237.122 155.906 237.498 156.282L241.077 159.861L236.518 165.561L242.217 161.001L245.796 164.581C246.173 164.957 246.777 164.684 246.777 164.193V159.861L250.196 154.731L251.336 155.301H252.248C252.749 155.301 253.012 154.697 252.635 154.321L247.757 149.442C247.381 149.065 246.777 149.339 246.777 149.829Z" fill="#79B8FF"/>
<path fill-rule="evenodd" clip-rule="evenodd" d="M152.188 137.757H148.603L151.292 131.341L143.226 139.59H146.811L144.122 146.007L152.188 137.757Z" fill="#79B8FF"/>
<path fill-rule="evenodd" clip-rule="evenodd" d="M137.93 71.8983V79.0915H145.123L164.305 59.9096L157.112 52.7164L137.93 71.8983ZM145.123 76.6937H140.327V71.8982H142.725V74.2959H145.123V76.6937ZM169.82 54.3948L166.702 57.5119L159.509 50.3186L162.626 47.2016C163.561 46.2665 165.072 46.2665 166.007 47.2016L169.82 51.014C170.755 51.9491 170.755 53.4597 169.82 54.3948Z" fill="#79B8FF"/>
<path d="M228.37 111.379C226.293 111.379 226.293 107.305 224.215 107.305C222.137 107.305 222.137 111.379 220.059 111.379C217.982 111.379 217.982 107.305 215.904 107.305C213.826 107.305 213.826 111.379 211.749 111.379C209.671 111.379 209.671 107.305 207.593 107.305" stroke="#2188FF" stroke-width="2" stroke-linecap="round" stroke-linejoin="round"/>
</svg>
