<svg width="100%" viewBox="0 0 305 187" fill="none" xmlns="http://www.w3.org/2000/svg">
  <path d="M8.30469 6.95312V5.46094L1.58594 9.42188V10.5781L8.30469 14.5391V13.0469L2.92969 10.0703V9.92969L8.30469 6.95312ZM12.3984 10.1406C12.3984 8.57812 13.2891 7.57812 14.6953 7.57812C16.0859 7.57812 16.9766 8.57812 16.9766 10.1406V11.3594C16.9766 12.9297 16.0859 13.9297 14.6953 13.9297C13.2891 13.9297 12.3984 12.9219 12.3984 11.3594V10.1406ZM16.9922 13.7031V15H18.2969V3.19531H16.9453V7.83594H16.8047C16.4297 6.90625 15.5312 6.38281 14.3047 6.38281C12.3438 6.38281 11.0625 7.79688 11.0625 9.96875V11.5469C11.0625 13.7266 12.3438 15.1406 14.3047 15.1406C15.5156 15.1406 16.4062 14.6406 16.8438 13.7031H16.9922ZM24.875 4.44531C25.5 4.44531 25.9766 3.97656 25.9766 3.35156C25.9766 2.73438 25.5 2.26562 24.875 2.26562C24.25 2.26562 23.7734 2.73438 23.7734 3.35156C23.7734 3.97656 24.25 4.44531 24.875 4.44531ZM28.4297 15V13.8984H25.625V6.52344H21.4297V7.625H24.3125V13.8984H21.4062V15H28.4297ZM30.7891 6.52344L33.8906 15H35.3516L38.4453 6.52344H37.0312L34.6797 13.5781H34.5781L32.2109 6.52344H30.7891ZM57.9297 9.16406C57.7109 7.42188 56.4297 6.35938 54.5547 6.35938C52.25 6.35938 50.9062 7.77344 50.9062 10.2031V11.3125C50.9062 13.7422 52.25 15.1562 54.5547 15.1562C56.4297 15.1562 57.7188 14.1016 57.9297 12.375H56.6172C56.4531 13.3438 55.625 13.9609 54.5312 13.9609C53.0547 13.9609 52.2344 12.9609 52.2344 11.1406V10.375C52.2344 8.55469 53.0547 7.54688 54.5312 7.54688C55.625 7.54688 56.4531 8.17188 56.6172 9.16406H57.9297ZM67.9922 15V13.8984H65.1953V3.19531H60.9922V4.29688H63.8672V13.8984H60.9688V15H67.9922ZM73.3203 15.1484C74.5547 15.1484 75.4766 14.6406 75.8828 13.7344H76.0156V15.0078H77.2812V9.20312C77.2812 7.4375 76.1406 6.42188 74.1484 6.42188C72.4141 6.42188 71.1016 7.35156 70.9453 8.71094H72.25C72.4688 7.98438 73.1562 7.57031 74.1328 7.57031C75.3125 7.57031 75.9609 8.15625 75.9609 9.21875V9.98438L73.6328 10.1016C71.7031 10.2031 70.625 11.0938 70.625 12.5938C70.625 14.1328 71.7031 15.1484 73.3203 15.1484ZM73.7031 13.9844C72.6328 13.9844 71.9688 13.4375 71.9688 12.5469C71.9688 11.6641 72.5938 11.1562 73.7812 11.1016L75.9609 11V12C75.9609 13.1328 74.9844 13.9844 73.7031 13.9844ZM80.9844 8.8125C80.9844 10.0156 81.7422 10.7891 83.2734 11.1406L84.5312 11.4297C85.6094 11.6719 86.0234 12.0312 86.0234 12.7031C86.0234 13.5156 85.2891 14.0391 84.1328 14.0391C83.0391 14.0391 82.2891 13.5859 82.0938 12.8047H80.7422C80.8906 14.2578 82.1641 15.1562 84.0859 15.1562C86.0938 15.1562 87.3984 14.1406 87.3984 12.5781C87.3984 11.3516 86.6484 10.6328 85 10.2578L83.8047 9.98438C82.7422 9.75 82.3047 9.38281 82.3047 8.73438C82.3047 7.96094 83 7.46094 84.0781 7.46094C85.0703 7.46094 85.7812 7.91406 85.9375 8.65625H87.2188C87.0625 7.24219 85.8672 6.35938 84.1016 6.35938C82.2344 6.35938 80.9844 7.34375 80.9844 8.8125ZM90.875 8.8125C90.875 10.0156 91.6328 10.7891 93.1641 11.1406L94.4219 11.4297C95.5 11.6719 95.9141 12.0312 95.9141 12.7031C95.9141 13.5156 95.1797 14.0391 94.0234 14.0391C92.9297 14.0391 92.1797 13.5859 91.9844 12.8047H90.6328C90.7812 14.2578 92.0547 15.1562 93.9766 15.1562C95.9844 15.1562 97.2891 14.1406 97.2891 12.5781C97.2891 11.3516 96.5391 10.6328 94.8906 10.2578L93.6953 9.98438C92.6328 9.75 92.1953 9.38281 92.1953 8.73438C92.1953 7.96094 92.8906 7.46094 93.9688 7.46094C94.9609 7.46094 95.6719 7.91406 95.8281 8.65625H97.1094C96.9531 7.24219 95.7578 6.35938 93.9922 6.35938C92.125 6.35938 90.875 7.34375 90.875 8.8125ZM107.984 12.4297V11.1406H99.7188V12.4297H107.984ZM107.984 8.86719V7.57812H99.7188V8.86719H107.984ZM112.922 8.66406V3.72656H111.531V8.66406H112.922ZM115.977 8.66406V3.72656H114.57V8.66406H115.977ZM290.953 8.66406V3.72656H289.562V8.66406H290.953ZM294.008 8.66406V3.72656H292.602V8.66406H294.008ZM303.68 9.92969V10.0703L298.305 13.0469V14.5391L305.023 10.5781V9.42188L298.305 5.46094V6.95312L303.68 9.92969ZM28.0859 25.9531V24.4609L21.3672 28.4219V29.5781L28.0859 33.5391V32.0469L22.7109 29.0703V28.9297L28.0859 25.9531ZM32.1797 29.1406C32.1797 27.5781 33.0703 26.5781 34.4766 26.5781C35.8672 26.5781 36.7578 27.5781 36.7578 29.1406V30.3594C36.7578 31.9297 35.8672 32.9297 34.4766 32.9297C33.0703 32.9297 32.1797 31.9219 32.1797 30.3594V29.1406ZM36.7734 32.7031V34H38.0781V22.1953H36.7266V26.8359H36.5859C36.2109 25.9062 35.3125 25.3828 34.0859 25.3828C32.125 25.3828 30.8438 26.7969 30.8438 28.9688V30.5469C30.8438 32.7266 32.125 34.1406 34.0859 34.1406C35.2969 34.1406 36.1875 33.6406 36.625 32.7031H36.7734ZM44.6562 23.4453C45.2812 23.4453 45.7578 22.9766 45.7578 22.3516C45.7578 21.7344 45.2812 21.2656 44.6562 21.2656C44.0312 21.2656 43.5547 21.7344 43.5547 22.3516C43.5547 22.9766 44.0312 23.4453 44.6562 23.4453ZM48.2109 34V32.8984H45.4062V25.5234H41.2109V26.625H44.0938V32.8984H41.1875V34H48.2109ZM50.5703 25.5234L53.6719 34H55.1328L58.2266 25.5234H56.8125L54.4609 32.5781H54.3594L51.9922 25.5234H50.5703ZM77.7109 28.1641C77.4922 26.4219 76.2109 25.3594 74.3359 25.3594C72.0312 25.3594 70.6875 26.7734 70.6875 29.2031V30.3125C70.6875 32.7422 72.0312 34.1562 74.3359 34.1562C76.2109 34.1562 77.5 33.1016 77.7109 31.375H76.3984C76.2344 32.3438 75.4062 32.9609 74.3125 32.9609C72.8359 32.9609 72.0156 31.9609 72.0156 30.1406V29.375C72.0156 27.5547 72.8359 26.5469 74.3125 26.5469C75.4062 26.5469 76.2344 27.1719 76.3984 28.1641H77.7109ZM87.7734 34V32.8984H84.9766V22.1953H80.7734V23.2969H83.6484V32.8984H80.75V34H87.7734ZM93.1016 34.1484C94.3359 34.1484 95.2578 33.6406 95.6641 32.7344H95.7969V34.0078H97.0625V28.2031C97.0625 26.4375 95.9219 25.4219 93.9297 25.4219C92.1953 25.4219 90.8828 26.3516 90.7266 27.7109H92.0312C92.25 26.9844 92.9375 26.5703 93.9141 26.5703C95.0938 26.5703 95.7422 27.1562 95.7422 28.2188V28.9844L93.4141 29.1016C91.4844 29.2031 90.4062 30.0938 90.4062 31.5938C90.4062 33.1328 91.4844 34.1484 93.1016 34.1484ZM93.4844 32.9844C92.4141 32.9844 91.75 32.4375 91.75 31.5469C91.75 30.6641 92.375 30.1562 93.5625 30.1016L95.7422 30V31C95.7422 32.1328 94.7656 32.9844 93.4844 32.9844ZM100.766 27.8125C100.766 29.0156 101.523 29.7891 103.055 30.1406L104.312 30.4297C105.391 30.6719 105.805 31.0312 105.805 31.7031C105.805 32.5156 105.07 33.0391 103.914 33.0391C102.82 33.0391 102.07 32.5859 101.875 31.8047H100.523C100.672 33.2578 101.945 34.1562 103.867 34.1562C105.875 34.1562 107.18 33.1406 107.18 31.5781C107.18 30.3516 106.43 29.6328 104.781 29.2578L103.586 28.9844C102.523 28.75 102.086 28.3828 102.086 27.7344C102.086 26.9609 102.781 26.4609 103.859 26.4609C104.852 26.4609 105.562 26.9141 105.719 27.6562H107C106.844 26.2422 105.648 25.3594 103.883 25.3594C102.016 25.3594 100.766 26.3438 100.766 27.8125ZM110.656 27.8125C110.656 29.0156 111.414 29.7891 112.945 30.1406L114.203 30.4297C115.281 30.6719 115.695 31.0312 115.695 31.7031C115.695 32.5156 114.961 33.0391 113.805 33.0391C112.711 33.0391 111.961 32.5859 111.766 31.8047H110.414C110.562 33.2578 111.836 34.1562 113.758 34.1562C115.766 34.1562 117.07 33.1406 117.07 31.5781C117.07 30.3516 116.32 29.6328 114.672 29.2578L113.477 28.9844C112.414 28.75 111.977 28.3828 111.977 27.7344C111.977 26.9609 112.672 26.4609 113.75 26.4609C114.742 26.4609 115.453 26.9141 115.609 27.6562H116.891C116.734 26.2422 115.539 25.3594 113.773 25.3594C111.906 25.3594 110.656 26.3438 110.656 27.8125ZM127.766 31.4297V30.1406H119.5V31.4297H127.766ZM127.766 27.8672V26.5781H119.5V27.8672H127.766ZM132.703 27.6641V22.7266H131.312V27.6641H132.703ZM135.758 27.6641V22.7266H134.352V27.6641H135.758ZM241.5 27.6641V22.7266H240.109V27.6641H241.5ZM244.555 27.6641V22.7266H243.148V27.6641H244.555ZM254.227 28.9297V29.0703L248.852 32.0469V33.5391L255.57 29.5781V28.4219L248.852 24.4609V25.9531L254.227 28.9297ZM47.8672 44.9531V43.4609L41.1484 47.4219V48.5781L47.8672 52.5391V51.0469L42.4922 48.0703V47.9297L47.8672 44.9531ZM50.9219 53H52.25V48.0156C52.25 46.5703 53.1953 45.5938 54.5938 45.5938C55.9219 45.5938 56.5469 46.3203 56.5469 47.8438V53H57.875V47.5078C57.875 45.4844 56.875 44.375 55.0312 44.375C53.7344 44.375 52.7578 44.9688 52.3125 46.0234H52.2031V41.1953H50.9219V53ZM62.9141 47.7734H64.2031C65.7656 47.7734 66.7578 48.6094 66.7578 49.9219C66.7578 51.1953 65.7969 51.9922 64.25 51.9922C62.8438 51.9922 61.8438 51.2109 61.7188 50.0078H60.4141C60.5156 51.9531 62.0625 53.2344 64.2891 53.2344C66.5391 53.2344 68.1484 51.8672 68.1484 49.9531C68.1484 48.4141 67.2578 47.3594 65.7578 47.1641V47.0391C66.9688 46.7422 67.6797 45.7734 67.6797 44.4141C67.6797 42.7031 66.2422 41.4922 64.2266 41.4922C62.1406 41.4922 60.7656 42.7031 60.6328 44.6562H61.9531C62.0625 43.4453 62.9062 42.7031 64.1719 42.7031C65.4453 42.7031 66.2891 43.4609 66.2891 44.6094C66.2891 45.7891 65.4062 46.6172 64.1406 46.6172H62.9141V47.7734ZM87.6016 47.1641C87.3828 45.4219 86.1016 44.3594 84.2266 44.3594C81.9219 44.3594 80.5781 45.7734 80.5781 48.2031V49.3125C80.5781 51.7422 81.9219 53.1562 84.2266 53.1562C86.1016 53.1562 87.3906 52.1016 87.6016 50.375H86.2891C86.125 51.3438 85.2969 51.9609 84.2031 51.9609C82.7266 51.9609 81.9062 50.9609 81.9062 49.1406V48.375C81.9062 46.5547 82.7266 45.5469 84.2031 45.5469C85.2969 45.5469 86.125 46.1719 86.2891 47.1641H87.6016ZM97.6641 53V51.8984H94.8672V41.1953H90.6641V42.2969H93.5391V51.8984H90.6406V53H97.6641ZM102.992 53.1484C104.227 53.1484 105.148 52.6406 105.555 51.7344H105.688V53.0078H106.953V47.2031C106.953 45.4375 105.812 44.4219 103.82 44.4219C102.086 44.4219 100.773 45.3516 100.617 46.7109H101.922C102.141 45.9844 102.828 45.5703 103.805 45.5703C104.984 45.5703 105.633 46.1562 105.633 47.2188V47.9844L103.305 48.1016C101.375 48.2031 100.297 49.0938 100.297 50.5938C100.297 52.1328 101.375 53.1484 102.992 53.1484ZM103.375 51.9844C102.305 51.9844 101.641 51.4375 101.641 50.5469C101.641 49.6641 102.266 49.1562 103.453 49.1016L105.633 49V50C105.633 51.1328 104.656 51.9844 103.375 51.9844ZM110.656 46.8125C110.656 48.0156 111.414 48.7891 112.945 49.1406L114.203 49.4297C115.281 49.6719 115.695 50.0312 115.695 50.7031C115.695 51.5156 114.961 52.0391 113.805 52.0391C112.711 52.0391 111.961 51.5859 111.766 50.8047H110.414C110.562 52.2578 111.836 53.1562 113.758 53.1562C115.766 53.1562 117.07 52.1406 117.07 50.5781C117.07 49.3516 116.32 48.6328 114.672 48.2578L113.477 47.9844C112.414 47.75 111.977 47.3828 111.977 46.7344C111.977 45.9609 112.672 45.4609 113.75 45.4609C114.742 45.4609 115.453 45.9141 115.609 46.6562H116.891C116.734 45.2422 115.539 44.3594 113.773 44.3594C111.906 44.3594 110.656 45.3438 110.656 46.8125ZM120.547 46.8125C120.547 48.0156 121.305 48.7891 122.836 49.1406L124.094 49.4297C125.172 49.6719 125.586 50.0312 125.586 50.7031C125.586 51.5156 124.852 52.0391 123.695 52.0391C122.602 52.0391 121.852 51.5859 121.656 50.8047H120.305C120.453 52.2578 121.727 53.1562 123.648 53.1562C125.656 53.1562 126.961 52.1406 126.961 50.5781C126.961 49.3516 126.211 48.6328 124.562 48.2578L123.367 47.9844C122.305 47.75 121.867 47.3828 121.867 46.7344C121.867 45.9609 122.562 45.4609 123.641 45.4609C124.633 45.4609 125.344 45.9141 125.5 46.6562H126.781C126.625 45.2422 125.43 44.3594 123.664 44.3594C121.797 44.3594 120.547 45.3438 120.547 46.8125ZM137.656 50.4297V49.1406H129.391V50.4297H137.656ZM137.656 46.8672V45.5781H129.391V46.8672H137.656ZM142.594 46.6641V41.7266H141.203V46.6641H142.594ZM145.648 46.6641V41.7266H144.242V46.6641H145.648ZM281.062 46.6641V41.7266H279.672V46.6641H281.062ZM284.117 46.6641V41.7266H282.711V46.6641H284.117ZM293.789 47.9297V48.0703L288.414 51.0469V52.5391L295.133 48.5781V47.4219L288.414 43.4609V44.9531L293.789 47.9297ZM64.5 73C66.9219 73 68.3594 71.8281 68.3594 69.8516C68.3594 68.3438 67.3672 67.2422 65.8516 67.0938V66.9766C66.9844 66.7812 67.7891 65.7578 67.7891 64.5156C67.7891 62.7656 66.5391 61.7266 64.4609 61.7266H60.8125V73H64.5ZM62.1797 62.9141H64.1484C65.5859 62.9141 66.3984 63.5781 66.3984 64.7578C66.3984 65.9453 65.5391 66.5938 63.9375 66.5938H62.1797V62.9141ZM62.1797 71.8047V67.7422H64.1562C65.9844 67.7422 66.9297 68.4297 66.9297 69.7578C66.9297 71.1016 65.9922 71.8047 64.2031 71.8047H62.1797ZM74.1797 73.1562C76.4219 73.1562 77.8516 71.6953 77.8516 69.4062V68.125C77.8516 65.8359 76.4219 64.375 74.1797 64.375C71.9375 64.375 70.5078 65.8359 70.5078 68.125V69.4062C70.5078 71.6953 71.9375 73.1562 74.1797 73.1562ZM74.1797 65.5469C75.6328 65.5469 76.5391 66.5781 76.5391 68.2422V69.2812C76.5391 70.9531 75.6328 71.9766 74.1797 71.9766C72.7266 71.9766 71.8203 70.9531 71.8203 69.2812V68.2422C71.8203 66.5781 72.7266 65.5469 74.1797 65.5469ZM84.1016 69.7344L86.2344 73H87.7734L84.8516 68.7031L87.75 64.5234H86.2578L84.1562 67.7344H84.0469L81.9375 64.5234H80.3672L83.2969 68.7578L80.3906 73H81.8594L84 69.7344H84.1016ZM102.406 62.25V64.5469H100.148V65.6797H102.406V70.4766C102.406 72.2422 103.383 73.0391 105.484 73.0391C105.891 73.0391 106.922 73 107.133 72.9609V71.8359C106.906 71.8594 106.055 71.8828 105.578 71.8828C104.383 71.8828 103.734 71.3828 103.734 70.4609V65.6797H107.156V64.5469H103.719V62.25H102.406ZM113.891 62.4453C114.516 62.4453 114.992 61.9766 114.992 61.3516C114.992 60.7344 114.516 60.2656 113.891 60.2656C113.266 60.2656 112.789 60.7344 112.789 61.3516C112.789 61.9766 113.266 62.4453 113.891 62.4453ZM117.445 73V71.8984H114.641V64.5234H110.445V65.625H113.328V71.8984H110.422V73H117.445ZM122.188 62.25V64.5469H119.93V65.6797H122.188V70.4766C122.188 72.2422 123.164 73.0391 125.266 73.0391C125.672 73.0391 126.703 73 126.914 72.9609V71.8359C126.688 71.8594 125.836 71.8828 125.359 71.8828C124.164 71.8828 123.516 71.3828 123.516 70.4609V65.6797H126.938V64.5469H123.5V62.25H122.188ZM137.227 73V71.8984H134.43V61.1953H130.227V62.2969H133.102V71.8984H130.203V73H137.227ZM143.508 65.5078C144.875 65.5078 145.703 66.4844 145.703 68.1016H141.242C141.242 66.4766 142.094 65.5078 143.508 65.5078ZM145.703 70.8125C145.469 71.5547 144.68 72.0078 143.609 72.0078C142.164 72.0078 141.242 71.0078 141.242 69.4531V69.1094H147.016V68.2812C147.016 65.8281 145.719 64.3672 143.516 64.3672C141.359 64.3672 139.93 65.8359 139.93 68.0703V69.3438C139.93 71.7578 141.281 73.1562 143.609 73.1562C145.391 73.1562 146.734 72.2109 146.992 70.8125H145.703ZM47.8672 83.9531V82.4609L41.1484 86.4219V87.5781L47.8672 91.5391V90.0469L42.4922 87.0703V86.9297L47.8672 83.9531ZM52.2969 93.0703L57.7969 79.6562H56.4922L51 93.0703H52.2969ZM60.8125 92H62.1406V87.0156C62.1406 85.5703 63.0859 84.5938 64.4844 84.5938C65.8125 84.5938 66.4375 85.3203 66.4375 86.8438V92H67.7656V86.5078C67.7656 84.4844 66.7656 83.375 64.9219 83.375C63.625 83.375 62.6484 83.9688 62.2031 85.0234H62.0938V80.1953H60.8125V92ZM72.8047 86.7734H74.0938C75.6562 86.7734 76.6484 87.6094 76.6484 88.9219C76.6484 90.1953 75.6875 90.9922 74.1406 90.9922C72.7344 90.9922 71.7344 90.2109 71.6094 89.0078H70.3047C70.4062 90.9531 71.9531 92.2344 74.1797 92.2344C76.4297 92.2344 78.0391 90.8672 78.0391 88.9531C78.0391 87.4141 77.1484 86.3594 75.6484 86.1641V86.0391C76.8594 85.7422 77.5703 84.7734 77.5703 83.4141C77.5703 81.7031 76.1328 80.4922 74.1172 80.4922C72.0312 80.4922 70.6562 81.7031 70.5234 83.6562H71.8438C71.9531 82.4453 72.7969 81.7031 74.0625 81.7031C75.3359 81.7031 76.1797 82.4609 76.1797 83.6094C76.1797 84.7891 75.2969 85.6172 74.0312 85.6172H72.8047V86.7734ZM86.0859 86.9297V87.0703L80.7109 90.0469V91.5391L87.4297 87.5781V86.4219L80.7109 82.4609V83.9531L86.0859 86.9297ZM28.0859 102.953V101.461L21.3672 105.422V106.578L28.0859 110.539V109.047L22.7109 106.07V105.93L28.0859 102.953ZM32.5156 112.07L38.0156 98.6562H36.7109L31.2188 112.07H32.5156ZM42.0703 106.141C42.0703 104.578 42.9609 103.578 44.3672 103.578C45.7578 103.578 46.6484 104.578 46.6484 106.141V107.359C46.6484 108.93 45.7578 109.93 44.3672 109.93C42.9609 109.93 42.0703 108.922 42.0703 107.359V106.141ZM46.6641 109.703V111H47.9688V99.1953H46.6172V103.836H46.4766C46.1016 102.906 45.2031 102.383 43.9766 102.383C42.0156 102.383 40.7344 103.797 40.7344 105.969V107.547C40.7344 109.727 42.0156 111.141 43.9766 111.141C45.1875 111.141 46.0781 110.641 46.5156 109.703H46.6641ZM54.5469 100.445C55.1719 100.445 55.6484 99.9766 55.6484 99.3516C55.6484 98.7344 55.1719 98.2656 54.5469 98.2656C53.9219 98.2656 53.4453 98.7344 53.4453 99.3516C53.4453 99.9766 53.9219 100.445 54.5469 100.445ZM58.1016 111V109.898H55.2969V102.523H51.1016V103.625H53.9844V109.898H51.0781V111H58.1016ZM60.4609 102.523L63.5625 111H65.0234L68.1172 102.523H66.7031L64.3516 109.578H64.25L61.8828 102.523H60.4609ZM76.1953 105.93V106.07L70.8203 109.047V110.539L77.5391 106.578V105.422L70.8203 101.461V102.953L76.1953 105.93ZM28.0859 121.953V120.461L21.3672 124.422V125.578L28.0859 129.539V128.047L22.7109 125.07V124.93L28.0859 121.953ZM32.1797 125.141C32.1797 123.578 33.0703 122.578 34.4766 122.578C35.8672 122.578 36.7578 123.578 36.7578 125.141V126.359C36.7578 127.93 35.8672 128.93 34.4766 128.93C33.0703 128.93 32.1797 127.922 32.1797 126.359V125.141ZM36.7734 128.703V130H38.0781V118.195H36.7266V122.836H36.5859C36.2109 121.906 35.3125 121.383 34.0859 121.383C32.125 121.383 30.8438 122.797 30.8438 124.969V126.547C30.8438 128.727 32.125 130.141 34.0859 130.141C35.2969 130.141 36.1875 129.641 36.625 128.703H36.7734ZM44.6562 119.445C45.2812 119.445 45.7578 118.977 45.7578 118.352C45.7578 117.734 45.2812 117.266 44.6562 117.266C44.0312 117.266 43.5547 117.734 43.5547 118.352C43.5547 118.977 44.0312 119.445 44.6562 119.445ZM48.2109 130V128.898H45.4062V121.523H41.2109V122.625H44.0938V128.898H41.1875V130H48.2109ZM50.5703 121.523L53.6719 130H55.1328L58.2266 121.523H56.8125L54.4609 128.578H54.3594L51.9922 121.523H50.5703ZM77.7109 124.164C77.4922 122.422 76.2109 121.359 74.3359 121.359C72.0312 121.359 70.6875 122.773 70.6875 125.203V126.312C70.6875 128.742 72.0312 130.156 74.3359 130.156C76.2109 130.156 77.5 129.102 77.7109 127.375H76.3984C76.2344 128.344 75.4062 128.961 74.3125 128.961C72.8359 128.961 72.0156 127.961 72.0156 126.141V125.375C72.0156 123.555 72.8359 122.547 74.3125 122.547C75.4062 122.547 76.2344 123.172 76.3984 124.164H77.7109ZM87.7734 130V128.898H84.9766V118.195H80.7734V119.297H83.6484V128.898H80.75V130H87.7734ZM93.1016 130.148C94.3359 130.148 95.2578 129.641 95.6641 128.734H95.7969V130.008H97.0625V124.203C97.0625 122.438 95.9219 121.422 93.9297 121.422C92.1953 121.422 90.8828 122.352 90.7266 123.711H92.0312C92.25 122.984 92.9375 122.57 93.9141 122.57C95.0938 122.57 95.7422 123.156 95.7422 124.219V124.984L93.4141 125.102C91.4844 125.203 90.4062 126.094 90.4062 127.594C90.4062 129.133 91.4844 130.148 93.1016 130.148ZM93.4844 128.984C92.4141 128.984 91.75 128.438 91.75 127.547C91.75 126.664 92.375 126.156 93.5625 126.102L95.7422 126V127C95.7422 128.133 94.7656 128.984 93.4844 128.984ZM100.766 123.812C100.766 125.016 101.523 125.789 103.055 126.141L104.312 126.43C105.391 126.672 105.805 127.031 105.805 127.703C105.805 128.516 105.07 129.039 103.914 129.039C102.82 129.039 102.07 128.586 101.875 127.805H100.523C100.672 129.258 101.945 130.156 103.867 130.156C105.875 130.156 107.18 129.141 107.18 127.578C107.18 126.352 106.43 125.633 104.781 125.258L103.586 124.984C102.523 124.75 102.086 124.383 102.086 123.734C102.086 122.961 102.781 122.461 103.859 122.461C104.852 122.461 105.562 122.914 105.719 123.656H107C106.844 122.242 105.648 121.359 103.883 121.359C102.016 121.359 100.766 122.344 100.766 123.812ZM110.656 123.812C110.656 125.016 111.414 125.789 112.945 126.141L114.203 126.43C115.281 126.672 115.695 127.031 115.695 127.703C115.695 128.516 114.961 129.039 113.805 129.039C112.711 129.039 111.961 128.586 111.766 127.805H110.414C110.562 129.258 111.836 130.156 113.758 130.156C115.766 130.156 117.07 129.141 117.07 127.578C117.07 126.352 116.32 125.633 114.672 125.258L113.477 124.984C112.414 124.75 111.977 124.383 111.977 123.734C111.977 122.961 112.672 122.461 113.75 122.461C114.742 122.461 115.453 122.914 115.609 123.656H116.891C116.734 122.242 115.539 121.359 113.773 121.359C111.906 121.359 110.656 122.344 110.656 123.812ZM127.766 127.43V126.141H119.5V127.43H127.766ZM127.766 123.867V122.578H119.5V123.867H127.766ZM132.703 123.664V118.727H131.312V123.664H132.703ZM135.758 123.664V118.727H134.352V123.664H135.758ZM221.719 123.664V118.727H220.328V123.664H221.719ZM224.773 123.664V118.727H223.367V123.664H224.773ZM234.445 124.93V125.07L229.07 128.047V129.539L235.789 125.578V124.422L229.07 120.461V121.953L234.445 124.93ZM44.7188 149C47.1406 149 48.5781 147.828 48.5781 145.852C48.5781 144.344 47.5859 143.242 46.0703 143.094V142.977C47.2031 142.781 48.0078 141.758 48.0078 140.516C48.0078 138.766 46.7578 137.727 44.6797 137.727H41.0312V149H44.7188ZM42.3984 138.914H44.3672C45.8047 138.914 46.6172 139.578 46.6172 140.758C46.6172 141.945 45.7578 142.594 44.1562 142.594H42.3984V138.914ZM42.3984 147.805V143.742H44.375C46.2031 143.742 47.1484 144.43 47.1484 145.758C47.1484 147.102 46.2109 147.805 44.4219 147.805H42.3984ZM54.3984 149.156C56.6406 149.156 58.0703 147.695 58.0703 145.406V144.125C58.0703 141.836 56.6406 140.375 54.3984 140.375C52.1562 140.375 50.7266 141.836 50.7266 144.125V145.406C50.7266 147.695 52.1562 149.156 54.3984 149.156ZM54.3984 141.547C55.8516 141.547 56.7578 142.578 56.7578 144.242V145.281C56.7578 146.953 55.8516 147.977 54.3984 147.977C52.9453 147.977 52.0391 146.953 52.0391 145.281V144.242C52.0391 142.578 52.9453 141.547 54.3984 141.547ZM64.3203 145.734L66.4531 149H67.9922L65.0703 144.703L67.9688 140.523H66.4766L64.375 143.734H64.2656L62.1562 140.523H60.5859L63.5156 144.758L60.6094 149H62.0781L64.2188 145.734H64.3203ZM84.6016 149.141C86.5625 149.141 87.8438 147.727 87.8438 145.547V143.969C87.8438 141.797 86.5625 140.383 84.6016 140.383C83.375 140.383 82.4766 140.906 82.1016 141.836H81.9609V137.195H80.6094V149H81.9141V147.703H82.0625C82.5 148.641 83.3906 149.141 84.6016 149.141ZM84.2109 147.93C82.8203 147.93 81.9297 146.93 81.9297 145.359V144.141C81.9297 142.578 82.8203 141.578 84.2109 141.578C85.6172 141.578 86.5078 142.578 86.5078 144.141V145.359C86.5078 146.922 85.6172 147.93 84.2109 147.93ZM93.9609 149.156C96.2031 149.156 97.6328 147.695 97.6328 145.406V144.125C97.6328 141.836 96.2031 140.375 93.9609 140.375C91.7188 140.375 90.2891 141.836 90.2891 144.125V145.406C90.2891 147.695 91.7188 149.156 93.9609 149.156ZM93.9609 141.547C95.4141 141.547 96.3203 142.578 96.3203 144.242V145.281C96.3203 146.953 95.4141 147.977 93.9609 147.977C92.5078 147.977 91.6016 146.953 91.6016 145.281V144.242C91.6016 142.578 92.5078 141.547 93.9609 141.547ZM101.414 144.141C101.414 142.578 102.305 141.578 103.711 141.578C105.102 141.578 105.992 142.578 105.992 144.141V145.359C105.992 146.93 105.102 147.93 103.711 147.93C102.305 147.93 101.414 146.922 101.414 145.359V144.141ZM106.008 147.703V149H107.312V137.195H105.961V141.836H105.82C105.445 140.906 104.547 140.383 103.32 140.383C101.359 140.383 100.078 141.797 100.078 143.969V145.547C100.078 147.727 101.359 149.141 103.32 149.141C104.531 149.141 105.422 148.641 105.859 147.703H106.008ZM111.367 152.016C112.938 152.016 113.648 151.398 114.391 149.312L117.586 140.523H116.172L113.805 147.617H113.703L111.328 140.523H109.883L113 149.055L112.852 149.516C112.5 150.5 112.062 150.859 111.266 150.859C111.141 150.859 110.898 150.852 110.797 150.828V151.992C110.914 152.008 111.172 152.016 111.367 152.016ZM28.0859 159.953V158.461L21.3672 162.422V163.578L28.0859 167.539V166.047L22.7109 163.07V162.93L28.0859 159.953ZM32.5156 169.07L38.0156 155.656H36.7109L31.2188 169.07H32.5156ZM42.0703 163.141C42.0703 161.578 42.9609 160.578 44.3672 160.578C45.7578 160.578 46.6484 161.578 46.6484 163.141V164.359C46.6484 165.93 45.7578 166.93 44.3672 166.93C42.9609 166.93 42.0703 165.922 42.0703 164.359V163.141ZM46.6641 166.703V168H47.9688V156.195H46.6172V160.836H46.4766C46.1016 159.906 45.2031 159.383 43.9766 159.383C42.0156 159.383 40.7344 160.797 40.7344 162.969V164.547C40.7344 166.727 42.0156 168.141 43.9766 168.141C45.1875 168.141 46.0781 167.641 46.5156 166.703H46.6641ZM54.5469 157.445C55.1719 157.445 55.6484 156.977 55.6484 156.352C55.6484 155.734 55.1719 155.266 54.5469 155.266C53.9219 155.266 53.4453 155.734 53.4453 156.352C53.4453 156.977 53.9219 157.445 54.5469 157.445ZM58.1016 168V166.898H55.2969V159.523H51.1016V160.625H53.9844V166.898H51.0781V168H58.1016ZM60.4609 159.523L63.5625 168H65.0234L68.1172 159.523H66.7031L64.3516 166.578H64.25L61.8828 159.523H60.4609ZM76.1953 162.93V163.07L70.8203 166.047V167.539L77.5391 163.578V162.422L70.8203 158.461V159.953L76.1953 162.93ZM8.30469 178.953V177.461L1.58594 181.422V182.578L8.30469 186.539V185.047L2.92969 182.07V181.93L8.30469 178.953ZM12.7344 188.07L18.2344 174.656H16.9297L11.4375 188.07H12.7344ZM22.2891 182.141C22.2891 180.578 23.1797 179.578 24.5859 179.578C25.9766 179.578 26.8672 180.578 26.8672 182.141V183.359C26.8672 184.93 25.9766 185.93 24.5859 185.93C23.1797 185.93 22.2891 184.922 22.2891 183.359V182.141ZM26.8828 185.703V187H28.1875V175.195H26.8359V179.836H26.6953C26.3203 178.906 25.4219 178.383 24.1953 178.383C22.2344 178.383 20.9531 179.797 20.9531 181.969V183.547C20.9531 185.727 22.2344 187.141 24.1953 187.141C25.4062 187.141 26.2969 186.641 26.7344 185.703H26.8828ZM34.7656 176.445C35.3906 176.445 35.8672 175.977 35.8672 175.352C35.8672 174.734 35.3906 174.266 34.7656 174.266C34.1406 174.266 33.6641 174.734 33.6641 175.352C33.6641 175.977 34.1406 176.445 34.7656 176.445ZM38.3203 187V185.898H35.5156V178.523H31.3203V179.625H34.2031V185.898H31.2969V187H38.3203ZM40.6797 178.523L43.7812 187H45.2422L48.3359 178.523H46.9219L44.5703 185.578H44.4688L42.1016 178.523H40.6797ZM56.4141 181.93V182.07L51.0391 185.047V186.539L57.7578 182.578V181.422L51.0391 177.461V178.953L56.4141 181.93Z" transform="translate(-1 -2)" fill="#C8E1FF"/>
  <path d="M123.844 15C126.266 15 127.703 13.8281 127.703 11.8516C127.703 10.3438 126.711 9.24219 125.195 9.09375V8.97656C126.328 8.78125 127.133 7.75781 127.133 6.51562C127.133 4.76562 125.883 3.72656 123.805 3.72656H120.156V15H123.844ZM121.523 4.91406H123.492C124.93 4.91406 125.742 5.57812 125.742 6.75781C125.742 7.94531 124.883 8.59375 123.281 8.59375H121.523V4.91406ZM121.523 13.8047V9.74219H123.5C125.328 9.74219 126.273 10.4297 126.273 11.7578C126.273 13.1016 125.336 13.8047 123.547 13.8047H121.523ZM133.523 15.1562C135.766 15.1562 137.195 13.6953 137.195 11.4062V10.125C137.195 7.83594 135.766 6.375 133.523 6.375C131.281 6.375 129.852 7.83594 129.852 10.125V11.4062C129.852 13.6953 131.281 15.1562 133.523 15.1562ZM133.523 7.54688C134.977 7.54688 135.883 8.57812 135.883 10.2422V11.2812C135.883 12.9531 134.977 13.9766 133.523 13.9766C132.07 13.9766 131.164 12.9531 131.164 11.2812V10.2422C131.164 8.57812 132.07 7.54688 133.523 7.54688ZM143.445 11.7344L145.578 15H147.117L144.195 10.7031L147.094 6.52344H145.602L143.5 9.73438H143.391L141.281 6.52344H139.711L142.641 10.7578L139.734 15H141.203L143.344 11.7344H143.445ZM163.406 15C165.828 15 167.266 13.8281 167.266 11.8516C167.266 10.3438 166.273 9.24219 164.758 9.09375V8.97656C165.891 8.78125 166.695 7.75781 166.695 6.51562C166.695 4.76562 165.445 3.72656 163.367 3.72656H159.719V15H163.406ZM161.086 4.91406H163.055C164.492 4.91406 165.305 5.57812 165.305 6.75781C165.305 7.94531 164.445 8.59375 162.844 8.59375H161.086V4.91406ZM161.086 13.8047V9.74219H163.062C164.891 9.74219 165.836 10.4297 165.836 11.7578C165.836 13.1016 164.898 13.8047 163.109 13.8047H161.086ZM173.086 15.1562C175.328 15.1562 176.758 13.6953 176.758 11.4062V10.125C176.758 7.83594 175.328 6.375 173.086 6.375C170.844 6.375 169.414 7.83594 169.414 10.125V11.4062C169.414 13.6953 170.844 15.1562 173.086 15.1562ZM173.086 7.54688C174.539 7.54688 175.445 8.57812 175.445 10.2422V11.2812C175.445 12.9531 174.539 13.9766 173.086 13.9766C171.633 13.9766 170.727 12.9531 170.727 11.2812V10.2422C170.727 8.57812 171.633 7.54688 173.086 7.54688ZM183.008 11.7344L185.141 15H186.68L183.758 10.7031L186.656 6.52344H185.164L183.062 9.73438H182.953L180.844 6.52344H179.273L182.203 10.7578L179.297 15H180.766L182.906 11.7344H183.008ZM197 10.6172V9.38281H188.734V10.6172H197ZM206.891 10.6172V9.38281H198.625V10.6172H206.891ZM209.562 8.8125C209.562 10.0156 210.32 10.7891 211.852 11.1406L213.109 11.4297C214.188 11.6719 214.602 12.0312 214.602 12.7031C214.602 13.5156 213.867 14.0391 212.711 14.0391C211.617 14.0391 210.867 13.5859 210.672 12.8047H209.32C209.469 14.2578 210.742 15.1562 212.664 15.1562C214.672 15.1562 215.977 14.1406 215.977 12.5781C215.977 11.3516 215.227 10.6328 213.578 10.2578L212.383 9.98438C211.32 9.75 210.883 9.38281 210.883 8.73438C210.883 7.96094 211.578 7.46094 212.656 7.46094C213.648 7.46094 214.359 7.91406 214.516 8.65625H215.797C215.641 7.24219 214.445 6.35938 212.68 6.35938C210.812 6.35938 209.562 7.34375 209.562 8.8125ZM223.07 6.38281C221.859 6.38281 220.977 6.88281 220.531 7.82031H220.391V6.52344H219.078V17.8594H220.43V13.6875H220.578C220.945 14.6172 221.844 15.1406 223.07 15.1406C225.031 15.1406 226.312 13.7266 226.312 11.5547V9.97656C226.312 7.79688 225.031 6.38281 223.07 6.38281ZM222.688 7.60156C224.086 7.60156 224.977 8.60156 224.977 10.1641V11.3828C224.977 12.9453 224.086 13.9531 222.688 13.9531C221.289 13.9531 220.398 12.9531 220.398 11.3828V10.1641C220.398 8.60156 221.289 7.60156 222.688 7.60156ZM231.57 15.1484C232.805 15.1484 233.727 14.6406 234.133 13.7344H234.266V15.0078H235.531V9.20312C235.531 7.4375 234.391 6.42188 232.398 6.42188C230.664 6.42188 229.352 7.35156 229.195 8.71094H230.5C230.719 7.98438 231.406 7.57031 232.383 7.57031C233.562 7.57031 234.211 8.15625 234.211 9.21875V9.98438L231.883 10.1016C229.953 10.2031 228.875 11.0938 228.875 12.5938C228.875 14.1328 229.953 15.1484 231.57 15.1484ZM231.953 13.9844C230.883 13.9844 230.219 13.4375 230.219 12.5469C230.219 11.6641 230.844 11.1562 232.031 11.1016L234.211 11V12C234.211 13.1328 233.234 13.9844 231.953 13.9844ZM245.852 9.16406C245.633 7.42188 244.352 6.35938 242.477 6.35938C240.172 6.35938 238.828 7.77344 238.828 10.2031V11.3125C238.828 13.7422 240.172 15.1562 242.477 15.1562C244.352 15.1562 245.641 14.1016 245.852 12.375H244.539C244.375 13.3438 243.547 13.9609 242.453 13.9609C240.977 13.9609 240.156 12.9609 240.156 11.1406V10.375C240.156 8.55469 240.977 7.54688 242.453 7.54688C243.547 7.54688 244.375 8.17188 244.539 9.16406H245.852ZM252.359 4.44531C252.984 4.44531 253.461 3.97656 253.461 3.35156C253.461 2.73438 252.984 2.26562 252.359 2.26562C251.734 2.26562 251.258 2.73438 251.258 3.35156C251.258 3.97656 251.734 4.44531 252.359 4.44531ZM255.914 15V13.8984H253.109V6.52344H248.914V7.625H251.797V13.8984H248.891V15H255.914ZM262.102 15.1562C264.344 15.1562 265.773 13.6953 265.773 11.4062V10.125C265.773 7.83594 264.344 6.375 262.102 6.375C259.859 6.375 258.43 7.83594 258.43 10.125V11.4062C258.43 13.6953 259.859 15.1562 262.102 15.1562ZM262.102 7.54688C263.555 7.54688 264.461 8.57812 264.461 10.2422V11.2812C264.461 12.9531 263.555 13.9766 262.102 13.9766C260.648 13.9766 259.742 12.9531 259.742 11.2812V10.2422C259.742 8.57812 260.648 7.54688 262.102 7.54688ZM275.461 6.52344H274.133V11.5156C274.133 12.9609 273.195 13.9375 271.797 13.9375C270.477 13.9375 269.852 13.2188 269.852 11.6875V6.52344H268.523V12.0234C268.523 14.0547 269.523 15.1562 271.367 15.1562C272.656 15.1562 273.625 14.5625 274.078 13.5078H274.188V15H275.461V6.52344ZM278.797 8.8125C278.797 10.0156 279.555 10.7891 281.086 11.1406L282.344 11.4297C283.422 11.6719 283.836 12.0312 283.836 12.7031C283.836 13.5156 283.102 14.0391 281.945 14.0391C280.852 14.0391 280.102 13.5859 279.906 12.8047H278.555C278.703 14.2578 279.977 15.1562 281.898 15.1562C283.906 15.1562 285.211 14.1406 285.211 12.5781C285.211 11.3516 284.461 10.6328 282.812 10.2578L281.617 9.98438C280.555 9.75 280.117 9.38281 280.117 8.73438C280.117 7.96094 280.812 7.46094 281.891 7.46094C282.883 7.46094 283.594 7.91406 283.75 8.65625H285.031C284.875 7.24219 283.68 6.35938 281.914 6.35938C280.047 6.35938 278.797 7.34375 278.797 8.8125ZM143.625 34C146.047 34 147.484 32.8281 147.484 30.8516C147.484 29.3438 146.492 28.2422 144.977 28.0938V27.9766C146.109 27.7812 146.914 26.7578 146.914 25.5156C146.914 23.7656 145.664 22.7266 143.586 22.7266H139.938V34H143.625ZM141.305 23.9141H143.273C144.711 23.9141 145.523 24.5781 145.523 25.7578C145.523 26.9453 144.664 27.5938 143.062 27.5938H141.305V23.9141ZM141.305 32.8047V28.7422H143.281C145.109 28.7422 146.055 29.4297 146.055 30.7578C146.055 32.1016 145.117 32.8047 143.328 32.8047H141.305ZM153.305 34.1562C155.547 34.1562 156.977 32.6953 156.977 30.4062V29.125C156.977 26.8359 155.547 25.375 153.305 25.375C151.062 25.375 149.633 26.8359 149.633 29.125V30.4062C149.633 32.6953 151.062 34.1562 153.305 34.1562ZM153.305 26.5469C154.758 26.5469 155.664 27.5781 155.664 29.2422V30.2812C155.664 31.9531 154.758 32.9766 153.305 32.9766C151.852 32.9766 150.945 31.9531 150.945 30.2812V29.2422C150.945 27.5781 151.852 26.5469 153.305 26.5469ZM163.227 30.7344L165.359 34H166.898L163.977 29.7031L166.875 25.5234H165.383L163.281 28.7344H163.172L161.062 25.5234H159.492L162.422 29.7578L159.516 34H160.984L163.125 30.7344H163.227ZM177.219 29.6172V28.3828H168.953V29.6172H177.219ZM179.5 34H180.828V29.0156C180.828 27.5703 181.773 26.5938 183.172 26.5938C184.5 26.5938 185.125 27.3203 185.125 28.8438V34H186.453V28.5078C186.453 26.4844 185.453 25.375 183.609 25.375C182.312 25.375 181.336 25.9688 180.891 27.0234H180.781V22.1953H179.5V34ZM192.961 26.5078C194.328 26.5078 195.156 27.4844 195.156 29.1016H190.695C190.695 27.4766 191.547 26.5078 192.961 26.5078ZM195.156 31.8125C194.922 32.5547 194.133 33.0078 193.062 33.0078C191.617 33.0078 190.695 32.0078 190.695 30.4531V30.1094H196.469V29.2812C196.469 26.8281 195.172 25.3672 192.969 25.3672C190.812 25.3672 189.383 26.8359 189.383 29.0703V30.3438C189.383 32.7578 190.734 34.1562 193.062 34.1562C194.844 34.1562 196.188 33.2109 196.445 31.8125H195.156ZM201.898 34.1484C203.133 34.1484 204.055 33.6406 204.461 32.7344H204.594V34.0078H205.859V28.2031C205.859 26.4375 204.719 25.4219 202.727 25.4219C200.992 25.4219 199.68 26.3516 199.523 27.7109H200.828C201.047 26.9844 201.734 26.5703 202.711 26.5703C203.891 26.5703 204.539 27.1562 204.539 28.2188V28.9844L202.211 29.1016C200.281 29.2031 199.203 30.0938 199.203 31.5938C199.203 33.1328 200.281 34.1484 201.898 34.1484ZM202.281 32.9844C201.211 32.9844 200.547 32.4375 200.547 31.5469C200.547 30.6641 201.172 30.1562 202.359 30.1016L204.539 30V31C204.539 32.1328 203.562 32.9844 202.281 32.9844ZM210.211 29.1406C210.211 27.5781 211.102 26.5781 212.508 26.5781C213.898 26.5781 214.789 27.5781 214.789 29.1406V30.3594C214.789 31.9297 213.898 32.9297 212.508 32.9297C211.102 32.9297 210.211 31.9219 210.211 30.3594V29.1406ZM214.805 32.7031V34H216.109V22.1953H214.758V26.8359H214.617C214.242 25.9062 213.344 25.3828 212.117 25.3828C210.156 25.3828 208.875 26.7969 208.875 28.9688V30.5469C208.875 32.7266 210.156 34.1406 212.117 34.1406C213.328 34.1406 214.219 33.6406 214.656 32.7031H214.805ZM222.633 26.5078C224 26.5078 224.828 27.4844 224.828 29.1016H220.367C220.367 27.4766 221.219 26.5078 222.633 26.5078ZM224.828 31.8125C224.594 32.5547 223.805 33.0078 222.734 33.0078C221.289 33.0078 220.367 32.0078 220.367 30.4531V30.1094H226.141V29.2812C226.141 26.8281 224.844 25.3672 222.641 25.3672C220.484 25.3672 219.055 26.8359 219.055 29.0703V30.3438C219.055 32.7578 220.406 34.1562 222.734 34.1562C224.516 34.1562 225.859 33.2109 226.117 31.8125H224.828ZM232.078 27.6875V25.5234H228.914V26.5859H230.797V32.9375H229.086V34H230.797H232.094H234.719V32.9375H232.094V30.2031C232.094 28.0469 233.203 26.75 235.078 26.75C235.539 26.75 236.086 26.8438 236.477 26.9844V25.4922C236.195 25.375 235.734 25.3047 235.25 25.3047C233.617 25.3047 232.562 26.1172 232.25 27.6875H232.078ZM152.055 53H153.383V45.6797H157.109V44.5469H153.367V43.6719C153.367 42.8203 153.992 42.3828 155.172 42.3828C155.648 42.3828 156.742 42.4141 157.109 42.4531V41.3672C156.828 41.3281 155.648 41.2891 155.156 41.2891C153.07 41.2891 152.055 42.0547 152.055 43.6953V44.5469H149.781V45.6797H152.055V53ZM164.516 53H165.773V50.6172H167.5V49.4062H165.781V46.2031H164.531V49.4219H160.836V49.3203L164.609 41.7266H163.203L159.375 49.5V50.6172H164.516V53ZM181.531 42.25V44.5469H179.273V45.6797H181.531V50.4766C181.531 52.2422 182.508 53.0391 184.609 53.0391C185.016 53.0391 186.047 53 186.258 52.9609V51.8359C186.031 51.8594 185.18 51.8828 184.703 51.8828C183.508 51.8828 182.859 51.3828 182.859 50.4609V45.6797H186.281V44.5469H182.844V42.25H181.531ZM192.961 45.5078C194.328 45.5078 195.156 46.4844 195.156 48.1016H190.695C190.695 46.4766 191.547 45.5078 192.961 45.5078ZM195.156 50.8125C194.922 51.5547 194.133 52.0078 193.062 52.0078C191.617 52.0078 190.695 51.0078 190.695 49.4531V49.1094H196.469V48.2812C196.469 45.8281 195.172 44.3672 192.969 44.3672C190.812 44.3672 189.383 45.8359 189.383 48.0703V49.3438C189.383 51.7578 190.734 53.1562 193.062 53.1562C194.844 53.1562 196.188 52.2109 196.445 50.8125H195.156ZM202.789 49.7344L204.922 53H206.461L203.539 48.7031L206.438 44.5234H204.945L202.844 47.7344H202.734L200.625 44.5234H199.055L201.984 48.7578L199.078 53H200.547L202.688 49.7344H202.789ZM211.203 42.25V44.5469H208.945V45.6797H211.203V50.4766C211.203 52.2422 212.18 53.0391 214.281 53.0391C214.688 53.0391 215.719 53 215.93 52.9609V51.8359C215.703 51.8594 214.852 51.8828 214.375 51.8828C213.18 51.8828 212.531 51.3828 212.531 50.4609V45.6797H215.953V44.5469H212.516V42.25H211.203ZM226.672 48.6172V47.3828H218.406V48.6172H226.672ZM237.008 44.5234H235.711L234.562 51.3203H234.422L233.055 44.5312H231.805L230.438 51.3203H230.297L229.148 44.5234H227.852L229.672 53H230.945L232.383 46.3906H232.477L233.914 53H235.188L237.008 44.5234ZM238.844 53H240.172V48.0156C240.172 46.5703 241.117 45.5938 242.516 45.5938C243.844 45.5938 244.469 46.3203 244.469 47.8438V53H245.797V47.5078C245.797 45.4844 244.797 44.375 242.953 44.375C241.656 44.375 240.68 44.9688 240.234 46.0234H240.125V41.1953H238.844V53ZM252.359 42.4453C252.984 42.4453 253.461 41.9766 253.461 41.3516C253.461 40.7344 252.984 40.2656 252.359 40.2656C251.734 40.2656 251.258 40.7344 251.258 41.3516C251.258 41.9766 251.734 42.4453 252.359 42.4453ZM255.914 53V51.8984H253.109V44.5234H248.914V45.625H251.797V51.8984H248.891V53H255.914ZM260.656 42.25V44.5469H258.398V45.6797H260.656V50.4766C260.656 52.2422 261.633 53.0391 263.734 53.0391C264.141 53.0391 265.172 53 265.383 52.9609V51.8359C265.156 51.8594 264.305 51.8828 263.828 51.8828C262.633 51.8828 261.984 51.3828 261.984 50.4609V45.6797H265.406V44.5469H261.969V42.25H260.656ZM272.086 45.5078C273.453 45.5078 274.281 46.4844 274.281 48.1016H269.82C269.82 46.4766 270.672 45.5078 272.086 45.5078ZM274.281 50.8125C274.047 51.5547 273.258 52.0078 272.188 52.0078C270.742 52.0078 269.82 51.0078 269.82 49.4531V49.1094H275.594V48.2812C275.594 45.8281 274.297 44.3672 272.094 44.3672C269.938 44.3672 268.508 45.8359 268.508 48.0703V49.3438C268.508 51.7578 269.859 53.1562 272.188 53.1562C273.969 53.1562 275.312 52.2109 275.57 50.8125H274.281ZM143.625 130C146.047 130 147.484 128.828 147.484 126.852C147.484 125.344 146.492 124.242 144.977 124.094V123.977C146.109 123.781 146.914 122.758 146.914 121.516C146.914 119.766 145.664 118.727 143.586 118.727H139.938V130H143.625ZM141.305 119.914H143.273C144.711 119.914 145.523 120.578 145.523 121.758C145.523 122.945 144.664 123.594 143.062 123.594H141.305V119.914ZM141.305 128.805V124.742H143.281C145.109 124.742 146.055 125.43 146.055 126.758C146.055 128.102 145.117 128.805 143.328 128.805H141.305ZM153.305 130.156C155.547 130.156 156.977 128.695 156.977 126.406V125.125C156.977 122.836 155.547 121.375 153.305 121.375C151.062 121.375 149.633 122.836 149.633 125.125V126.406C149.633 128.695 151.062 130.156 153.305 130.156ZM153.305 122.547C154.758 122.547 155.664 123.578 155.664 125.242V126.281C155.664 127.953 154.758 128.977 153.305 128.977C151.852 128.977 150.945 127.953 150.945 126.281V125.242C150.945 123.578 151.852 122.547 153.305 122.547ZM163.227 126.734L165.359 130H166.898L163.977 125.703L166.875 121.523H165.383L163.281 124.734H163.172L161.062 121.523H159.492L162.422 125.758L159.516 130H160.984L163.125 126.734H163.227ZM177.219 125.617V124.383H168.953V125.617H177.219ZM183.508 130.141C185.469 130.141 186.75 128.727 186.75 126.547V124.969C186.75 122.797 185.469 121.383 183.508 121.383C182.281 121.383 181.383 121.906 181.008 122.836H180.867V118.195H179.516V130H180.82V128.703H180.969C181.406 129.641 182.297 130.141 183.508 130.141ZM183.117 128.93C181.727 128.93 180.836 127.93 180.836 126.359V125.141C180.836 123.578 181.727 122.578 183.117 122.578C184.523 122.578 185.414 123.578 185.414 125.141V126.359C185.414 127.922 184.523 128.93 183.117 128.93ZM192.867 130.156C195.109 130.156 196.539 128.695 196.539 126.406V125.125C196.539 122.836 195.109 121.375 192.867 121.375C190.625 121.375 189.195 122.836 189.195 125.125V126.406C189.195 128.695 190.625 130.156 192.867 130.156ZM192.867 122.547C194.32 122.547 195.227 123.578 195.227 125.242V126.281C195.227 127.953 194.32 128.977 192.867 128.977C191.414 128.977 190.508 127.953 190.508 126.281V125.242C190.508 123.578 191.414 122.547 192.867 122.547ZM200.32 125.141C200.32 123.578 201.211 122.578 202.617 122.578C204.008 122.578 204.898 123.578 204.898 125.141V126.359C204.898 127.93 204.008 128.93 202.617 128.93C201.211 128.93 200.32 127.922 200.32 126.359V125.141ZM204.914 128.703V130H206.219V118.195H204.867V122.836H204.727C204.352 121.906 203.453 121.383 202.227 121.383C200.266 121.383 198.984 122.797 198.984 124.969V126.547C198.984 128.727 200.266 130.141 202.227 130.141C203.438 130.141 204.328 129.641 204.766 128.703H204.914ZM210.273 133.016C211.844 133.016 212.555 132.398 213.297 130.312L216.492 121.523H215.078L212.711 128.617H212.609L210.234 121.523H208.789L211.906 130.055L211.758 130.516C211.406 131.5 210.969 131.859 210.172 131.859C210.047 131.859 209.805 131.852 209.703 131.828V132.992C209.82 133.008 210.078 133.016 210.273 133.016Z" transform="translate(-1 -2)" fill="#79B8FF"/>
</svg>
