<svg width="400" height="220" viewBox="0 0 400 220" fill="none" xmlns="http://www.w3.org/2000/svg">
<rect width="400" height="220" fill="#1B1F23"/>
<rect x="115" y="25" width="170" height="170" fill="#1B1F23" stroke="#79B8FF"/>
<circle r="4.88942" transform="matrix(-1 0 0 1 260.941 56.8579)" stroke="#2188FF" stroke-width="2"/>
<rect width="9.77885" height="9.77885" transform="matrix(-1 0 0.000289166 1 145.225 171.352)" stroke="#2188FF" stroke-width="2" stroke-linejoin="round"/>
<rect width="24" height="20" transform="matrix(-1 0 0 1 293.895 159.536)" fill="#005CC5"/>
<rect width="32" height="20" transform="matrix(-1 0 0 1 253.895 159.536)" fill="#005CC5"/>
<rect width="61.5253" height="16" transform="matrix(-1 0 0 1 204.564 61.7473)" fill="#044289"/>
<rect width="20.3726" height="16" transform="matrix(-1 0 0 1 126.741 61.7473)" fill="#044289"/>
<path d="M151.336 171.759C151.336 168.5 157.856 168.5 157.856 165.24C157.856 161.98 151.336 161.98 151.336 158.721C151.336 155.461 157.856 155.461 157.856 152.202C157.856 148.942 151.336 148.942 151.336 145.682C151.336 142.423 157.856 142.423 157.856 139.163" stroke="#C8E1FF" stroke-linecap="round" stroke-linejoin="round"/>
<path d="M148.281 50.5423C188.618 22.8356 253.236 36.9484 258.393 87.4328C259.515 98.4179 251.779 120.046 224.882 103.715C199.268 88.1631 164.294 107.491 169.264 139.571C171.505 154.035 190.248 162.181 199.008 162.181" stroke="#C8E1FF"/>
<path d="M251.977 99.2329V94.7509L256.255 93.1211L260.533 94.1397V99.2329L256.459 100.455L251.977 99.2329Z" fill="#1B1F23"/>
<path fill-rule="evenodd" clip-rule="evenodd" d="M251.773 94.5084V99.0739C251.773 99.349 251.957 99.5873 252.232 99.6668L256.204 100.724C256.302 100.755 256.412 100.755 256.51 100.724L260.483 99.6668C260.758 99.5873 260.941 99.349 260.941 99.0739V94.5084C260.941 94.2334 260.758 93.995 260.483 93.9156L256.51 92.8521C256.412 92.8338 256.302 92.8338 256.204 92.8521L252.232 93.9156C251.957 93.995 251.773 94.2334 251.773 94.5084ZM256.052 100.064L252.384 99.0922V94.9546L256.052 95.9386V100.064ZM252.384 94.3433L253.912 93.9339L257.885 94.9912L256.357 95.4007L252.384 94.3433ZM260.33 99.0922L256.663 100.064V95.9386L257.885 95.6024V97.0937L259.107 96.7698V95.2785L260.33 94.9546V99.0922ZM259.107 94.6672L255.135 93.6099L256.357 93.286L260.33 94.3433L259.107 94.6672Z" fill="#79B8FF"/>
<path fill-rule="evenodd" clip-rule="evenodd" d="M208.38 149.35H210.417V151.387H208.38V149.35ZM204.305 149.35H206.342V151.387H204.305V149.35ZM200.231 149.35H202.268V151.387H200.231V149.35ZM224.678 169.722H200.231V153.424H224.678V169.722ZM224.678 151.387H212.454V149.35H224.678V151.387ZM226.715 149.35C226.715 148.229 225.798 147.312 224.678 147.312H200.231C199.11 147.312 198.193 148.229 198.193 149.35V169.722C198.193 170.843 199.11 171.759 200.231 171.759H224.678C225.798 171.759 226.715 170.843 226.715 169.722V149.35Z" fill="#79B8FF"/>
<path fill-rule="evenodd" clip-rule="evenodd" d="M145.36 46.7988H135.174C134.427 46.7988 133.816 47.4062 133.816 48.1485V64.3447C133.816 65.0871 134.427 65.6944 135.174 65.6944H148.756C149.503 65.6944 150.114 65.0871 150.114 64.3447V51.5227L145.36 46.7988ZM148.756 64.3448H135.174V48.1486H144.681L148.756 52.1976V64.3448ZM140.607 54.87L138.57 56.9215L140.607 58.946L139.928 60.2957L136.532 56.9215L139.928 53.5473L140.607 54.87ZM144.002 53.5473L147.398 56.9215L144.002 60.2957L143.323 58.973L145.36 56.9215L143.323 54.897L144.002 53.5473Z" fill="#79B8FF"/>
</svg>
