<svg width="400" height="220" viewBox="0 0 400 220" fill="none" xmlns="http://www.w3.org/2000/svg">
<rect width="400" height="220" fill="#1B1F23"/>
<rect x="115" y="25" width="170" height="170" fill="#1B1F23" stroke="#79B8FF"/>
<rect width="6" height="6" transform="matrix(-1 0 0.000289166 1 147 128)" stroke="#2188FF" stroke-width="2" stroke-linejoin="round"/>
<path d="M132.336 81.7593C132.336 78.4997 138.856 78.4997 138.856 75.24C138.856 71.9804 132.336 71.9804 132.336 68.7208C132.336 65.4612 138.856 65.4612 138.856 62.2016C138.856 58.942 132.336 58.942 132.336 55.6823C132.336 52.4227 138.856 52.4227 138.856 49.1631" stroke="#C8E1FF" stroke-linecap="round" stroke-linejoin="round"/>
<path d="M255.777 140.074C253.699 140.074 253.699 136 251.622 136C249.544 136 249.544 140.074 247.466 140.074C245.389 140.074 245.389 136 243.311 136C241.233 136 241.233 140.074 239.155 140.074C237.078 140.074 237.078 136 235 136" stroke="#2188FF" stroke-width="2" stroke-linecap="round" stroke-linejoin="round"/>
<rect x="263" y="76" width="36" height="16" fill="#044289"/>
<rect x="231" y="76" width="24" height="16" fill="#044289"/>
<rect x="93" y="154" width="48" height="24" fill="#005CC5"/>
<rect x="149" y="154" width="48" height="24" fill="#005CC5"/>
<circle cx="132" cy="138" r="4" stroke="#C8E1FF"/>
<path d="M250.167 60L248 56L250.167 52L254.5 52L256.667 56L254.5 60H250.167Z" stroke="#2188FF" stroke-width="2" stroke-linecap="round" stroke-linejoin="round"/>
<path d="M148.477 42.8979H155.87L158.95 45.8699V55.2317H148.477V42.8979Z" fill="#1B1F23"/>
<path fill-rule="evenodd" clip-rule="evenodd" d="M156.093 41.9487H148.952C148.428 41.9487 148 42.3757 148 42.8975V54.2825C148 54.8043 148.428 55.2313 148.952 55.2313H158.473C158.997 55.2313 159.426 54.8043 159.426 54.2825V45.2694L156.093 41.9487ZM158.473 54.2825H148.952V42.8975H155.617L158.473 45.7437V54.2825ZM152.761 47.6223L151.332 49.0644L152.761 50.4875L152.285 51.4363L149.904 49.0644L152.285 46.6925L152.761 47.6223ZM155.141 46.6925L157.521 49.0644L155.141 51.4363L154.665 50.5065L156.093 49.0644L154.665 47.6412L155.141 46.6925Z" fill="#79B8FF"/>
<path d="M261.226 49L254 37L268.451 37L261.226 49Z" stroke="#C8E1FF" stroke-linejoin="round"/>
<path fill-rule="evenodd" clip-rule="evenodd" d="M266.75 173.5C266.023 173.5 265.483 173.815 265.1 174.25C264.718 174.685 264.515 174.94 264.5 175C264.485 174.94 264.29 174.685 263.9 174.25C263.51 173.815 263.023 173.5 262.25 173.5C261.026 173.564 260.035 174.5 260 175.75C260 176.14 260.068 176.89 260.502 177.753C260.938 178.615 262.257 179.957 264.5 181.75C266.735 179.957 268.078 178.622 268.505 177.753C268.932 176.883 269 176.125 269 175.75C268.965 174.483 267.994 173.565 266.75 173.5Z" fill="#79B8FF"/>
<rect x="137" y="97" width="12" height="9" fill="#1B1F23"/>
<path d="M164.52 101V121.16L167.12 121.17V111.57H173.37V109.03H167.11V103.53H175.26V101H164.52ZM179.92 105.1C180.371 105.1 180.803 104.921 181.122 104.602C181.441 104.283 181.62 103.851 181.62 103.4C181.62 102.949 181.441 102.517 181.122 102.198C180.803 101.879 180.371 101.7 179.92 101.7C179.469 101.7 179.037 101.879 178.718 102.198C178.399 102.517 178.22 102.949 178.22 103.4C178.22 103.851 178.399 104.283 178.718 104.602C179.037 104.921 179.469 105.1 179.92 105.1ZM178.61 107.63V121.17H181.21V107.63H178.61Z" fill="#79B8FF"/>
<path fill-rule="evenodd" clip-rule="evenodd" d="M190.82 107.24C187.38 107.24 184.98 110.15 184.98 113.61C184.98 117.07 187.38 119.98 190.82 119.98C192.4 119.98 193.7 119.38 194.65 118.38V120.18C194.657 120.718 194.557 121.252 194.356 121.751C194.155 122.249 193.857 122.704 193.479 123.087C193.102 123.47 192.652 123.774 192.156 123.983C191.66 124.191 191.128 124.299 190.59 124.3C189.76 124.3 188.94 123.98 188.29 123.52L186.99 125.77C187.995 126.42 189.157 126.786 190.353 126.831C191.549 126.875 192.735 126.596 193.786 126.022C194.837 125.449 195.713 124.602 196.323 123.572C196.932 122.542 197.253 121.367 197.25 120.17V107.64H194.65V108.85C193.7 107.85 192.4 107.25 190.82 107.25V107.24ZM187.57 113.61C187.57 111.46 189.21 109.77 191.11 109.77C193.01 109.77 194.64 111.47 194.64 113.61C194.64 115.76 193 117.44 191.11 117.44C189.21 117.44 187.57 115.76 187.57 113.61Z" fill="#79B8FF"/>
<path d="M206.59 109.77C205.846 109.783 205.138 110.089 204.618 110.62C204.097 111.151 203.807 111.866 203.81 112.61V121.17H201.21V107.63H203.81V108.87C204.199 108.354 204.704 107.938 205.285 107.655C205.865 107.372 206.504 107.229 207.15 107.24C208.97 107.24 210.37 108.14 211.17 109.52C211.616 108.828 212.227 108.258 212.948 107.86C213.669 107.462 214.477 107.249 215.3 107.24C218.25 107.24 220.1 109.62 220.1 112.57V121.17H217.52V112.6C217.523 111.856 217.233 111.141 216.712 110.61C216.192 110.079 215.484 109.773 214.74 109.76C213.996 109.773 213.288 110.079 212.768 110.61C212.247 111.141 211.957 111.856 211.96 112.6V121.16H209.36V112.6C209.363 111.858 209.074 111.145 208.556 110.613C208.038 110.082 207.332 109.776 206.59 109.76V109.77Z" fill="#79B8FF"/>
<path fill-rule="evenodd" clip-rule="evenodd" d="M233.93 109.17C233.34 108.554 232.63 108.066 231.844 107.734C231.058 107.402 230.213 107.234 229.36 107.24C225.5 107.24 222.76 110.5 222.76 114.4C222.76 118.3 225.5 121.56 229.36 121.56C230.213 121.564 231.057 121.396 231.843 121.064C232.629 120.732 233.339 120.244 233.93 119.63V121.17H236.52V107.63H233.92V109.17H233.93ZM225.35 114.4C225.35 111.82 227.33 109.77 229.64 109.77C231.94 109.77 233.93 111.82 233.93 114.4C233.93 116.98 231.95 119.02 229.64 119.02C227.34 119.02 225.35 116.98 225.35 114.4Z" fill="#79B8FF"/>
</svg>
