<svg width="400" height="220" viewBox="0 0 400 220" fill="none" xmlns="http://www.w3.org/2000/svg">
<rect width="400" height="220" fill="#1B1F23"/>
<rect x="115" y="25" width="170" height="170" fill="#1B1F23" stroke="#79B8FF"/>
<rect x="125.995" y="143.774" width="19.9811" height="15.18" fill="#044289"/>
<rect x="186.346" y="143.774" width="20.3889" height="15.18" fill="#044289"/>
<rect x="223.046" y="143.774" width="20.7967" height="15.18" fill="#044289"/>
<rect x="162.287" y="143.774" width="7.74779" height="15.18" fill="#044289"/>
<rect x="260.154" y="143.774" width="13.4567" height="15.18" fill="#044289"/>
<rect x="106" y="105.824" width="25.6157" height="22.7701" fill="#005CC5"/>
<rect x="148.693" y="105.824" width="67.8816" height="22.7701" fill="#005CC5"/>
<path fill-rule="evenodd" clip-rule="evenodd" d="M214.754 194.94C220.843 185.522 229.62 151.61 229.62 124.836C229.62 89.6614 215.65 72.1433 209.466 72.1433C203.282 72.1433 189.312 89.6614 189.312 124.836C189.312 151.61 198.089 185.522 204.178 194.94H214.754Z" fill="#2188FF"/>
<mask id="mask0" mask-type="alpha" maskUnits="userSpaceOnUse" x="189" y="72" width="41" height="123">
<path fill-rule="evenodd" clip-rule="evenodd" d="M214.754 194.94C220.843 185.522 229.62 151.61 229.62 124.836C229.62 89.6614 215.65 72.1433 209.466 72.1433C203.282 72.1433 189.312 89.6614 189.312 124.836C189.312 151.61 198.089 185.522 204.178 194.94H214.754Z" fill="#005CC5"/>
</mask>
<g mask="url(#mask0)">
<path d="M210.547 92.9219V107.542C210.547 111.832 207.141 115.309 202.939 115.309C198.737 115.309 195.331 111.832 195.331 107.542V92.9219M213.232 98.8614C213.232 91.7961 207.622 86.0686 200.701 86.0686C193.78 86.0686 188.17 91.7961 188.17 98.8614V116.223C188.17 123.288 193.78 129.016 200.701 129.016C207.622 129.016 213.232 123.288 213.232 116.223V98.8614ZM240.532 148.36C240.532 142.304 235.723 137.395 229.791 137.395H217.26C211.328 137.395 206.519 142.304 206.519 148.36V201.359C206.519 207.415 211.328 212.324 217.26 212.324H229.791C235.723 212.324 240.532 207.415 240.532 201.359V148.36ZM235.161 155.67C235.161 151.633 231.956 148.36 228.001 148.36H220.84C216.886 148.36 213.68 151.633 213.68 155.67V180.342C213.68 184.379 216.886 187.652 220.84 187.652H228.001C231.956 187.652 235.161 184.379 235.161 180.342V155.67ZM233.371 162.067C233.371 159.039 230.967 156.584 228.001 156.584H223.526C220.56 156.584 218.155 159.039 218.155 162.067V175.773C218.155 178.801 220.56 181.256 223.526 181.256H228.001C230.967 181.256 233.371 178.801 233.371 175.773V162.067Z" stroke="#C8E1FF" stroke-linejoin="round"/>
</g>
<path d="M226.897 99.793H192.035C196.415 81.3423 204.985 72.1433 209.466 72.1433C213.947 72.1433 222.517 81.3423 226.897 99.793Z" fill="#044289"/>
<path d="M203.932 75.2087C205.049 75.8077 207.109 76.2094 209.466 76.2094C211.823 76.2094 213.883 75.8077 215 75.2087C212.906 73.1645 210.959 72.1433 209.466 72.1433C209.466 72.1433 209.466 72.1433 209.466 72.1433C207.973 72.1433 206.026 73.1645 203.932 75.2087Z" fill="#032F62"/>
<path d="M210.587 10.4004C210.549 9.95655 210.178 9.61523 209.733 9.61523C209.288 9.61523 208.917 9.95655 208.879 10.4004C208.669 12.9118 207.284 15.8627 205.196 19.1806C203.51 21.8601 201.424 24.6915 199.255 27.636C198.752 28.3193 198.244 29.0088 197.735 29.7038C195.051 33.3736 192.363 37.1854 190.347 40.9775C188.334 44.7636 186.949 48.6069 186.949 52.3363C186.949 64.8757 197.153 75.0353 209.733 75.0353C222.313 75.0353 232.517 64.8757 232.517 52.3363C232.517 48.7166 231.129 44.9282 229.118 41.1677C227.103 37.399 224.416 33.5742 221.733 29.877C221.267 29.2362 220.803 28.5996 220.341 27.9677C218.127 24.9347 215.991 22.0091 214.272 19.248C212.183 15.8939 210.797 12.9137 210.587 10.4004Z" fill="#005CC5"/>
<path d="M225.157 69.0427C221.099 72.7635 215.682 75.0353 209.733 75.0353C197.153 75.0353 186.949 64.8757 186.949 52.3363C186.949 48.6069 188.334 44.7636 190.347 40.9775C191.433 38.9341 192.715 36.8851 194.085 34.8555C196.786 33.8563 199.707 33.3103 202.756 33.3103C216.517 33.3103 227.673 44.4323 227.673 58.152C227.673 62.0584 226.769 65.7542 225.157 69.0427Z" fill="#2188FF"/>
<rect width="11.4053" height="11.4053" transform="matrix(0.708363 -0.705848 0.708158 0.706052 123.236 103.456)" stroke="#C8E1FF" stroke-linejoin="round"/>
<path d="M258.341 121.004L252.629 111.517L264.054 111.517L258.341 121.004Z" stroke="#C8E1FF" stroke-linejoin="round"/>
<path d="M162.176 72.1433C162.176 68.3483 169.793 68.3483 169.793 64.5533C169.793 60.7583 162.176 60.7583 162.176 56.9633C162.176 53.1682 169.793 53.1683 169.793 49.3732C169.793 45.5782 162.176 45.5782 162.176 41.7832C162.176 37.9882 169.793 37.9882 169.793 34.1932" stroke="#C8E1FF" stroke-linecap="round" stroke-linejoin="round"/>
<path d="M237.761 88.4216C235.681 88.4216 235.681 84.3583 233.602 84.3583C231.522 84.3583 231.522 88.4216 229.442 88.4216C227.363 88.4216 227.363 84.3583 225.283 84.3583C223.203 84.3583 223.203 88.4216 221.124 88.4216C219.044 88.4216 219.044 84.3583 216.964 84.3583" stroke="#2188FF" stroke-width="2" stroke-linecap="round" stroke-linejoin="round"/>
<path d="M129.962 66.925L127.899 63.13L129.962 59.335L134.088 59.335L136.151 63.13L134.088 66.925H129.962Z" stroke="#2188FF" stroke-width="2" stroke-linecap="round" stroke-linejoin="round"/>
<rect width="7.61707" height="7.59002" transform="matrix(1 0 -0.000289166 1 248.344 46.0527)" stroke="#2188FF" stroke-width="2" stroke-linejoin="round"/>
<path fill-rule="evenodd" clip-rule="evenodd" d="M177.175 177.264L176.404 176.312C176.283 176.155 176.204 175.97 176.183 175.764L176.047 174.555C175.99 174.057 175.597 173.666 175.098 173.609L173.885 173.474C173.671 173.453 173.485 173.36 173.328 173.239L172.372 172.471C171.979 172.159 171.423 172.159 171.03 172.471L170.074 173.239C169.917 173.36 169.731 173.439 169.524 173.46L168.311 173.595C167.811 173.652 167.419 174.043 167.362 174.541L167.226 175.75C167.205 175.963 167.112 176.148 166.991 176.304L166.22 177.257C165.906 177.648 165.906 178.203 166.22 178.594L166.991 179.547C167.112 179.704 167.191 179.888 167.212 180.095L167.348 181.304C167.405 181.801 167.797 182.192 168.297 182.249L169.51 182.384C169.724 182.406 169.91 182.498 170.067 182.619L171.023 183.387C171.415 183.7 171.972 183.7 172.365 183.387L173.321 182.619C173.478 182.498 173.663 182.42 173.87 182.399L175.084 182.264C175.583 182.207 175.976 181.816 176.033 181.318L176.168 180.109C176.19 179.896 176.283 179.711 176.404 179.554L177.175 178.601C177.489 178.21 177.489 177.656 177.175 177.264ZM170.626 180.783L168.127 178.292L169.198 177.225L170.626 178.648L174.197 175.09L175.268 176.193L170.626 180.783Z" fill="#1B1F23"/>
<path d="M268.339 138.082H275.732L278.813 141.054V150.416H268.339V138.082Z" fill="#1B1F23"/>
<path fill-rule="evenodd" clip-rule="evenodd" d="M275.956 137.133H268.815C268.291 137.133 267.863 137.56 267.863 138.081V149.466C267.863 149.988 268.291 150.415 268.815 150.415H278.336C278.86 150.415 279.288 149.988 279.288 149.466V140.453L275.956 137.133ZM278.336 149.466H268.815V138.081H275.48L278.336 140.928V149.466ZM272.623 142.806L271.195 144.248L272.623 145.671L272.147 146.62L269.767 144.248L272.147 141.876L272.623 142.806ZM275.004 141.876L277.384 144.248L275.004 146.62L274.528 145.69L275.956 144.248L274.528 142.825L275.004 141.876Z" fill="#79B8FF"/>
<path fill-rule="evenodd" clip-rule="evenodd" d="M251.2 47.9503V50.7966H254.057L261.674 43.2065L258.817 40.3603L251.2 47.9503ZM254.057 49.8478H252.152V47.9503H253.104V48.8991H254.057V49.8478ZM263.864 41.0244L262.626 42.2578L259.769 39.4115L261.007 38.1781C261.379 37.8081 261.978 37.8081 262.35 38.1781L263.864 39.6867C264.235 40.0567 264.235 40.6544 263.864 41.0244Z" fill="#79B8FF"/>
</svg>
