<svg width="433" height="390" viewBox="0 0 433 390" fill="none" xmlns="http://www.w3.org/2000/svg">
<rect width="24" height="24" transform="matrix(0.707107 -0.707107 0.706902 0.707311 77.2051 197.008)" stroke="#C8E1FF" stroke-linejoin="round"/>
<path d="M403.197 190.098L391.197 170.098L415.197 170.098L403.197 190.098Z" stroke="#C8E1FF" stroke-linejoin="round"/>
<path d="M136 115C136 107 152 107 152 99C152 91 136 91 136 83C136 75 152 75 152 67C152 59 136 59 136 51C136 43 152 43 152 35" stroke="#C8E1FF" stroke-linecap="round" stroke-linejoin="round"/>
<path d="M294.771 165.316C290.402 165.316 290.402 156.75 286.034 156.75C281.665 156.75 281.665 165.316 277.297 165.316C272.928 165.316 272.928 156.75 268.56 156.75C264.191 156.75 264.191 165.316 259.823 165.316C255.455 165.316 255.455 156.75 251.086 156.75" stroke="#2188FF" stroke-width="2" stroke-linecap="round" stroke-linejoin="round"/>
<path d="M68.3333 120L67.454 120.476C67.6288 120.799 67.9663 121 68.3333 121V120ZM64 112L63.1207 111.524C62.9598 111.821 62.9598 112.179 63.1207 112.476L64 112ZM68.3333 104L68.3333 103C67.9663 103 67.6288 103.201 67.454 103.524L68.3333 104ZM77 104L77.8793 103.524C77.7045 103.201 77.367 103 77 103L77 104ZM81.3333 112L82.2126 112.476C82.3736 112.179 82.3736 111.821 82.2126 111.524L81.3333 112ZM77 120V121C77.367 121 77.7045 120.799 77.8793 120.476L77 120ZM69.2126 119.524L64.8793 111.524L63.1207 112.476L67.454 120.476L69.2126 119.524ZM64.8793 112.476L69.2126 104.476L67.454 103.524L63.1207 111.524L64.8793 112.476ZM68.3333 105L77 105L77 103L68.3333 103L68.3333 105ZM76.1207 104.476L80.454 112.476L82.2126 111.524L77.8793 103.524L76.1207 104.476ZM80.454 111.524L76.1207 119.524L77.8793 120.476L82.2126 112.476L80.454 111.524ZM77 119H68.3333V121H77V119Z" fill="#2188FF"/>
<rect width="16" height="16" transform="matrix(1 0 -0.000289166 1 317 76)" stroke="#2188FF" stroke-width="2" stroke-linejoin="round"/>
<path fill-rule="evenodd" clip-rule="evenodd" d="M167.505 352.59L165.885 350.58C165.63 350.25 165.465 349.86 165.42 349.425L165.135 346.875C165.015 345.825 164.19 345 163.14 344.88L160.59 344.595C160.14 344.55 159.75 344.355 159.42 344.1L157.41 342.48C156.585 341.82 155.415 341.82 154.59 342.48L152.58 344.1C152.25 344.355 151.86 344.52 151.425 344.565L148.875 344.85C147.825 344.97 147 345.795 146.88 346.845L146.595 349.395C146.55 349.845 146.355 350.235 146.1 350.565L144.48 352.575C143.82 353.4 143.82 354.57 144.48 355.395L146.1 357.405C146.355 357.735 146.52 358.125 146.565 358.56L146.85 361.11C146.97 362.16 147.795 362.985 148.845 363.105L151.395 363.39C151.845 363.435 152.235 363.63 152.565 363.885L154.575 365.505C155.4 366.165 156.57 366.165 157.395 365.505L159.405 363.885C159.735 363.63 160.125 363.465 160.56 363.42L163.11 363.135C164.16 363.015 164.985 362.19 165.105 361.14L165.39 358.59C165.435 358.14 165.63 357.75 165.885 357.42L167.505 355.41C168.165 354.585 168.165 353.415 167.505 352.59V352.59ZM153.75 360L148.5 354.75L150.75 352.5L153.75 355.5L161.25 348L163.5 350.325L153.75 360V360Z" fill="#79B8FF"/>
<path d="M359 270H374.529L381 276.265V296H359V270Z" fill="#1B1F23"/>
<path fill-rule="evenodd" clip-rule="evenodd" d="M375 268H360C358.9 268 358 268.9 358 270V294C358 295.1 358.9 296 360 296H380C381.1 296 382 295.1 382 294V275L375 268V268ZM380 294H360V270H374L380 276V294V294ZM368 279.96L365 283L368 286L367 288L362 283L367 278L368 279.96V279.96ZM373 278L378 283L373 288L372 286.04L375 283L372 280L373 278V278Z" fill="#79B8FF"/>
<path fill-rule="evenodd" clip-rule="evenodd" d="M323 80V86H329L345 70L339 64L323 80V80ZM329 84H325V80H327V82H329V84V84ZM349.6 65.4L347 68L341 62L343.6 59.4C344.38 58.62 345.64 58.62 346.42 59.4L349.6 62.58C350.38 63.36 350.38 64.62 349.6 65.4V65.4Z" fill="#79B8FF"/>
</svg>
