<svg width="100%" viewBox="-20 0 253 190" fill="none" xmlns="http://www.w3.org/2000/svg">
  <path d="M45 167C49 167 49 175 53 175C57 175 57 167 61 167C65 167 65 175 69 175C73 175 73 167 77 167C81 167 81 175 85 175" stroke="#005CC5" stroke-linecap="round" stroke-linejoin="round"/>
  <circle cx="132.877" cy="14.3161" r="1.47946" fill="#005CC5"/>
  <circle cx="147.67" cy="14.3161" r="1.47946" fill="#005CC5"/>
  <circle cx="162.464" cy="14.3161" r="1.47946" fill="#005CC5"/>
  <circle cx="177.261" cy="14.3161" r="1.47946" fill="#005CC5"/>
  <circle cx="192.055" cy="14.3161" r="1.47946" fill="#005CC5"/>
  <circle cx="140.272" cy="23.1911" r="1.47946" fill="#005CC5"/>
  <circle cx="155.071" cy="23.1911" r="1.47946" fill="#005CC5"/>
  <circle cx="169.864" cy="23.1911" r="1.47946" fill="#005CC5"/>
  <circle cx="184.659" cy="23.1911" r="1.47946" fill="#005CC5"/>
  <circle cx="199.452" cy="23.1911" r="1.47946" fill="#005CC5"/>
  <circle cx="132.877" cy="32.0708" r="1.47946" fill="#005CC5"/>
  <circle cx="147.67" cy="32.0708" r="1.47946" fill="#005CC5"/>
  <circle cx="162.464" cy="32.0708" r="1.47946" fill="#005CC5"/>
  <circle cx="177.261" cy="32.0708" r="1.47946" fill="#005CC5"/>
  <circle cx="192.055" cy="32.0708" r="1.47946" fill="#005CC5"/>
  <circle cx="140.272" cy="40.9458" r="1.47946" fill="#005CC5"/>
  <circle cx="125.479" cy="23.1911" r="1.47946" fill="#005CC5"/>
  <circle cx="125.479" cy="40.9458" r="1.47946" fill="#005CC5"/>
  <circle cx="155.071" cy="40.9458" r="1.47946" fill="#005CC5"/>
  <circle cx="169.864" cy="40.9458" r="1.47946" fill="#005CC5"/>
  <circle cx="184.659" cy="40.9458" r="1.47946" fill="#005CC5"/>
  <circle cx="199.452" cy="40.9458" r="1.47946" fill="#005CC5"/>
  <circle cx="132.877" cy="49.8217" r="1.47946" fill="#005CC5"/>
  <circle cx="147.67" cy="49.8217" r="1.47946" fill="#005CC5"/>
  <circle cx="162.464" cy="49.8217" r="1.47946" fill="#005CC5"/>
  <circle cx="177.261" cy="49.8217" r="1.47946" fill="#005CC5"/>
  <circle cx="192.055" cy="49.8217" r="1.47946" fill="#005CC5"/>
  <path d="M202.412 24.6697C199.453 24.6697 199.453 18.7518 196.494 18.7518C193.535 18.7518 193.535 24.6697 190.576 24.6697C187.617 24.6697 187.617 18.7518 184.659 18.7518C181.7 18.7518 181.7 24.6697 178.741 24.6697C175.782 24.6697 175.782 18.7518 172.823 18.7518" stroke="#79B8FF" stroke-linecap="round" stroke-linejoin="round"/>
  <path d="M232 42.4246C226.082 42.4246 226.082 30.5889 220.164 30.5889C214.246 30.5889 214.246 42.4246 208.329 42.4246C202.411 42.4246 202.411 30.5889 196.493 30.5889C190.575 30.5889 190.575 42.4246 184.657 42.4246C178.739 42.4246 178.739 30.5889 172.822 30.5889" stroke="#79B8FF" stroke-linecap="round" stroke-linejoin="round"/>
  <rect x="149.151" y="1" width="23.6714" height="17.7535" stroke="#79B8FF" stroke-linejoin="round"/>
  <rect x="149.151" y="45.3848" width="23.6714" height="11.8357" stroke="#79B8FF" stroke-linejoin="round"/>
  <rect x="149.151" y="60.1792" width="23.6714" height="11.8357" stroke="#79B8FF" stroke-linejoin="round"/>
  <rect x="149.151" y="18.7546" width="23.6714" height="11.8357" stroke="#79B8FF" stroke-linejoin="round"/>
  <rect x="149.151" y="30.5911" width="23.6714" height="11.8357" stroke="#79B8FF" stroke-linejoin="round"/>
  <rect y="107" width="24" height="24" fill="#2188FF"/>
  <rect x="24" y="147" width="20" height="16" fill="#044289"/>
  <rect x="84" y="147" width="20" height="16" fill="#044289"/>
  <rect x="120" y="147" width="20" height="16" fill="#044289"/>
  <rect x="60" y="147" width="8" height="16" fill="#044289"/>
  <rect x="156" y="147" width="8" height="16" fill="#044289"/>
  <rect x="44" y="107" width="64" height="24" fill="#2188FF"/>
</svg>
