<svg width="433" height="390" viewBox="0 0 433 390" fill="none" xmlns="http://www.w3.org/2000/svg">
<rect x="60" y="282" width="41.9713" height="32" fill="#044289"/>
<rect x="186.771" y="282" width="42.8279" height="32" fill="#044289"/>
<rect x="263.861" y="282" width="43.6844" height="32" fill="#044289"/>
<rect x="136.234" y="282" width="16.2746" height="32" fill="#044289"/>
<rect x="341.807" y="282" width="28.2664" height="32" fill="#044289"/>
<rect x="41" y="202" width="53.8069" height="48" fill="#005CC5"/>
<rect x="130.678" y="202" width="142.588" height="48" fill="#005CC5"/>
<g data-draggable id="brush">
  <path fill-rule="evenodd" clip-rule="evenodd" d="M246.442 389.86C259.233 370.005 277.67 298.517 277.67 242.078C277.67 167.929 248.324 131 235.335 131C222.346 131 193 167.929 193 242.078C193 298.517 211.437 370.005 224.228 389.86H246.442Z" fill="#2188FF"/>
  <defs>
    <clipPath id="brushMask">
      <path fill-rule="evenodd" clip-rule="evenodd" d="M246.442 389.86C259.233 370.005 277.67 298.517 277.67 242.078C277.67 167.929 248.324 131 235.335 131C222.346 131 193 167.929 193 242.078C193 298.517 211.437 370.005 224.228 389.86H246.442Z" fill="#005CC5"/>
    </clipPath>
  </defs>
  <g clip-path="url(#brushMask)">
  <path d="M206.145 205.622V174.802H205.145V205.622H206.145ZM221.626 221.495C213.088 221.495 206.145 214.4 206.145 205.622H205.145C205.145 214.929 212.513 222.495 221.626 222.495V221.495ZM237.107 205.622C237.107 214.4 230.165 221.495 221.626 221.495V222.495C230.74 222.495 238.107 214.929 238.107 205.622H237.107ZM237.107 174.802V205.622H238.107V174.802H237.107ZM243.748 187.323C243.748 172.164 231.751 159.855 216.926 159.855V160.855C231.176 160.855 242.748 172.694 242.748 187.323H243.748ZM243.748 223.922V187.323H242.748V223.922H243.748ZM216.926 251.389C231.751 251.389 243.748 239.08 243.748 223.922H242.748C242.748 238.551 231.176 250.389 216.926 250.389V251.389ZM190.104 223.922C190.104 239.08 202.101 251.389 216.926 251.389V250.389C202.676 250.389 191.104 238.551 191.104 223.922H190.104ZM190.104 187.323V223.922H191.104V187.323H190.104ZM216.926 159.855C202.101 159.855 190.104 172.164 190.104 187.323H191.104C191.104 172.694 202.676 160.855 216.926 160.855V159.855ZM301.092 291.668C301.092 278.637 290.778 268.053 278.03 268.053V269.053C290.203 269.053 300.092 279.166 300.092 291.668H301.092ZM301.092 403.391V291.668H300.092V403.391H301.092ZM278.03 427.006C290.778 427.006 301.092 416.421 301.092 403.391H300.092C300.092 415.892 290.203 426.006 278.03 426.006V427.006ZM251.708 427.006H278.03V426.006H251.708V427.006ZM228.647 403.391C228.647 416.421 238.961 427.006 251.708 427.006V426.006C239.535 426.006 229.647 415.892 229.647 403.391H228.647ZM228.647 291.668V403.391H229.647V291.668H228.647ZM251.708 268.053C238.961 268.053 228.647 278.637 228.647 291.668H229.647C229.647 279.166 239.535 269.053 251.708 269.053V268.053ZM278.03 268.053H251.708V269.053H278.03V268.053ZM289.811 307.078C289.811 298.302 282.865 291.168 274.27 291.168V292.168C282.29 292.168 288.811 298.832 288.811 307.078H289.811ZM289.811 359.087V307.078H288.811V359.087H289.811ZM274.27 374.997C282.865 374.997 289.811 367.862 289.811 359.087H288.811C288.811 367.333 282.29 373.997 274.27 373.997V374.997ZM259.229 374.997H274.27V373.997H259.229V374.997ZM243.688 359.087C243.688 367.862 250.635 374.997 259.229 374.997V373.997C251.21 373.997 244.688 367.333 244.688 359.087H243.688ZM243.688 307.078V359.087H244.688V307.078H243.688ZM259.229 291.168C250.635 291.168 243.688 298.302 243.688 307.078H244.688C244.688 298.832 251.21 292.168 259.229 292.168V291.168ZM274.27 291.168H259.229V292.168H274.27V291.168ZM286.051 320.562C286.051 313.914 280.788 308.504 274.27 308.504V309.504C280.213 309.504 285.051 314.443 285.051 320.562H286.051ZM286.051 349.455V320.562H285.051V349.455H286.051ZM274.27 361.513C280.788 361.513 286.051 356.103 286.051 349.455H285.051C285.051 355.574 280.213 360.513 274.27 360.513V361.513ZM264.869 361.513H274.27V360.513H264.869V361.513ZM253.089 349.455C253.089 356.103 258.352 361.513 264.869 361.513V360.513C258.927 360.513 254.089 355.574 254.089 349.455H253.089ZM253.089 320.562V349.455H254.089V320.562H253.089ZM264.869 308.504C258.352 308.504 253.089 313.914 253.089 320.562H254.089C254.089 314.443 258.927 309.504 264.869 309.504V308.504ZM274.27 308.504H264.869V309.504H274.27V308.504Z" fill="#C8E1FF"/>
  </g>
  <path d="M271.949 189.286H198.721C207.921 150.392 225.923 131 235.335 131C244.747 131 262.749 150.392 271.949 189.286Z" fill="#044289"/>
  <path d="M223.71 137.462C226.057 138.725 230.385 139.572 235.335 139.572C240.285 139.572 244.613 138.725 246.96 137.462C242.561 133.153 238.471 131 235.335 131C235.335 131 235.335 131 235.335 131C232.199 131 228.11 133.153 223.71 137.462Z" fill="#032F62"/>
  <path d="M281.954 89.2465C281.954 114.676 261.333 135.291 235.895 135.291C210.457 135.291 189.835 114.676 189.835 89.2465C189.835 59.5095 233.976 24.017 235.895 0.994781C237.814 24.017 281.954 60.4688 281.954 89.2465Z" fill="#005CC5" stroke="#005CC5" stroke-width="1.71311" stroke-linecap="round" stroke-linejoin="round"/>
  <mask id="mask1" mask-type="alpha" maskUnits="userSpaceOnUse" x="188" y="0" width="95" height="137">
  <path d="M281.954 89.2465C281.954 114.676 261.333 135.291 235.895 135.291C210.457 135.291 189.835 114.676 189.835 89.2465C189.835 59.5095 233.976 24.017 235.895 0.994781C237.814 24.017 281.954 60.4688 281.954 89.2465Z" fill="#C8E1FF" stroke="#C8E1FF" stroke-width="1.71311"/>
  </mask>
  <g mask="url(#mask1)">
  <ellipse cx="221.24" cy="101.506" rx="52.3403" ry="52.367" fill="#2188FF"/>
  </g>
</g>
</svg>
