<svg width="100%" viewBox="0 0 233 190" fill="none" xmlns="http://www.w3.org/2000/svg">
<path d="M45 167C49 167 49 175 53 175C57 175 57 167 61 167C65 167 65 175 69 175C73 175 73 167 77 167C81 167 81 175 85 175" stroke="#005CC5" stroke-linecap="round" stroke-linejoin="round"/>
<circle cx="132.877" cy="14.3161" r="1.47946" fill="#005CC5"/>
<circle cx="147.67" cy="14.3161" r="1.47946" fill="#005CC5"/>
<circle cx="162.464" cy="14.3161" r="1.47946" fill="#005CC5"/>
<circle cx="177.261" cy="14.3161" r="1.47946" fill="#005CC5"/>
<circle cx="192.055" cy="14.3161" r="1.47946" fill="#005CC5"/>
<circle cx="140.272" cy="23.1911" r="1.47946" fill="#005CC5"/>
<circle cx="155.071" cy="23.1911" r="1.47946" fill="#005CC5"/>
<circle cx="169.864" cy="23.1911" r="1.47946" fill="#005CC5"/>
<circle cx="184.659" cy="23.1911" r="1.47946" fill="#005CC5"/>
<circle cx="199.452" cy="23.1911" r="1.47946" fill="#005CC5"/>
<circle cx="132.877" cy="32.0708" r="1.47946" fill="#005CC5"/>
<circle cx="147.67" cy="32.0708" r="1.47946" fill="#005CC5"/>
<circle cx="162.464" cy="32.0708" r="1.47946" fill="#005CC5"/>
<circle cx="177.261" cy="32.0708" r="1.47946" fill="#005CC5"/>
<circle cx="192.055" cy="32.0708" r="1.47946" fill="#005CC5"/>
<circle cx="140.272" cy="40.9458" r="1.47946" fill="#005CC5"/>
<circle cx="125.479" cy="23.1911" r="1.47946" fill="#005CC5"/>
<circle cx="125.479" cy="40.9458" r="1.47946" fill="#005CC5"/>
<circle cx="155.071" cy="40.9458" r="1.47946" fill="#005CC5"/>
<circle cx="169.864" cy="40.9458" r="1.47946" fill="#005CC5"/>
<circle cx="184.659" cy="40.9458" r="1.47946" fill="#005CC5"/>
<circle cx="199.452" cy="40.9458" r="1.47946" fill="#005CC5"/>
<circle cx="132.877" cy="49.8217" r="1.47946" fill="#005CC5"/>
<circle cx="147.67" cy="49.8217" r="1.47946" fill="#005CC5"/>
<circle cx="162.464" cy="49.8217" r="1.47946" fill="#005CC5"/>
<circle cx="177.261" cy="49.8217" r="1.47946" fill="#005CC5"/>
<circle cx="192.055" cy="49.8217" r="1.47946" fill="#005CC5"/>
<path d="M202.412 24.6697C199.453 24.6697 199.453 18.7518 196.494 18.7518C193.535 18.7518 193.535 24.6697 190.576 24.6697C187.617 24.6697 187.617 18.7518 184.659 18.7518C181.7 18.7518 181.7 24.6697 178.741 24.6697C175.782 24.6697 175.782 18.7518 172.823 18.7518" stroke="#79B8FF" stroke-linecap="round" stroke-linejoin="round"/>
<path d="M232 42.4246C226.082 42.4246 226.082 30.5889 220.164 30.5889C214.246 30.5889 214.246 42.4246 208.329 42.4246C202.411 42.4246 202.411 30.5889 196.493 30.5889C190.575 30.5889 190.575 42.4246 184.657 42.4246C178.739 42.4246 178.739 30.5889 172.822 30.5889" stroke="#79B8FF" stroke-linecap="round" stroke-linejoin="round"/>
<rect x="149.151" y="1" width="23.6714" height="17.7535" stroke="#79B8FF" stroke-linejoin="round"/>
<rect x="149.151" y="45.3848" width="23.6714" height="11.8357" stroke="#79B8FF" stroke-linejoin="round"/>
<rect x="149.151" y="60.1792" width="23.6714" height="11.8357" stroke="#79B8FF" stroke-linejoin="round"/>
<rect x="149.151" y="18.7546" width="23.6714" height="11.8357" stroke="#79B8FF" stroke-linejoin="round"/>
<rect x="149.151" y="30.5911" width="23.6714" height="11.8357" stroke="#79B8FF" stroke-linejoin="round"/>
<rect y="107" width="24" height="24" fill="#2188FF"/>
<rect x="24" y="147" width="20" height="16" fill="#044289"/>
<rect x="84" y="147" width="20" height="16" fill="#044289"/>
<rect x="120" y="147" width="20" height="16" fill="#044289"/>
<rect x="60" y="147" width="8" height="16" fill="#044289"/>
<rect x="156" y="147" width="8" height="16" fill="#044289"/>
<rect x="44" y="107" width="64" height="24" fill="#2188FF"/>
<rect x="22.3137" y="91" width="16" height="16" transform="rotate(45 22.3137 91)" stroke="#C8E1FF" stroke-linejoin="round"/>
<path d="M146 139.66L154.66 154.66L163.321 139.66L146 139.66Z" stroke="#C8E1FF" stroke-linecap="round" stroke-linejoin="round"/>
<path fill-rule="evenodd" clip-rule="evenodd" d="M111.247 190C117.29 180.642 126 146.951 126 120.351C126 85.4048 112.136 68.0005 106 68.0005C99.8637 68.0005 86 85.4048 86 120.351C86 146.951 94.7101 180.642 100.753 190H111.247Z" fill="#005CC5"/>
<mask id="mask0" mask-type="alpha" maskUnits="userSpaceOnUse" x="86" y="68" width="40" height="122">
<path fill-rule="evenodd" clip-rule="evenodd" d="M111.247 190C117.29 180.642 126 146.951 126 120.351C126 85.4048 112.136 68.0005 106 68.0005C99.8637 68.0005 86 85.4048 86 120.351C86 146.951 94.7101 180.642 100.753 190H111.247Z" fill="#005CC5"/>
</mask>
<g mask="url(#mask0)">
<path fill-rule="evenodd" clip-rule="evenodd" d="M106.889 90.761C106.889 86.487 103.506 83.0222 99.3336 83.0222C95.1608 83.0222 91.7781 86.487 91.7781 90.761V105.328C91.7781 109.602 95.1608 113.067 99.3336 113.067C103.506 113.067 106.889 109.602 106.889 105.328V90.761ZM99.3336 83.9327C103.016 83.9327 106 86.9898 106 90.761V105.328C106 109.099 103.016 112.157 99.3336 112.157C95.6517 112.157 92.667 109.099 92.667 105.328V90.761C92.667 86.9898 95.6517 83.9327 99.3336 83.9327Z" fill="#79B8FF"/>
<path fill-rule="evenodd" clip-rule="evenodd" d="M110.445 96.6789C110.445 89.1365 104.475 83.0222 97.1114 83.0222C89.7476 83.0222 83.7781 89.1365 83.7781 96.6789V113.977C83.7781 121.52 89.7476 127.634 97.1114 127.634C104.475 127.634 110.445 121.52 110.445 113.977V96.6789ZM97.1114 83.9327C103.984 83.9327 109.556 89.6394 109.556 96.6789V113.977C109.556 121.017 103.984 126.724 97.1114 126.724C90.2385 126.724 84.667 121.017 84.667 113.977V96.6789C84.667 89.6394 90.2385 83.9327 97.1114 83.9327Z" fill="#79B8FF"/>
<path fill-rule="evenodd" clip-rule="evenodd" d="M126 131.731H113.556C107.174 131.731 102 137.03 102 143.567V196.373C102 202.91 107.174 208.209 113.556 208.209H126C132.382 208.209 137.556 202.91 137.556 196.373V143.567C137.556 137.03 132.382 131.731 126 131.731ZM126 132.642C131.891 132.642 136.667 137.533 136.667 143.567V196.373C136.667 202.407 131.891 207.298 126 207.298H113.556C107.665 207.298 102.889 202.407 102.889 196.373V143.567C102.889 137.533 107.665 132.642 113.556 132.642H126Z" fill="#79B8FF"/>
<path fill-rule="evenodd" clip-rule="evenodd" d="M124.223 142.657H117.111C112.693 142.657 109.111 146.325 109.111 150.851V175.433C109.111 179.958 112.693 183.627 117.111 183.627H124.223C128.641 183.627 132.223 179.958 132.223 175.433V150.851C132.223 146.325 128.641 142.657 124.223 142.657ZM124.223 143.567C128.15 143.567 131.334 146.828 131.334 150.851V175.433C131.334 179.455 128.15 182.716 124.223 182.716H117.111C113.184 182.716 110 179.455 110 175.433V150.851C110 146.828 113.184 143.567 117.111 143.567H124.223Z" fill="#79B8FF"/>
<path fill-rule="evenodd" clip-rule="evenodd" d="M124.223 150.851H119.778C116.342 150.851 113.556 153.704 113.556 157.224V170.88C113.556 174.4 116.342 177.254 119.778 177.254H124.223C127.659 177.254 130.445 174.4 130.445 170.88V157.224C130.445 153.704 127.659 150.851 124.223 150.851ZM124.223 151.761C127.168 151.761 129.556 154.207 129.556 157.224V170.88C129.556 173.897 127.168 176.343 124.223 176.343H119.778C116.833 176.343 114.445 173.897 114.445 170.88V157.224C114.445 154.207 116.833 151.761 119.778 151.761H124.223Z" fill="#79B8FF"/>
</g>
<path fill-rule="evenodd" clip-rule="evenodd" d="M123.26 95.3132H88.74C93.0974 77.0872 101.566 68 106 68C110.434 68 118.903 77.0872 123.26 95.3132Z" fill="#044289"/>
<path d="M128 48.0571C128 60.1758 118.15 70 106 70C93.8497 70 84 60.1758 84 48.0571C84 33.8857 105.083 16.9714 106 6C106.917 16.9714 128 34.3429 128 48.0571Z" fill="#005CC5" stroke="#005CC5" stroke-width="2" stroke-linecap="round" stroke-linejoin="round"/>
<mask id="mask1" mask-type="alpha" maskUnits="userSpaceOnUse" x="83" y="5" width="46" height="67">
<path d="M128 48.0571C128 60.1758 118.15 70 106 70C93.8497 70 84 60.1758 84 48.0571C84 33.8857 105.083 16.9714 106 6C106.917 16.9714 128 34.3429 128 48.0571Z" fill="#C8E1FF" stroke="#C8E1FF" stroke-width="2"/>
</mask>
<g mask="url(#mask1)">
<circle cx="98.9863" cy="53.9714" r="24" fill="#79B8FF" stroke="#79B8FF" stroke-width="2"/>
</g>
<path d="M67 37C75 37 75 53 83 53C91 53 91 37 99 37C107 37 107 53 115 53" stroke="#005CC5" stroke-linecap="round"/>
</svg>
