<svg width="433" height="390" viewBox="0 0 433 390" fill="none" xmlns="http://www.w3.org/2000/svg">
<rect x="60" y="282" width="41.9713" height="32" fill="#044289"/>
<rect x="186.771" y="282" width="42.8279" height="32" fill="#044289"/>
<rect x="263.861" y="282" width="43.6844" height="32" fill="#044289"/>
<rect x="136.234" y="282" width="16.2746" height="32" fill="#044289"/>
<rect x="341.807" y="282" width="28.2664" height="32" fill="#044289"/>
<rect x="41" y="202" width="53.8069" height="48" fill="#005CC5"/>
<rect x="130.678" y="202" width="142.588" height="48" fill="#005CC5"/>
<g data-draggable="true" id="brush">
  <path fill-rule="evenodd" clip-rule="evenodd" d="M246.442 389.86C259.233 370.005 277.67 298.517 277.67 242.078C277.67 167.929 248.324 131 235.335 131C222.346 131 193 167.929 193 242.078C193 298.517 211.437 370.005 224.228 389.86H246.442Z" fill="#2188FF"/>
  <defs>
    <clipPath id="brushMask">
      <path fill-rule="evenodd" clip-rule="evenodd" d="M246.442 389.86C259.233 370.005 277.67 298.517 277.67 242.078C277.67 167.929 248.324 131 235.335 131C222.346 131 193 167.929 193 242.078C193 298.517 211.437 370.005 224.228 389.86H246.442Z" fill="#005CC5"/>
    </clipPath>
  </defs>
  <g clip-path="url(#brushMask)">
  <path d="M206.145 205.622V174.802H205.145V205.622H206.145ZM221.626 221.495C213.088 221.495 206.145 214.4 206.145 205.622H205.145C205.145 214.929 212.513 222.495 221.626 222.495V221.495ZM237.107 205.622C237.107 214.4 230.165 221.495 221.626 221.495V222.495C230.74 222.495 238.107 214.929 238.107 205.622H237.107ZM237.107 174.802V205.622H238.107V174.802H237.107ZM243.748 187.323C243.748 172.164 231.751 159.855 216.926 159.855V160.855C231.176 160.855 242.748 172.694 242.748 187.323H243.748ZM243.748 223.922V187.323H242.748V223.922H243.748ZM216.926 251.389C231.751 251.389 243.748 239.08 243.748 223.922H242.748C242.748 238.551 231.176 250.389 216.926 250.389V251.389ZM190.104 223.922C190.104 239.08 202.101 251.389 216.926 251.389V250.389C202.676 250.389 191.104 238.551 191.104 223.922H190.104ZM190.104 187.323V223.922H191.104V187.323H190.104ZM216.926 159.855C202.101 159.855 190.104 172.164 190.104 187.323H191.104C191.104 172.694 202.676 160.855 216.926 160.855V159.855ZM301.092 291.668C301.092 278.637 290.778 268.053 278.03 268.053V269.053C290.203 269.053 300.092 279.166 300.092 291.668H301.092ZM301.092 403.391V291.668H300.092V403.391H301.092ZM278.03 427.006C290.778 427.006 301.092 416.421 301.092 403.391H300.092C300.092 415.892 290.203 426.006 278.03 426.006V427.006ZM251.708 427.006H278.03V426.006H251.708V427.006ZM228.647 403.391C228.647 416.421 238.961 427.006 251.708 427.006V426.006C239.535 426.006 229.647 415.892 229.647 403.391H228.647ZM228.647 291.668V403.391H229.647V291.668H228.647ZM251.708 268.053C238.961 268.053 228.647 278.637 228.647 291.668H229.647C229.647 279.166 239.535 269.053 251.708 269.053V268.053ZM278.03 268.053H251.708V269.053H278.03V268.053ZM289.811 307.078C289.811 298.302 282.865 291.168 274.27 291.168V292.168C282.29 292.168 288.811 298.832 288.811 307.078H289.811ZM289.811 359.087V307.078H288.811V359.087H289.811ZM274.27 374.997C282.865 374.997 289.811 367.862 289.811 359.087H288.811C288.811 367.333 282.29 373.997 274.27 373.997V374.997ZM259.229 374.997H274.27V373.997H259.229V374.997ZM243.688 359.087C243.688 367.862 250.635 374.997 259.229 374.997V373.997C251.21 373.997 244.688 367.333 244.688 359.087H243.688ZM243.688 307.078V359.087H244.688V307.078H243.688ZM259.229 291.168C250.635 291.168 243.688 298.302 243.688 307.078H244.688C244.688 298.832 251.21 292.168 259.229 292.168V291.168ZM274.27 291.168H259.229V292.168H274.27V291.168ZM286.051 320.562C286.051 313.914 280.788 308.504 274.27 308.504V309.504C280.213 309.504 285.051 314.443 285.051 320.562H286.051ZM286.051 349.455V320.562H285.051V349.455H286.051ZM274.27 361.513C280.788 361.513 286.051 356.103 286.051 349.455H285.051C285.051 355.574 280.213 360.513 274.27 360.513V361.513ZM264.869 361.513H274.27V360.513H264.869V361.513ZM253.089 349.455C253.089 356.103 258.352 361.513 264.869 361.513V360.513C258.927 360.513 254.089 355.574 254.089 349.455H253.089ZM253.089 320.562V349.455H254.089V320.562H253.089ZM264.869 308.504C258.352 308.504 253.089 313.914 253.089 320.562H254.089C254.089 314.443 258.927 309.504 264.869 309.504V308.504ZM274.27 308.504H264.869V309.504H274.27V308.504Z" fill="#C8E1FF"/>
  </g>
  <path d="M271.949 189.286H198.721C207.921 150.392 225.923 131 235.335 131C244.747 131 262.749 150.392 271.949 189.286Z" fill="#044289"/>
  <path d="M223.71 137.462C226.057 138.725 230.385 139.572 235.335 139.572C240.285 139.572 244.613 138.725 246.96 137.462C242.561 133.153 238.471 131 235.335 131C235.335 131 235.335 131 235.335 131C232.199 131 228.11 133.153 223.71 137.462Z" fill="#032F62"/>
  <path d="M281.954 89.2465C281.954 114.676 261.333 135.291 235.895 135.291C210.457 135.291 189.835 114.676 189.835 89.2465C189.835 59.5095 233.976 24.017 235.895 0.994781C237.814 24.017 281.954 60.4688 281.954 89.2465Z" fill="#005CC5" stroke="#005CC5" stroke-width="1.71311" stroke-linecap="round" stroke-linejoin="round"/>
  <mask id="mask1" mask-type="alpha" maskUnits="userSpaceOnUse" x="188" y="0" width="95" height="137">
  <path d="M281.954 89.2465C281.954 114.676 261.333 135.291 235.895 135.291C210.457 135.291 189.835 114.676 189.835 89.2465C189.835 59.5095 233.976 24.017 235.895 0.994781C237.814 24.017 281.954 60.4688 281.954 89.2465Z" fill="#C8E1FF" stroke="#C8E1FF" stroke-width="1.71311"/>
  </mask>
  <g mask="url(#mask1)">
  <ellipse cx="221.24" cy="101.506" rx="52.3403" ry="52.367" fill="#2188FF"/>
  </g>
</g>
<rect width="24" height="24" transform="matrix(0.707107 -0.707107 0.706902 0.707311 77.2051 197.008)" stroke="#C8E1FF" stroke-linejoin="round"/>
<path d="M403.197 190.098L391.197 170.098L415.197 170.098L403.197 190.098Z" stroke="#C8E1FF" stroke-linejoin="round"/>
<path d="M136 115C136 107 152 107 152 99C152 91 136 91 136 83C136 75 152 75 152 67C152 59 136 59 136 51C136 43 152 43 152 35" stroke="#C8E1FF" stroke-linecap="round" stroke-linejoin="round"/>
<path d="M294.771 165.316C290.402 165.316 290.402 156.75 286.034 156.75C281.665 156.75 281.665 165.316 277.297 165.316C272.928 165.316 272.928 156.75 268.56 156.75C264.191 156.75 264.191 165.316 259.823 165.316C255.455 165.316 255.455 156.75 251.086 156.75" stroke="#2188FF" stroke-width="2" stroke-linecap="round" stroke-linejoin="round"/>
<path d="M68.3333 120L67.454 120.476C67.6288 120.799 67.9663 121 68.3333 121V120ZM64 112L63.1207 111.524C62.9598 111.821 62.9598 112.179 63.1207 112.476L64 112ZM68.3333 104L68.3333 103C67.9663 103 67.6288 103.201 67.454 103.524L68.3333 104ZM77 104L77.8793 103.524C77.7045 103.201 77.367 103 77 103L77 104ZM81.3333 112L82.2126 112.476C82.3736 112.179 82.3736 111.821 82.2126 111.524L81.3333 112ZM77 120V121C77.367 121 77.7045 120.799 77.8793 120.476L77 120ZM69.2126 119.524L64.8793 111.524L63.1207 112.476L67.454 120.476L69.2126 119.524ZM64.8793 112.476L69.2126 104.476L67.454 103.524L63.1207 111.524L64.8793 112.476ZM68.3333 105L77 105L77 103L68.3333 103L68.3333 105ZM76.1207 104.476L80.454 112.476L82.2126 111.524L77.8793 103.524L76.1207 104.476ZM80.454 111.524L76.1207 119.524L77.8793 120.476L82.2126 112.476L80.454 111.524ZM77 119H68.3333V121H77V119Z" fill="#2188FF"/>
<rect width="16" height="16" transform="matrix(1 0 -0.000289166 1 317 76)" stroke="#2188FF" stroke-width="2" stroke-linejoin="round"/>
<path fill-rule="evenodd" clip-rule="evenodd" d="M167.505 352.59L165.885 350.58C165.63 350.25 165.465 349.86 165.42 349.425L165.135 346.875C165.015 345.825 164.19 345 163.14 344.88L160.59 344.595C160.14 344.55 159.75 344.355 159.42 344.1L157.41 342.48C156.585 341.82 155.415 341.82 154.59 342.48L152.58 344.1C152.25 344.355 151.86 344.52 151.425 344.565L148.875 344.85C147.825 344.97 147 345.795 146.88 346.845L146.595 349.395C146.55 349.845 146.355 350.235 146.1 350.565L144.48 352.575C143.82 353.4 143.82 354.57 144.48 355.395L146.1 357.405C146.355 357.735 146.52 358.125 146.565 358.56L146.85 361.11C146.97 362.16 147.795 362.985 148.845 363.105L151.395 363.39C151.845 363.435 152.235 363.63 152.565 363.885L154.575 365.505C155.4 366.165 156.57 366.165 157.395 365.505L159.405 363.885C159.735 363.63 160.125 363.465 160.56 363.42L163.11 363.135C164.16 363.015 164.985 362.19 165.105 361.14L165.39 358.59C165.435 358.14 165.63 357.75 165.885 357.42L167.505 355.41C168.165 354.585 168.165 353.415 167.505 352.59V352.59ZM153.75 360L148.5 354.75L150.75 352.5L153.75 355.5L161.25 348L163.5 350.325L153.75 360V360Z" fill="#79B8FF"/>
<path d="M359 270H374.529L381 276.265V296H359V270Z" fill="#1B1F23"/>
<path fill-rule="evenodd" clip-rule="evenodd" d="M375 268H360C358.9 268 358 268.9 358 270V294C358 295.1 358.9 296 360 296H380C381.1 296 382 295.1 382 294V275L375 268V268ZM380 294H360V270H374L380 276V294V294ZM368 279.96L365 283L368 286L367 288L362 283L367 278L368 279.96V279.96ZM373 278L378 283L373 288L372 286.04L375 283L372 280L373 278V278Z" fill="#79B8FF"/>
<path fill-rule="evenodd" clip-rule="evenodd" d="M323 80V86H329L345 70L339 64L323 80V80ZM329 84H325V80H327V82H329V84V84ZM349.6 65.4L347 68L341 62L343.6 59.4C344.38 58.62 345.64 58.62 346.42 59.4L349.6 62.58C350.38 63.36 350.38 64.62 349.6 65.4V65.4Z" fill="#79B8FF"/>
</svg>
