<svg xmlns="http://www.w3.org/2000/svg" width="1088" height="429" viewBox="0 0 1088 429" fill="none">
  <g id="Octicons">
    <path id="Vector" d="M682 427.514C687.247 427.514 691.5 423.261 691.5 418.014C691.5 412.767 687.247 408.514 682 408.514C676.753 408.514 672.5 412.767 672.5 418.014C672.5 423.261 676.753 427.514 682 427.514Z" stroke="#0366D6"/>
    <path id="Vector_2" d="M699 404.514C702.038 404.514 704.5 402.052 704.5 399.014C704.5 395.976 702.038 393.514 699 393.514C695.962 393.514 693.5 395.976 693.5 399.014C693.5 402.052 695.962 404.514 699 404.514Z" stroke="#0366D6"/>
    <path id="Vector_3" d="M964 13.5142C967.038 13.5142 969.5 11.0517 969.5 8.01416C969.5 4.97659 967.038 2.51416 964 2.51416C960.962 2.51416 958.5 4.97659 958.5 8.01416C958.5 11.0517 960.962 13.5142 964 13.5142Z" stroke="#0366D6"/>
    <path id="Vector_4" d="M4 16.0142C4 17.1187 3.10457 18.0142 2 18.0142C0.895431 18.0142 0 17.1187 0 16.0142C0 14.9096 0.895431 14.0142 2 14.0142C3.10457 14.0142 4 14.9096 4 16.0142Z" fill="#044289"/>
    <path id="Vector_5" d="M24 16.0142C24 17.1187 23.1046 18.0142 22 18.0142C20.8954 18.0142 20 17.1187 20 16.0142C20 14.9096 20.8954 14.0142 22 14.0142C23.1046 14.0142 24 14.9096 24 16.0142Z" fill="#044289"/>
    <path id="Vector_6" d="M44 16.0142C44 17.1187 43.1046 18.0142 42 18.0142C40.8954 18.0142 40 17.1187 40 16.0142C40 14.9096 40.8954 14.0142 42 14.0142C43.1046 14.0142 44 14.9096 44 16.0142Z" fill="#044289"/>
    <path id="Vector_7" d="M64 16.0142C64 17.1187 63.1046 18.0142 62 18.0142C60.8954 18.0142 60 17.1187 60 16.0142C60 14.9096 60.8954 14.0142 62 14.0142C63.1046 14.0142 64 14.9096 64 16.0142Z" fill="#044289"/>
    <path id="Vector_8" d="M84 16.0142C84 17.1187 83.1046 18.0142 82 18.0142C80.8954 18.0142 80 17.1187 80 16.0142C80 14.9096 80.8954 14.0142 82 14.0142C83.1046 14.0142 84 14.9096 84 16.0142Z" fill="#044289"/>
    <path id="Vector_9" d="M14 28.0142C14 29.1187 13.1046 30.0142 12 30.0142C10.8954 30.0142 10 29.1187 10 28.0142C10 26.9096 10.8954 26.0142 12 26.0142C13.1046 26.0142 14 26.9096 14 28.0142Z" fill="#044289"/>
    <path id="Vector_10" d="M34 28.0142C34 29.1187 33.1046 30.0142 32 30.0142C30.8954 30.0142 30 29.1187 30 28.0142C30 26.9096 30.8954 26.0142 32 26.0142C33.1046 26.0142 34 26.9096 34 28.0142Z" fill="#044289"/>
    <path id="Vector_11" d="M54 28.0142C54 29.1187 53.1046 30.0142 52 30.0142C50.8954 30.0142 50 29.1187 50 28.0142C50 26.9096 50.8954 26.0142 52 26.0142C53.1046 26.0142 54 26.9096 54 28.0142Z" fill="#044289"/>
    <path id="Vector_12" d="M74 28.0142C74 29.1187 73.1046 30.0142 72 30.0142C70.8954 30.0142 70 29.1187 70 28.0142C70 26.9096 70.8954 26.0142 72 26.0142C73.1046 26.0142 74 26.9096 74 28.0142Z" fill="#044289"/>
    <path id="Vector_13" d="M94 28.0142C94 29.1187 93.1046 30.0142 92 30.0142C90.8954 30.0142 90 29.1187 90 28.0142C90 26.9096 90.8954 26.0142 92 26.0142C93.1046 26.0142 94 26.9096 94 28.0142Z" fill="#044289"/>
    <path id="Vector_14" d="M4 40.0142C4 41.1187 3.10457 42.0142 2 42.0142C0.895431 42.0142 0 41.1187 0 40.0142C0 38.9096 0.895431 38.0142 2 38.0142C3.10457 38.0142 4 38.9096 4 40.0142Z" fill="#044289"/>
    <path id="Vector_15" d="M24 40.0142C24 41.1187 23.1046 42.0142 22 42.0142C20.8954 42.0142 20 41.1187 20 40.0142C20 38.9096 20.8954 38.0142 22 38.0142C23.1046 38.0142 24 38.9096 24 40.0142Z" fill="#044289"/>
    <path id="Vector_16" d="M44 40.0142C44 41.1187 43.1046 42.0142 42 42.0142C40.8954 42.0142 40 41.1187 40 40.0142C40 38.9096 40.8954 38.0142 42 38.0142C43.1046 38.0142 44 38.9096 44 40.0142Z" fill="#044289"/>
    <path id="Vector_17" d="M64 40.0142C64 41.1187 63.1046 42.0142 62 42.0142C60.8954 42.0142 60 41.1187 60 40.0142C60 38.9096 60.8954 38.0142 62 38.0142C63.1046 38.0142 64 38.9096 64 40.0142Z" fill="#044289"/>
    <path id="Vector_18" d="M84 40.0142C84 41.1187 83.1046 42.0142 82 42.0142C80.8954 42.0142 80 41.1187 80 40.0142C80 38.9096 80.8954 38.0142 82 38.0142C83.1046 38.0142 84 38.9096 84 40.0142Z" fill="#044289"/>
    <path id="Vector_19" d="M14 52.0142C14 53.1187 13.1046 54.0142 12 54.0142C10.8954 54.0142 10 53.1187 10 52.0142C10 50.9096 10.8954 50.0142 12 50.0142C13.1046 50.0142 14 50.9096 14 52.0142Z" fill="#044289"/>
    <path id="Vector_20" d="M34 52.0142C34 53.1187 33.1046 54.0142 32 54.0142C30.8954 54.0142 30 53.1187 30 52.0142C30 50.9096 30.8954 50.0142 32 50.0142C33.1046 50.0142 34 50.9096 34 52.0142Z" fill="#044289"/>
    <path id="Vector_21" d="M54 52.0142C54 53.1187 53.1046 54.0142 52 54.0142C50.8954 54.0142 50 53.1187 50 52.0142C50 50.9096 50.8954 50.0142 52 50.0142C53.1046 50.0142 54 50.9096 54 52.0142Z" fill="#044289"/>
    <path id="Vector_22" d="M74 52.0142C74 53.1187 73.1046 54.0142 72 54.0142C70.8954 54.0142 70 53.1187 70 52.0142C70 50.9096 70.8954 50.0142 72 50.0142C73.1046 50.0142 74 50.9096 74 52.0142Z" fill="#044289"/>
    <path id="Vector_23" d="M94 52.0142C94 53.1187 93.1046 54.0142 92 54.0142C90.8954 54.0142 90 53.1187 90 52.0142C90 50.9096 90.8954 50.0142 92 50.0142C93.1046 50.0142 94 50.9096 94 52.0142Z" fill="#044289"/>
    <path id="Vector_24" d="M4 64.0142C4 65.1187 3.10457 66.0142 2 66.0142C0.895431 66.0142 0 65.1187 0 64.0142C0 62.9096 0.895431 62.0142 2 62.0142C3.10457 62.0142 4 62.9096 4 64.0142Z" fill="#044289"/>
    <path id="Vector_25" d="M24 64.0142C24 65.1187 23.1046 66.0142 22 66.0142C20.8954 66.0142 20 65.1187 20 64.0142C20 62.9096 20.8954 62.0142 22 62.0142C23.1046 62.0142 24 62.9096 24 64.0142Z" fill="#044289"/>
    <path id="Vector_26" d="M44 64.0142C44 65.1187 43.1046 66.0142 42 66.0142C40.8954 66.0142 40 65.1187 40 64.0142C40 62.9096 40.8954 62.0142 42 62.0142C43.1046 62.0142 44 62.9096 44 64.0142Z" fill="#044289"/>
    <path id="Vector_27" d="M64 64.0142C64 65.1187 63.1046 66.0142 62 66.0142C60.8954 66.0142 60 65.1187 60 64.0142C60 62.9096 60.8954 62.0142 62 62.0142C63.1046 62.0142 64 62.9096 64 64.0142Z" fill="#044289"/>
    <path id="Vector_28" d="M84 64.0142C84 65.1187 83.1046 66.0142 82 66.0142C80.8954 66.0142 80 65.1187 80 64.0142C80 62.9096 80.8954 62.0142 82 62.0142C83.1046 62.0142 84 62.9096 84 64.0142Z" fill="#044289"/>
    <path id="Vector_29" d="M14 76.0142C14 77.1187 13.1046 78.0142 12 78.0142C10.8954 78.0142 10 77.1187 10 76.0142C10 74.9096 10.8954 74.0142 12 74.0142C13.1046 74.0142 14 74.9096 14 76.0142Z" fill="#044289"/>
    <path id="Vector_30" d="M34 76.0142C34 77.1187 33.1046 78.0142 32 78.0142C30.8954 78.0142 30 77.1187 30 76.0142C30 74.9096 30.8954 74.0142 32 74.0142C33.1046 74.0142 34 74.9096 34 76.0142Z" fill="#044289"/>
    <path id="Vector_31" d="M54 76.0142C54 77.1187 53.1046 78.0142 52 78.0142C50.8954 78.0142 50 77.1187 50 76.0142C50 74.9096 50.8954 74.0142 52 74.0142C53.1046 74.0142 54 74.9096 54 76.0142Z" fill="#044289"/>
    <path id="Vector_32" d="M74 76.0142C74 77.1187 73.1046 78.0142 72 78.0142C70.8954 78.0142 70 77.1187 70 76.0142C70 74.9096 70.8954 74.0142 72 74.0142C73.1046 74.0142 74 74.9096 74 76.0142Z" fill="#044289"/>
    <path id="Vector_33" d="M94 76.0142C94 77.1187 93.1046 78.0142 92 78.0142C90.8954 78.0142 90 77.1187 90 76.0142C90 74.9096 90.8954 74.0142 92 74.0142C93.1046 74.0142 94 74.9096 94 76.0142Z" fill="#044289"/>
    <path id="Vector_34" d="M4 88.0142C4 89.1187 3.10457 90.0142 2 90.0142C0.895431 90.0142 0 89.1187 0 88.0142C0 86.9096 0.895431 86.0142 2 86.0142C3.10457 86.0142 4 86.9096 4 88.0142Z" fill="#044289"/>
    <path id="Vector_35" d="M24 88.0142C24 89.1187 23.1046 90.0142 22 90.0142C20.8954 90.0142 20 89.1187 20 88.0142C20 86.9096 20.8954 86.0142 22 86.0142C23.1046 86.0142 24 86.9096 24 88.0142Z" fill="#044289"/>
    <path id="Vector_36" d="M44 88.0142C44 89.1187 43.1046 90.0142 42 90.0142C40.8954 90.0142 40 89.1187 40 88.0142C40 86.9096 40.8954 86.0142 42 86.0142C43.1046 86.0142 44 86.9096 44 88.0142Z" fill="#044289"/>
    <path id="Vector_37" d="M64 88.0142C64 89.1187 63.1046 90.0142 62 90.0142C60.8954 90.0142 60 89.1187 60 88.0142C60 86.9096 60.8954 86.0142 62 86.0142C63.1046 86.0142 64 86.9096 64 88.0142Z" fill="#044289"/>
    <path id="Vector_38" d="M84 88.0142C84 89.1187 83.1046 90.0142 82 90.0142C80.8954 90.0142 80 89.1187 80 88.0142C80 86.9096 80.8954 86.0142 82 86.0142C83.1046 86.0142 84 86.9096 84 88.0142Z" fill="#044289"/>
    <path id="Vector_39" d="M391 342.014C391 343.119 390.105 344.014 389 344.014C387.895 344.014 387 343.119 387 342.014C387 340.91 387.895 340.014 389 340.014C390.105 340.014 391 340.91 391 342.014Z" fill="#044289"/>
    <path id="Vector_40" d="M411 342.014C411 343.119 410.105 344.014 409 344.014C407.895 344.014 407 343.119 407 342.014C407 340.91 407.895 340.014 409 340.014C410.105 340.014 411 340.91 411 342.014Z" fill="#044289"/>
    <path id="Vector_41" d="M431 342.014C431 343.119 430.105 344.014 429 344.014C427.895 344.014 427 343.119 427 342.014C427 340.91 427.895 340.014 429 340.014C430.105 340.014 431 340.91 431 342.014Z" fill="#044289"/>
    <path id="Vector_42" d="M451 342.014C451 343.119 450.105 344.014 449 344.014C447.895 344.014 447 343.119 447 342.014C447 340.91 447.895 340.014 449 340.014C450.105 340.014 451 340.91 451 342.014Z" fill="#044289"/>
    <path id="Vector_43" d="M471 342.014C471 343.119 470.105 344.014 469 344.014C467.895 344.014 467 343.119 467 342.014C467 340.91 467.895 340.014 469 340.014C470.105 340.014 471 340.91 471 342.014Z" fill="#044289"/>
    <path id="Vector_44" d="M401 354.014C401 355.119 400.105 356.014 399 356.014C397.895 356.014 397 355.119 397 354.014C397 352.91 397.895 352.014 399 352.014C400.105 352.014 401 352.91 401 354.014Z" fill="#044289"/>
    <path id="Vector_45" d="M421 354.014C421 355.119 420.105 356.014 419 356.014C417.895 356.014 417 355.119 417 354.014C417 352.91 417.895 352.014 419 352.014C420.105 352.014 421 352.91 421 354.014Z" fill="#044289"/>
    <path id="Vector_46" d="M441 354.014C441 355.119 440.105 356.014 439 356.014C437.895 356.014 437 355.119 437 354.014C437 352.91 437.895 352.014 439 352.014C440.105 352.014 441 352.91 441 354.014Z" fill="#044289"/>
    <path id="Vector_47" d="M461 354.014C461 355.119 460.105 356.014 459 356.014C457.895 356.014 457 355.119 457 354.014C457 352.91 457.895 352.014 459 352.014C460.105 352.014 461 352.91 461 354.014Z" fill="#044289"/>
    <path id="Vector_48" d="M481 354.014C481 355.119 480.105 356.014 479 356.014C477.895 356.014 477 355.119 477 354.014C477 352.91 477.895 352.014 479 352.014C480.105 352.014 481 352.91 481 354.014Z" fill="#044289"/>
    <path id="Vector_49" d="M391 366.014C391 367.119 390.105 368.014 389 368.014C387.895 368.014 387 367.119 387 366.014C387 364.91 387.895 364.014 389 364.014C390.105 364.014 391 364.91 391 366.014Z" fill="#044289"/>
    <path id="Vector_50" d="M411 366.014C411 367.119 410.105 368.014 409 368.014C407.895 368.014 407 367.119 407 366.014C407 364.91 407.895 364.014 409 364.014C410.105 364.014 411 364.91 411 366.014Z" fill="#044289"/>
    <path id="Vector_51" d="M431 366.014C431 367.119 430.105 368.014 429 368.014C427.895 368.014 427 367.119 427 366.014C427 364.91 427.895 364.014 429 364.014C430.105 364.014 431 364.91 431 366.014Z" fill="#044289"/>
    <path id="Vector_52" d="M451 366.014C451 367.119 450.105 368.014 449 368.014C447.895 368.014 447 367.119 447 366.014C447 364.91 447.895 364.014 449 364.014C450.105 364.014 451 364.91 451 366.014Z" fill="#044289"/>
    <path id="Vector_53" d="M471 366.014C471 367.119 470.105 368.014 469 368.014C467.895 368.014 467 367.119 467 366.014C467 364.91 467.895 364.014 469 364.014C470.105 364.014 471 364.91 471 366.014Z" fill="#044289"/>
    <path id="Vector_54" d="M401 378.014C401 379.119 400.105 380.014 399 380.014C397.895 380.014 397 379.119 397 378.014C397 376.91 397.895 376.014 399 376.014C400.105 376.014 401 376.91 401 378.014Z" fill="#044289"/>
    <path id="Vector_55" d="M421 378.014C421 379.119 420.105 380.014 419 380.014C417.895 380.014 417 379.119 417 378.014C417 376.91 417.895 376.014 419 376.014C420.105 376.014 421 376.91 421 378.014Z" fill="#044289"/>
    <path id="Vector_56" d="M441 378.014C441 379.119 440.105 380.014 439 380.014C437.895 380.014 437 379.119 437 378.014C437 376.91 437.895 376.014 439 376.014C440.105 376.014 441 376.91 441 378.014Z" fill="#044289"/>
    <path id="Vector_57" d="M461 378.014C461 379.119 460.105 380.014 459 380.014C457.895 380.014 457 379.119 457 378.014C457 376.91 457.895 376.014 459 376.014C460.105 376.014 461 376.91 461 378.014Z" fill="#044289"/>
    <path id="Vector_58" d="M481 378.014C481 379.119 480.105 380.014 479 380.014C477.895 380.014 477 379.119 477 378.014C477 376.91 477.895 376.014 479 376.014C480.105 376.014 481 376.91 481 378.014Z" fill="#044289"/>
    <path id="Vector_59" d="M391 390.014C391 391.119 390.105 392.014 389 392.014C387.895 392.014 387 391.119 387 390.014C387 388.91 387.895 388.014 389 388.014C390.105 388.014 391 388.91 391 390.014Z" fill="#044289"/>
    <path id="Vector_60" d="M411 390.014C411 391.119 410.105 392.014 409 392.014C407.895 392.014 407 391.119 407 390.014C407 388.91 407.895 388.014 409 388.014C410.105 388.014 411 388.91 411 390.014Z" fill="#044289"/>
    <path id="Vector_61" d="M431 390.014C431 391.119 430.105 392.014 429 392.014C427.895 392.014 427 391.119 427 390.014C427 388.91 427.895 388.014 429 388.014C430.105 388.014 431 388.91 431 390.014Z" fill="#044289"/>
    <path id="Vector_62" d="M451 390.014C451 391.119 450.105 392.014 449 392.014C447.895 392.014 447 391.119 447 390.014C447 388.91 447.895 388.014 449 388.014C450.105 388.014 451 388.91 451 390.014Z" fill="#044289"/>
    <path id="Vector_63" d="M471 390.014C471 391.119 470.105 392.014 469 392.014C467.895 392.014 467 391.119 467 390.014C467 388.91 467.895 388.014 469 388.014C470.105 388.014 471 388.91 471 390.014Z" fill="#044289"/>
    <path id="Vector_64" d="M401 402.014C401 403.119 400.105 404.014 399 404.014C397.895 404.014 397 403.119 397 402.014C397 400.91 397.895 400.014 399 400.014C400.105 400.014 401 400.91 401 402.014Z" fill="#044289"/>
    <path id="Vector_65" d="M421 402.014C421 403.119 420.105 404.014 419 404.014C417.895 404.014 417 403.119 417 402.014C417 400.91 417.895 400.014 419 400.014C420.105 400.014 421 400.91 421 402.014Z" fill="#044289"/>
    <path id="Vector_66" d="M441 402.014C441 403.119 440.105 404.014 439 404.014C437.895 404.014 437 403.119 437 402.014C437 400.91 437.895 400.014 439 400.014C440.105 400.014 441 400.91 441 402.014Z" fill="#044289"/>
    <path id="Vector_67" d="M461 402.014C461 403.119 460.105 404.014 459 404.014C457.895 404.014 457 403.119 457 402.014C457 400.91 457.895 400.014 459 400.014C460.105 400.014 461 400.91 461 402.014Z" fill="#044289"/>
    <path id="Vector_68" d="M481 402.014C481 403.119 480.105 404.014 479 404.014C477.895 404.014 477 403.119 477 402.014C477 400.91 477.895 400.014 479 400.014C480.105 400.014 481 400.91 481 402.014Z" fill="#044289"/>
    <path id="Vector_69" d="M391 414.014C391 415.119 390.105 416.014 389 416.014C387.895 416.014 387 415.119 387 414.014C387 412.91 387.895 412.014 389 412.014C390.105 412.014 391 412.91 391 414.014Z" fill="#044289"/>
    <path id="Vector_70" d="M411 414.014C411 415.119 410.105 416.014 409 416.014C407.895 416.014 407 415.119 407 414.014C407 412.91 407.895 412.014 409 412.014C410.105 412.014 411 412.91 411 414.014Z" fill="#044289"/>
    <path id="Vector_71" d="M431 414.014C431 415.119 430.105 416.014 429 416.014C427.895 416.014 427 415.119 427 414.014C427 412.91 427.895 412.014 429 412.014C430.105 412.014 431 412.91 431 414.014Z" fill="#044289"/>
    <path id="Vector_72" d="M451 414.014C451 415.119 450.105 416.014 449 416.014C447.895 416.014 447 415.119 447 414.014C447 412.91 447.895 412.014 449 412.014C450.105 412.014 451 412.91 451 414.014Z" fill="#044289"/>
    <path id="Vector_73" d="M471 414.014C471 415.119 470.105 416.014 469 416.014C467.895 416.014 467 415.119 467 414.014C467 412.91 467.895 412.014 469 412.014C470.105 412.014 471 412.91 471 414.014Z" fill="#044289"/>
    <path id="Vector_74" d="M1073 292.014C1073 293.119 1073.9 294.014 1075 294.014C1076.1 294.014 1077 293.119 1077 292.014C1077 290.91 1076.1 290.014 1075 290.014C1073.9 290.014 1073 290.91 1073 292.014Z" fill="#044289"/>
    <path id="Vector_75" d="M1053 292.014C1053 293.119 1053.9 294.014 1055 294.014C1056.1 294.014 1057 293.119 1057 292.014C1057 290.91 1056.1 290.014 1055 290.014C1053.9 290.014 1053 290.91 1053 292.014Z" fill="#044289"/>
    <path id="Vector_76" d="M1033 292.014C1033 293.119 1033.9 294.014 1035 294.014C1036.1 294.014 1037 293.119 1037 292.014C1037 290.91 1036.1 290.014 1035 290.014C1033.9 290.014 1033 290.91 1033 292.014Z" fill="#044289"/>
    <path id="Vector_77" d="M1013 292.014C1013 293.119 1013.9 294.014 1015 294.014C1016.1 294.014 1017 293.119 1017 292.014C1017 290.91 1016.1 290.014 1015 290.014C1013.9 290.014 1013 290.91 1013 292.014Z" fill="#044289"/>
    <path id="Vector_78" d="M993 292.014C993 293.119 993.895 294.014 995 294.014C996.105 294.014 997 293.119 997 292.014C997 290.91 996.105 290.014 995 290.014C993.895 290.014 993 290.91 993 292.014Z" fill="#044289"/>
    <path id="Vector_79" d="M1063 304.014C1063 305.119 1063.9 306.014 1065 306.014C1066.1 306.014 1067 305.119 1067 304.014C1067 302.91 1066.1 302.014 1065 302.014C1063.9 302.014 1063 302.91 1063 304.014Z" fill="#044289"/>
    <path id="Vector_80" d="M1043 304.014C1043 305.119 1043.9 306.014 1045 306.014C1046.1 306.014 1047 305.119 1047 304.014C1047 302.91 1046.1 302.014 1045 302.014C1043.9 302.014 1043 302.91 1043 304.014Z" fill="#044289"/>
    <path id="Vector_81" d="M1023 304.014C1023 305.119 1023.9 306.014 1025 306.014C1026.1 306.014 1027 305.119 1027 304.014C1027 302.91 1026.1 302.014 1025 302.014C1023.9 302.014 1023 302.91 1023 304.014Z" fill="#044289"/>
    <path id="Vector_82" d="M1003 304.014C1003 305.119 1003.9 306.014 1005 306.014C1006.1 306.014 1007 305.119 1007 304.014C1007 302.91 1006.1 302.014 1005 302.014C1003.9 302.014 1003 302.91 1003 304.014Z" fill="#044289"/>
    <path id="Vector_83" d="M983 304.014C983 305.119 983.895 306.014 985 306.014C986.105 306.014 987 305.119 987 304.014C987 302.91 986.105 302.014 985 302.014C983.895 302.014 983 302.91 983 304.014Z" fill="#044289"/>
    <path id="Vector_84" d="M1073 316.014C1073 317.119 1073.9 318.014 1075 318.014C1076.1 318.014 1077 317.119 1077 316.014C1077 314.91 1076.1 314.014 1075 314.014C1073.9 314.014 1073 314.91 1073 316.014Z" fill="#044289"/>
    <path id="Vector_85" d="M1053 316.014C1053 317.119 1053.9 318.014 1055 318.014C1056.1 318.014 1057 317.119 1057 316.014C1057 314.91 1056.1 314.014 1055 314.014C1053.9 314.014 1053 314.91 1053 316.014Z" fill="#044289"/>
    <path id="Vector_86" d="M1033 316.014C1033 317.119 1033.9 318.014 1035 318.014C1036.1 318.014 1037 317.119 1037 316.014C1037 314.91 1036.1 314.014 1035 314.014C1033.9 314.014 1033 314.91 1033 316.014Z" fill="#044289"/>
    <path id="Vector_87" d="M1013 316.014C1013 317.119 1013.9 318.014 1015 318.014C1016.1 318.014 1017 317.119 1017 316.014C1017 314.91 1016.1 314.014 1015 314.014C1013.9 314.014 1013 314.91 1013 316.014Z" fill="#044289"/>
    <path id="Vector_88" d="M993 316.014C993 317.119 993.895 318.014 995 318.014C996.105 318.014 997 317.119 997 316.014C997 314.91 996.105 314.014 995 314.014C993.895 314.014 993 314.91 993 316.014Z" fill="#044289"/>
    <path id="Vector_89" d="M1063 328.014C1063 329.119 1063.9 330.014 1065 330.014C1066.1 330.014 1067 329.119 1067 328.014C1067 326.91 1066.1 326.014 1065 326.014C1063.9 326.014 1063 326.91 1063 328.014Z" fill="#044289"/>
    <path id="Vector_90" d="M1043 328.014C1043 329.119 1043.9 330.014 1045 330.014C1046.1 330.014 1047 329.119 1047 328.014C1047 326.91 1046.1 326.014 1045 326.014C1043.9 326.014 1043 326.91 1043 328.014Z" fill="#044289"/>
    <path id="Vector_91" d="M1023 328.014C1023 329.119 1023.9 330.014 1025 330.014C1026.1 330.014 1027 329.119 1027 328.014C1027 326.91 1026.1 326.014 1025 326.014C1023.9 326.014 1023 326.91 1023 328.014Z" fill="#044289"/>
    <path id="Vector_92" d="M1003 328.014C1003 329.119 1003.9 330.014 1005 330.014C1006.1 330.014 1007 329.119 1007 328.014C1007 326.91 1006.1 326.014 1005 326.014C1003.9 326.014 1003 326.91 1003 328.014Z" fill="#044289"/>
    <path id="Vector_93" d="M983 328.014C983 329.119 983.895 330.014 985 330.014C986.105 330.014 987 329.119 987 328.014C987 326.91 986.105 326.014 985 326.014C983.895 326.014 983 326.91 983 328.014Z" fill="#044289"/>
    <path id="Vector_94" d="M1073 340.014C1073 341.119 1073.9 342.014 1075 342.014C1076.1 342.014 1077 341.119 1077 340.014C1077 338.91 1076.1 338.014 1075 338.014C1073.9 338.014 1073 338.91 1073 340.014Z" fill="#044289"/>
    <path id="Vector_95" d="M1053 340.014C1053 341.119 1053.9 342.014 1055 342.014C1056.1 342.014 1057 341.119 1057 340.014C1057 338.91 1056.1 338.014 1055 338.014C1053.9 338.014 1053 338.91 1053 340.014Z" fill="#044289"/>
    <path id="Vector_96" d="M1033 340.014C1033 341.119 1033.9 342.014 1035 342.014C1036.1 342.014 1037 341.119 1037 340.014C1037 338.91 1036.1 338.014 1035 338.014C1033.9 338.014 1033 338.91 1033 340.014Z" fill="#044289"/>
    <path id="Vector_97" d="M1013 340.014C1013 341.119 1013.9 342.014 1015 342.014C1016.1 342.014 1017 341.119 1017 340.014C1017 338.91 1016.1 338.014 1015 338.014C1013.9 338.014 1013 338.91 1013 340.014Z" fill="#044289"/>
    <path id="Vector_98" d="M993 340.014C993 341.119 993.895 342.014 995 342.014C996.105 342.014 997 341.119 997 340.014C997 338.91 996.105 338.014 995 338.014C993.895 338.014 993 338.91 993 340.014Z" fill="#044289"/>
    <path id="Vector_99" d="M1063 352.014C1063 353.119 1063.9 354.014 1065 354.014C1066.1 354.014 1067 353.119 1067 352.014C1067 350.91 1066.1 350.014 1065 350.014C1063.9 350.014 1063 350.91 1063 352.014Z" fill="#044289"/>
    <path id="Vector_100" d="M1043 352.014C1043 353.119 1043.9 354.014 1045 354.014C1046.1 354.014 1047 353.119 1047 352.014C1047 350.91 1046.1 350.014 1045 350.014C1043.9 350.014 1043 350.91 1043 352.014Z" fill="#044289"/>
    <path id="Vector_101" d="M1023 352.014C1023 353.119 1023.9 354.014 1025 354.014C1026.1 354.014 1027 353.119 1027 352.014C1027 350.91 1026.1 350.014 1025 350.014C1023.9 350.014 1023 350.91 1023 352.014Z" fill="#044289"/>
    <path id="Vector_102" d="M1003 352.014C1003 353.119 1003.9 354.014 1005 354.014C1006.1 354.014 1007 353.119 1007 352.014C1007 350.91 1006.1 350.014 1005 350.014C1003.9 350.014 1003 350.91 1003 352.014Z" fill="#044289"/>
    <path id="Vector_103" d="M983 352.014C983 353.119 983.895 354.014 985 354.014C986.105 354.014 987 353.119 987 352.014C987 350.91 986.105 350.014 985 350.014C983.895 350.014 983 350.91 983 352.014Z" fill="#044289"/>
    <path id="Vector_104" d="M1073 364.014C1073 365.119 1073.9 366.014 1075 366.014C1076.1 366.014 1077 365.119 1077 364.014C1077 362.91 1076.1 362.014 1075 362.014C1073.9 362.014 1073 362.91 1073 364.014Z" fill="#044289"/>
    <path id="Vector_105" d="M1053 364.014C1053 365.119 1053.9 366.014 1055 366.014C1056.1 366.014 1057 365.119 1057 364.014C1057 362.91 1056.1 362.014 1055 362.014C1053.9 362.014 1053 362.91 1053 364.014Z" fill="#044289"/>
    <path id="Vector_106" d="M1033 364.014C1033 365.119 1033.9 366.014 1035 366.014C1036.1 366.014 1037 365.119 1037 364.014C1037 362.91 1036.1 362.014 1035 362.014C1033.9 362.014 1033 362.91 1033 364.014Z" fill="#044289"/>
    <path id="Vector_107" d="M1013 364.014C1013 365.119 1013.9 366.014 1015 366.014C1016.1 366.014 1017 365.119 1017 364.014C1017 362.91 1016.1 362.014 1015 362.014C1013.9 362.014 1013 362.91 1013 364.014Z" fill="#044289"/>
    <path id="Vector_108" d="M993 364.014C993 365.119 993.895 366.014 995 366.014C996.105 366.014 997 365.119 997 364.014C997 362.91 996.105 362.014 995 362.014C993.895 362.014 993 362.91 993 364.014Z" fill="#044289"/>
    <path id="Vector_109" d="M166 336.014C158 336.014 158 320.014 150 320.014C142 320.014 142 336.014 134 336.014C126 336.014 126 320.014 118 320.014C110 320.014 110 336.014 102 336.014C94 336.014 94 320.014 86 320.014" stroke="#0366D6" stroke-linecap="round" stroke-linejoin="round"/>
    <path id="Vector_110" d="M295.5 37.5142H40.5V292.514H295.5V37.5142Z" fill="#1B1F23" stroke="#79B8FF"/>
    <path id="Vector_111" d="M671.5 137.514H416.5V392.514H671.5V137.514Z" fill="#1B1F23" stroke="#79B8FF"/>
    <path id="Vector_112" d="M1047.5 77.5142H792.5V332.514H1047.5V77.5142Z" fill="#1B1F23" stroke="#79B8FF"/>
    <path id="Vector_113" d="M132 77.0142H72V125.014H132V77.0142Z" fill="#005CC5"/>
    <path id="Vector_114" d="M1012 189.014H896V221.014H1012V189.014Z" fill="#005CC5"/>
    <path id="Vector_115" d="M164 141.014H132V173.014H164V141.014Z" fill="#044289"/>
    <path id="Vector_116" d="M214 141.014H182V173.014H214V141.014Z" fill="#044289"/>
    <path id="Vector_117" d="M264 141.014H232V173.014H264V141.014Z" fill="#044289"/>
    <path id="Vector_118" d="M648 185.014H588V233.014H648V185.014Z" fill="#005CC5"/>
    <path id="Vector_119" d="M648 249.014H616V281.014H648V249.014Z" fill="#044289"/>
    <path id="Vector_120" d="M440 345.014H500V297.014H440V345.014Z" fill="#005CC5"/>
    <path id="Vector_121" d="M440 281.014H472V249.014H440V281.014Z" fill="#044289"/>
    <path id="Vector_122" d="M264 205.014H214V253.014H264V205.014Z" fill="#044289"/>
    <path id="Vector_123" d="M944 121.014H828V169.014H944V121.014Z" fill="#044289"/>
    <path id="Vector_124" d="M1012 241.014H962V289.014H1012V241.014Z" fill="#044289"/>
    <path data-draggable id="heart" fill-rule="evenodd" clip-rule="evenodd" d="M215 240C213.06 240 211.62 240.84 210.6 242C209.58 243.16 209.04 243.84 209 244C208.96 243.84 208.44 243.16 207.4 242C206.36 240.84 205.06 240 203 240C199.736 240.172 197.093 242.665 197 246C197 247.04 197.18 249.04 198.34 251.34C199.5 253.64 203.02 257.22 209 262C214.96 257.22 218.54 253.66 219.68 251.34C220.82 249.02 221 247 221 246C220.906 242.62 218.316 240.175 215 240Z" fill="#C8E1FF"/>
    <path data-draggable id="zoom" fill-rule="evenodd" clip-rule="evenodd" d="M967.8 342.214L952.56 326.894C955.36 322.974 957 318.214 957 313.014C957 299.774 946.24 289.014 933 289.014C919.76 289.014 909 299.774 909 313.014C909 326.254 919.76 337.014 933 337.014C938.2 337.014 942.92 335.374 946.88 332.574L962.2 347.814C962.96 348.614 964 349.014 965 349.014C966 349.014 967.08 348.654 967.8 347.814C969.36 346.254 969.36 343.734 967.8 342.174V342.214ZM933 331.814C922.64 331.814 914.2 323.374 914.2 313.014C914.2 302.654 922.64 294.214 933 294.214C943.36 294.214 951.8 302.654 951.8 313.014C951.8 323.374 943.36 331.814 933 331.814Z" fill="#C8E1FF"/>
    <path id="bezier" d="M161 58.0141C255 -40.9859 431 1.0141 340 92.0141C249 183.014 240.256 442.231 367 311.014C494.5 179.014 577.5 208.014 595 298.514C613.341 393.366 693.384 399.698 705 216.014C721 -36.9858 1064.5 -29.4858 913 122.014" stroke="#005CC5"/>
    <path data-draggable id="pin" fill-rule="evenodd" clip-rule="evenodd" d="M910 114.014V116.014L911.25 118.514L900 126.014H890.5C889.4 126.014 888.825 127.339 889.65 128.164L897.5 136.014L887.5 148.514L900 138.514L907.85 146.364C908.675 147.189 910 146.589 910 145.514V136.014L917.5 124.764L920 126.014H922C923.1 126.014 923.675 124.689 922.85 123.864L912.15 113.164C911.325 112.339 910 112.939 910 114.014Z" fill="#C8E1FF"/>
    <path data-draggable id="pencil" fill-rule="evenodd" clip-rule="evenodd" d="M112 95.0142V107.014H124L156 75.0142L144 63.0142L112 95.0142ZM124 103.014H116V95.0142H120V99.0142H124V103.014ZM165.2 65.814L160 71.014L148 59.014L153.2 53.814C154.76 52.254 157.28 52.254 158.84 53.814L165.2 60.174C166.76 61.734 166.76 64.254 165.2 65.814Z" fill="#C8E1FF"/>
    <g data-draggable id="check">
      <path id="Vector_125" d="M326 118.014C332.627 118.014 338 112.641 338 106.014C338 99.3866 332.627 94.014 326 94.014C319.373 94.014 314 99.3866 314 106.014C314 112.641 319.373 118.014 326 118.014Z" fill="#1B1F23"/>
      <path id="Vector_126" fill-rule="evenodd" clip-rule="evenodd" d="M341.34 104.134L339.18 101.454C338.84 101.014 338.62 100.494 338.56 99.9141L338.18 96.5141C338.02 95.1141 336.92 94.0141 335.52 93.8541L332.12 93.4741C331.52 93.4141 331 93.1541 330.56 92.8141L327.88 90.6541C326.78 89.7741 325.22 89.7741 324.12 90.6541L321.44 92.8141C321 93.1541 320.48 93.3741 319.9 93.4341L316.5 93.8141C315.1 93.9741 314 95.0741 313.84 96.4741L313.46 99.8741C313.4 100.474 313.14 100.994 312.8 101.434L310.64 104.114C309.76 105.214 309.76 106.774 310.64 107.874L312.8 110.554C313.14 110.994 313.36 111.514 313.42 112.094L313.8 115.494C313.96 116.894 315.06 117.994 316.46 118.154L319.86 118.534C320.46 118.594 320.98 118.854 321.42 119.194L324.1 121.354C325.2 122.234 326.76 122.234 327.86 121.354L330.54 119.194C330.98 118.854 331.5 118.634 332.08 118.574L335.48 118.194C336.88 118.034 337.98 116.934 338.14 115.534L338.52 112.134C338.58 111.534 338.84 111.014 339.18 110.574L341.34 107.894C342.22 106.794 342.22 105.234 341.34 104.134ZM323 114.014L316 107.014L319 104.014L323 108.014L333 98.0142L336 101.114L323 114.014Z" fill="#C8E1FF"/>
    </g>
    <g data-draggable id="rocket">
      <path id="Vector 2" d="M376.5 296L378.5 295L383.5 299L382 302L377 301L376.5 296Z" fill="#1B1F23"/>
      <path id="Vector_127" fill-rule="evenodd" clip-rule="evenodd" d="M378.412 299.747C377.877 299.202 377.482 298.639 377.168 297.976C376.853 297.353 376.639 296.652 376.506 295.93C375.34 296.58 374.173 297.31 373.026 298.16C371.858 299.03 370.73 300.02 369.62 301.09C368.208 302.478 366.929 304.687 366.018 305.959L360.018 305.907L353.966 311.874L359.965 311.927L364 307.962C363.307 309.496 361.908 313.904 361.948 313.944L363.93 315.961C363.97 316.002 368.401 314.72 369.948 314.014L365.913 317.979L365.86 323.978L371.913 318.031L371.965 312.031C373.253 311.142 375.484 309.882 376.896 308.514C378.005 307.424 379.015 306.273 379.865 305.14C380.755 303.988 381.506 302.834 382.175 301.72C381.457 301.554 380.779 301.328 380.121 301.022C379.504 300.697 378.948 300.292 378.412 299.747ZM386.139 292.154C386.139 292.154 385.952 292.913 385.52 294.269C385.108 295.665 384.393 297.419 383.354 299.57C381.956 299.398 380.82 298.888 380.047 298.101C379.274 297.315 378.803 296.21 378.675 294.809C380.844 293.788 382.591 293.083 383.974 292.695C385.378 292.308 386.139 292.154 386.139 292.154Z" fill="#C8E1FF"/>
    </g>
    <path data-draggable id="plus" fill-rule="evenodd" clip-rule="evenodd" d="M835.5 242.5H817.5C816.675 242.5 816 243.175 816 244V262C816 262.825 816.675 263.5 817.5 263.5H835.5C836.325 263.5 837 262.825 837 262V244C837 243.175 836.325 242.5 835.5 242.5ZM835.5 262H817.5V244H835.5V262ZM825 254.5H820.5V251.5H825V247H828V251.5H832.5V254.5H828V259H825V254.5Z" fill="#C8E1FF"/>
    <g data-draggable id="picture">
      <path id="Vector_128" d="M711.5 197.014H700V214.5H716V201L711.5 197.014Z" fill="#1B1F23"/>
      <path id="Vector_129" fill-rule="evenodd" clip-rule="evenodd" d="M708 201.514H711V204.514H708V201.514ZM717 200.764V215.014C717 215.839 716.325 216.514 715.5 216.514H700.5C699.675 216.514 699 215.839 699 215.014V197.014C699 196.189 699.675 195.514 700.5 195.514H711.75L717 200.764ZM715.5 201.514L711 197.014H700.5V213.514L705 206.014L708 212.014L711 209.014L715.5 213.514V201.514Z" fill="#C8E1FF"/>
    </g>
    <path id="Vector_130" d="M1087 112.014C1079 112.014 1079 96.0142 1071 96.0142C1063 96.0142 1063 112.014 1055 112.014C1047 112.014 1047 96.0142 1039 96.0142C1031 96.0142 1031 112.014 1023 112.014C1015 112.014 1015 96.0142 1007 96.0142" stroke="#0366D6" stroke-linecap="round" stroke-linejoin="round"/>
    <path data-draggable id="merge" fill-rule="evenodd" clip-rule="evenodd" d="M490 143C487.08 143 484.48 144.64 483.08 147.08V147C478.88 146.92 474 145.56 470.56 142.92C467.56 140.6 464.56 136.48 463 133.16C464.8 131.72 466 129.48 466 126.96C466 122.52 462.44 118.96 458 118.96C453.56 118.96 450 122.56 450 127C450 129.92 451.64 132.52 454 133.88V160.12C451.64 161.52 450 164.08 450 167C450 171.44 453.56 175 458 175C462.44 175 466 171.44 466 167C466 164.08 464.36 161.48 462 160.12V145.68C464.68 148.48 467.76 150.76 471.2 152.44C474.64 154.12 479.32 154.96 483.08 155V154.92C484.52 157.36 487.08 159 490 159C494.44 159 498 155.44 498 151C498 146.56 494.44 143 490 143ZM462.8 167C462.8 169.64 460.6 171.8 458 171.8C455.4 171.8 453.2 169.6 453.2 167C453.2 164.4 455.4 162.2 458 162.2C460.6 162.2 462.8 164.4 462.8 167ZM458 131.8C455.36 131.8 453.2 129.6 453.2 127C453.2 124.4 455.4 122.2 458 122.2C460.6 122.2 462.8 124.4 462.8 127C462.8 129.6 460.6 131.8 458 131.8ZM490 155.8C487.36 155.8 485.2 153.6 485.2 151C485.2 148.4 487.4 146.2 490 146.2C492.6 146.2 494.8 148.4 494.8 151C494.8 153.6 492.6 155.8 490 155.8Z" fill="#C8E1FF"/>
    <path data-draggable id="zap" fill-rule="evenodd" clip-rule="evenodd" d="M606 303H598L604 289L586 307H594L588 321L606 303Z" fill="#C8E1FF"/>
  </g>
</svg>
