<svg width="400" height="220" viewBox="0 0 400 220" fill="none" xmlns="http://www.w3.org/2000/svg">
<rect width="400" height="220" fill="#1B1F23"/>
<rect x="115" y="25" width="170" height="170" fill="#1B1F23" stroke="#79B8FF"/>
<path fill-rule="evenodd" clip-rule="evenodd" d="M199.689 94.449C190.821 94.449 183.638 101.609 183.638 110.449C183.638 117.529 188.232 123.509 194.613 125.629C195.415 125.769 195.716 125.289 195.716 124.869C195.716 124.489 195.696 123.229 195.696 121.889C191.663 122.629 190.62 120.909 190.299 120.009C190.118 119.549 189.336 118.129 188.654 117.749C188.092 117.449 187.289 116.709 188.634 116.689C189.898 116.669 190.801 117.849 191.102 118.329C192.546 120.749 194.853 120.069 195.776 119.649C195.917 118.609 196.338 117.909 196.8 117.509C193.228 117.109 189.496 115.729 189.496 109.609C189.496 107.869 190.118 106.429 191.142 105.309C190.981 104.909 190.419 103.269 191.302 101.069C191.302 101.069 192.646 100.649 195.716 102.709C197 102.349 198.365 102.169 199.729 102.169C201.093 102.169 202.458 102.349 203.742 102.709C206.811 100.629 208.156 101.069 208.156 101.069C209.039 103.269 208.477 104.909 208.316 105.309C209.34 106.429 209.961 107.849 209.961 109.609C209.961 115.749 206.21 117.109 202.638 117.509C203.22 118.009 203.722 118.969 203.722 120.469C203.722 122.609 203.702 124.329 203.702 124.869C203.702 125.289 204.003 125.789 204.805 125.629C211.145 123.509 215.74 117.509 215.74 110.449C215.74 101.609 208.557 94.449 199.689 94.449Z" fill="#2188FF"/>
<path fill-rule="evenodd" clip-rule="evenodd" d="M208.079 163.898C206.615 163.898 205.31 164.718 204.608 165.938V165.898C202.501 165.858 200.054 165.178 198.328 163.858C196.823 162.698 195.319 160.638 194.536 158.978C195.439 158.258 196.041 157.138 196.041 155.878C196.041 153.658 194.255 151.878 192.028 151.878C189.801 151.878 188.015 153.678 188.015 155.898C188.015 157.358 188.838 158.658 190.022 159.338V172.458C188.838 173.158 188.015 174.438 188.015 175.898C188.015 178.118 189.801 179.898 192.028 179.898C194.255 179.898 196.041 178.118 196.041 175.898C196.041 174.438 195.218 173.138 194.035 172.458V165.238C195.379 166.638 196.924 167.778 198.649 168.618C200.375 169.458 202.722 169.878 204.608 169.898V169.858C205.33 171.078 206.615 171.898 208.079 171.898C210.306 171.898 212.092 170.118 212.092 167.898C212.092 165.678 210.306 163.898 208.079 163.898ZM194.436 175.898C194.436 177.218 193.332 178.298 192.028 178.298C190.724 178.298 189.62 177.198 189.62 175.898C189.62 174.598 190.724 173.498 192.028 173.498C193.332 173.498 194.436 174.598 194.436 175.898ZM192.028 158.298C190.704 158.298 189.62 157.198 189.62 155.898C189.62 154.598 190.724 153.498 192.028 153.498C193.332 153.498 194.436 154.598 194.436 155.898C194.436 157.198 193.332 158.298 192.028 158.298ZM208.079 170.298C206.755 170.298 205.671 169.198 205.671 167.898C205.671 166.598 206.775 165.498 208.079 165.498C209.383 165.498 210.487 166.598 210.487 167.898C210.487 169.198 209.383 170.298 208.079 170.298Z" fill="#044289"/>
<path fill-rule="evenodd" clip-rule="evenodd" d="M265.693 102.109C265.151 101.569 264.75 101.009 264.429 100.349C264.108 99.7289 263.887 99.0289 263.747 98.3089C262.583 98.9689 261.42 99.7089 260.276 100.569C259.112 101.449 257.989 102.449 256.885 103.529C255.481 104.929 254.217 107.149 253.314 108.429H247.295L241.276 114.449H247.295L251.307 110.449C250.625 111.989 249.261 116.409 249.301 116.449L251.307 118.449C251.348 118.489 255.782 117.169 257.327 116.449L253.314 120.449V126.449L259.333 120.449V114.449C260.617 113.549 262.844 112.269 264.249 110.889C265.352 109.789 266.355 108.629 267.198 107.489C268.081 106.329 268.823 105.169 269.485 104.049C268.763 103.889 268.081 103.669 267.419 103.369C266.797 103.049 266.235 102.649 265.693 102.109ZM273.378 94.449C273.378 94.449 273.197 95.209 272.776 96.569C272.374 97.969 271.672 99.729 270.649 101.889C269.244 101.729 268.101 101.229 267.318 100.449C266.536 99.669 266.054 98.569 265.914 97.169C268.081 96.129 269.826 95.409 271.211 95.009C272.615 94.609 273.378 94.449 273.378 94.449Z" fill="#044289"/>
<path fill-rule="evenodd" clip-rule="evenodd" d="M150.077 96.449C145.642 96.449 142.051 99.069 142.051 102.289C142.051 106.169 143.054 108.349 142.051 114.449C142.051 105.449 136.493 101.769 134.026 101.769C134.126 100.769 133.062 100.449 133.062 100.449C133.062 100.449 132.621 100.669 132.461 101.129C131.919 100.509 131.337 100.589 131.337 100.589L131.076 101.749C131.076 101.749 127.404 103.029 127.364 108.189C127.766 108.849 130.434 109.389 132.32 109.049C134.106 109.149 133.664 110.629 133.263 111.029C131.578 112.709 130.013 110.449 128.006 110.449C126 110.449 126 112.449 128.006 112.449C130.013 112.449 130.013 114.449 134.026 114.449C127.826 116.849 134.026 122.449 134.026 122.449H132.019C130.013 122.449 130.013 124.449 130.013 124.449C130.013 124.449 138.038 124.449 142.051 124.449C148.07 124.449 152.083 122.449 152.083 117.509C152.083 115.809 151.22 113.929 150.077 112.449C147.849 109.529 150.538 107.089 152.083 108.449C153.628 109.809 158.102 110.449 158.102 104.449C158.102 100.029 154.511 96.449 150.077 96.449ZM131.016 106.449C130.454 106.449 130.013 106.009 130.013 105.449C130.013 104.889 130.454 104.449 131.016 104.449C131.578 104.449 132.019 104.889 132.019 105.449C132.019 106.009 131.578 106.449 131.016 106.449Z" fill="#044289"/>
<path fill-rule="evenodd" clip-rule="evenodd" d="M157.96 166.238L156.02 178.138C155.68 180.898 152.26 181.898 150 181.898H137.38C136.98 181.898 136.62 181.798 136.32 181.618L133.44 179.898H130C127.88 179.898 126 178.018 126 175.898V167.898C126 165.778 127.88 163.858 130 163.898H134C135.82 163.898 136.78 162.998 138.78 160.798C140.6 158.798 140.54 157.198 140.04 154.258C139.88 153.258 140.16 152.258 140.88 151.418C141.66 150.478 142.84 149.898 144 149.898C147.66 149.898 150 157.318 150 159.918L149.96 161.878H150H154.04C156.36 161.878 157.94 163.478 158 165.818C158 166.038 157.96 166.238 157.96 166.238ZM154.02 163.858H150.04C148.64 163.858 147.98 163.298 147.98 161.918L148.04 159.858C148.04 157.318 145.7 151.858 144.04 151.858C143.04 151.858 141.88 152.858 142.04 153.858C142.54 157.018 142.72 159.418 140.26 162.138C138.22 164.398 136.72 165.898 134 165.898V177.898L137.34 179.898H150C151.46 179.898 153.9 179.278 154 177.898L154.04 177.858L156.04 165.858C155.98 164.578 155.28 163.858 154.04 163.858H154.02Z" fill="#044289"/>
<path fill-rule="evenodd" clip-rule="evenodd" d="M269.365 151.898H245.288C244.185 151.898 243.282 152.798 243.282 153.898V169.898C243.282 170.998 244.185 171.898 245.288 171.898H249.301V178.898L256.323 171.898H269.365C270.468 171.898 271.371 170.998 271.371 169.898V153.898C271.371 152.798 270.468 151.898 269.365 151.898ZM269.365 169.898H255.32L251.307 173.898V169.898H245.288V153.898H269.365V169.898Z" fill="#044289"/>
<path fill-rule="evenodd" clip-rule="evenodd" d="M196.041 63H198.047V65H192.028V63H194.035V59H192.028V57H196.041V63ZM212.092 48V67C212.092 68.1 211.189 69 210.086 69H190.022C188.918 69 188.015 68.1 188.015 67V43C188.015 41.9 188.918 41 190.022 41H205.07L212.092 48ZM210.086 48.9999L204.066 42.9999H190.022V66.9999H210.086V48.9999ZM204.066 47H200.054V49H202.06V53H200.054V55H206.073V53H204.066V47ZM192.028 47H198.047V55H192.028V47ZM194.035 53H196.041V49H194.035V53ZM200.054 57H206.073V65H200.054V57ZM202.06 63H204.066V59H202.06V63Z" fill="#044289"/>
<path fill-rule="evenodd" clip-rule="evenodd" d="M143.843 42.0014C143.475 41.3805 142.8 41 142.064 41C141.327 41 140.653 41.3805 140.285 42.0014L126.276 65.9957C125.908 66.6166 125.908 67.3777 126.276 67.9986C126.665 68.6195 127.339 69 128.055 69H156.072C156.808 69 157.483 68.6195 157.831 67.9986C158.179 67.3777 158.199 66.6166 157.851 65.9957L143.843 42.0014ZM144.109 64.9943H140.019V60.9886H144.109V64.9943ZM144.109 58.9856H140.019V50.9741H144.109V58.9856Z" fill="#044289"/>
<path fill-rule="evenodd" clip-rule="evenodd" d="M269.124 43.34C267.624 41.84 265.744 41.06 263.464 41C261.204 41.06 259.304 41.84 257.804 43.34C256.304 44.84 255.544 46.72 255.484 49C255.484 49.6 255.544 50.18 255.664 50.78L243.464 63V65L245.464 67H249.464L251.464 65V63H253.464V61H255.464V59H259.464L261.644 56.78C262.244 56.94 262.824 57 263.464 57C265.744 56.94 267.624 56.16 269.124 54.66C270.624 53.16 271.404 51.28 271.464 49C271.404 46.72 270.624 44.84 269.124 43.34ZM265.464 49.76C263.924 49.76 262.704 48.54 262.704 47C262.704 45.46 263.924 44.24 265.464 44.24C267.004 44.24 268.224 45.46 268.224 47C268.224 48.54 267.004 49.76 265.464 49.76Z" fill="#044289"/>
</svg>
